<?xml version="1.0" encoding="utf-8"?>
<!-- Generator: Adobe Illustrator 16.0.0, SVG Export Plug-In . SVG Version: 6.00 Build 0)  -->
<!DOCTYPE svg PUBLIC "-//W3C//DTD SVG 1.1//EN" "http://www.w3.org/Graphics/SVG/1.1/DTD/svg11.dtd">
<svg version="1.1" id="Layer_1" xmlns="http://www.w3.org/2000/svg" xmlns:xlink="http://www.w3.org/1999/xlink" x="0px" y="0px"
	 width="500px" height="500px" viewBox="0 0 500 500" enable-background="new 0 0 500 500" xml:space="preserve">
<g id="Credit_Card">
</g>
<path opacity="0.09" fill="#441FA7" d="M311.667,423.911c0,7.214-46.988,11.148-104.952,11.148s-103.57-4.039-104.952-11.148
	c-2.539-13.062,46.989-13.062,104.952-13.062S311.667,410.85,311.667,423.911z"/>
<g>
	<g>
		<path fill="#223663" d="M393.737,351.343H26.049c-6.461,0-11.698-5.237-11.698-11.697V97.336c0-6.461,5.237-11.698,11.698-11.698
			h367.688c6.462,0,11.699,5.237,11.699,11.698v242.31C405.437,346.105,400.199,351.343,393.737,351.343z"/>
		<path fill="#FFFFFF" d="M388.465,329.134H31.322c-2.735,0-4.953-2.218-4.953-4.952V155.909c0-31.002,25.133-56.135,56.135-56.135
			H348.55c24.779,0,44.867,20.088,44.867,44.869v179.539C393.417,326.916,391.2,329.134,388.465,329.134z"/>
		<path fill="#5DEBEE" d="M231.865,340.371h-43.943c-1.418,0-2.567-1.149-2.567-2.568l0,0c0-1.418,1.149-2.568,2.567-2.568h43.943
			c1.418,0,2.568,1.15,2.568,2.568l0,0C234.433,339.222,233.283,340.371,231.865,340.371z"/>
		<polygon fill="#223663" points="260.258,409.297 159.528,409.297 165.75,351.204 252.906,351.204 		"/>
		<path fill="#223663" d="M276.691,419.957H143.095c-1.668,0-3.021-1.354-3.021-3.021v-7.282c0-1.669,1.353-3.021,3.021-3.021
			h133.596c1.669,0,3.021,1.352,3.021,3.021v7.282C279.712,418.604,278.36,419.957,276.691,419.957z"/>
	</g>
</g>
<g id="XMLID_830_">
	<g id="XMLID_837_">
		<path id="XMLID_853_" fill="#5DEBEE" d="M20.487,159.503L20.487,159.503c-7.05,0-12.765-5.273-12.765-11.778v-19.479h25.53v19.479
			C33.252,154.229,27.537,159.503,20.487,159.503z"/>
		<path id="XMLID_852_" fill="#441FA7" d="M46.018,159.503L46.018,159.503c-7.05,0-12.766-5.273-12.766-11.778v-19.479h25.531
			v19.479C58.783,154.229,53.068,159.503,46.018,159.503z"/>
		<path id="XMLID_851_" fill="#5DEBEE" d="M71.549,159.503L71.549,159.503c-7.05,0-12.766-5.273-12.766-11.778v-19.479h25.531
			v19.479C84.314,154.229,78.599,159.503,71.549,159.503z"/>
		<path id="XMLID_850_" fill="#441FA7" d="M97.583,159.503h-1.007c-6.772,0-12.262-5.49-12.262-12.262v-18.996h25.531v18.996
			C109.845,154.013,104.355,159.503,97.583,159.503z"/>
		<path id="XMLID_849_" fill="#5DEBEE" d="M122.61,159.503L122.61,159.503c-7.05,0-12.765-5.273-12.765-11.778v-19.479h25.531
			v19.479C135.375,154.229,129.66,159.503,122.61,159.503z"/>
		<path id="XMLID_848_" fill="#441FA7" d="M148.141,159.503L148.141,159.503c-7.05,0-12.766-5.273-12.766-11.778v-19.479h25.531
			v19.479C160.906,154.229,155.191,159.503,148.141,159.503z"/>
		<path id="XMLID_847_" fill="#5DEBEE" d="M173.672,159.503L173.672,159.503c-7.05,0-12.766-5.273-12.766-11.778v-19.479h25.531
			v19.479C186.438,154.229,180.722,159.503,173.672,159.503z"/>
		<path id="XMLID_846_" fill="#441FA7" d="M199.202,159.503L199.202,159.503c-7.05,0-12.765-5.273-12.765-11.778v-19.479h25.53
			v19.479C211.968,154.229,206.253,159.503,199.202,159.503z"/>
		<path id="XMLID_845_" fill="#5DEBEE" d="M224.733,159.503L224.733,159.503c-7.05,0-12.766-5.273-12.766-11.778v-19.479h25.531
			v19.479C237.499,154.229,231.783,159.503,224.733,159.503z"/>
		<path id="XMLID_844_" fill="#441FA7" d="M250.264,159.503L250.264,159.503c-7.05,0-12.765-5.273-12.765-11.778v-19.479h25.531
			v19.479C263.029,154.229,257.313,159.503,250.264,159.503z"/>
		<path id="XMLID_843_" fill="#5DEBEE" d="M276.298,159.503h-1.006c-6.773,0-12.263-5.49-12.263-12.262v-18.996h25.531v18.996
			C288.561,154.013,283.071,159.503,276.298,159.503z"/>
		<path id="XMLID_842_" fill="#441FA7" d="M301.325,159.503L301.325,159.503c-7.05,0-12.765-5.273-12.765-11.778v-19.479h25.531
			v19.479C314.092,154.229,308.375,159.503,301.325,159.503z"/>
		<path id="XMLID_841_" fill="#5DEBEE" d="M326.856,159.503L326.856,159.503c-7.051,0-12.765-5.273-12.765-11.778v-19.479h25.53
			v19.479C339.622,154.229,333.906,159.503,326.856,159.503z"/>
		<path id="XMLID_840_" fill="#441FA7" d="M352.388,159.503L352.388,159.503c-7.051,0-12.766-5.273-12.766-11.778v-19.479h25.531
			v19.479C365.153,154.229,359.438,159.503,352.388,159.503z"/>
		<path id="XMLID_839_" fill="#5DEBEE" d="M377.919,159.503L377.919,159.503c-7.051,0-12.766-5.273-12.766-11.778v-19.479h25.529
			v19.479C390.683,154.229,384.968,159.503,377.919,159.503z"/>
		<path id="XMLID_838_" fill="#441FA7" d="M403.448,159.503L403.448,159.503c-7.05,0-12.766-5.273-12.766-11.778v-19.479h25.531
			v19.479C416.214,154.229,410.499,159.503,403.448,159.503z"/>
	</g>
	<g id="XMLID_831_">
		<g id="XMLID_834_">
			<path id="XMLID_923_" fill="#5DEBEE" d="M33.247,128.244c-10.212,0-15.318,0-25.53,0c17.024-10.853,34.048-21.705,51.072-32.557
				c7.658,0,11.487,0,19.146,0C63.04,106.539,48.143,117.392,33.247,128.244z"/>
			<path id="XMLID_921_" fill="#5DEBEE" d="M84.308,128.244c-10.212,0-15.319,0-25.531,0c12.768-10.853,25.537-21.705,38.305-32.557
				c7.659,0,11.488,0,19.147,0C105.588,106.539,94.949,117.392,84.308,128.244z"/>
			<path id="XMLID_919_" fill="#5DEBEE" d="M135.372,128.244c-10.213,0-15.319,0-25.532,0c8.512-10.853,17.025-21.705,25.536-32.557
				c7.66,0,11.489,0,19.148,0C146.864,108.708,143.032,115.223,135.372,128.244z"/>
			<path id="XMLID_917_" fill="#5DEBEE" d="M186.437,128.244c-10.213,0-15.32,0-25.533,0c5.107-13.021,7.662-19.536,12.769-32.557
				c7.659,0,11.489,0,19.148,0C190.267,108.708,188.99,115.223,186.437,128.244z"/>
			<path id="XMLID_915_" fill="#5DEBEE" d="M237.502,128.244c-10.213,0-15.319,0-25.533,0c0-13.021,0-19.536,0-32.557
				c7.659,0,11.489,0,19.148,0C233.671,108.708,234.949,115.223,237.502,128.244z"/>
			<path id="XMLID_891_" fill="#5DEBEE" d="M288.566,128.244c-10.212,0-15.318,0-25.532,0c-5.106-13.021-7.662-19.536-12.769-32.557
				c7.66,0,11.49,0,19.148,0C277.074,108.708,280.907,115.223,288.566,128.244z"/>
			<path id="XMLID_888_" fill="#5DEBEE" d="M339.631,128.244c-10.213,0-15.319,0-25.531,0
				c-8.514-10.853-17.025-21.705-25.537-32.557c7.658,0,11.489,0,19.147,0C318.351,106.539,328.99,117.392,339.631,128.244z"/>
			<path id="XMLID_873_" fill="#5DEBEE" d="M390.691,128.244c-10.212,0-15.317,0-25.529,0
				c-12.769-10.853-25.537-21.705-38.306-32.557c7.659,0,11.488,0,19.146,0C360.9,106.539,375.795,117.392,390.691,128.244z"/>
			<g>
				<path id="XMLID_922_" fill="#441FA7" d="M58.777,128.244c-10.212,0-15.319,0-25.53,0c14.896-10.853,29.792-21.705,44.688-32.557
					c7.659,0,11.488,0,19.146,0C84.314,106.539,71.545,117.392,58.777,128.244z"/>
				<path id="XMLID_920_" fill="#441FA7" d="M109.84,128.244c-10.213,0-15.319,0-25.532,0c10.641-10.853,21.28-21.705,31.921-32.557
					c7.659,0,11.488,0,19.147,0C126.865,106.539,118.352,117.392,109.84,128.244z"/>
				<path id="XMLID_918_" fill="#441FA7" d="M160.904,128.244c-10.213,0-15.319,0-25.532,0c7.66-13.021,11.492-19.536,19.153-32.557
					c7.659,0,11.489,0,19.148,0C168.565,108.708,166.011,115.223,160.904,128.244z"/>
				<path id="XMLID_916_" fill="#441FA7" d="M211.969,128.244c-10.213,0-15.319,0-25.533,0c2.553-13.021,3.831-19.536,6.384-32.557
					c7.659,0,11.489,0,19.148,0C211.969,108.708,211.969,115.223,211.969,128.244z"/>
				<path id="XMLID_893_" fill="#441FA7" d="M263.034,128.244c-10.213,0-15.319,0-25.532,0c-2.553-13.021-3.831-19.536-6.384-32.557
					c7.659,0,11.489,0,19.148,0C255.372,108.708,257.928,115.223,263.034,128.244z"/>
				<path id="XMLID_890_" fill="#441FA7" d="M314.1,128.244c-10.213,0-15.319,0-25.533,0c-7.659-13.021-11.492-19.536-19.152-32.557
					c7.659,0,11.488,0,19.148,0C297.074,106.539,305.586,117.392,314.1,128.244z"/>
				<path id="XMLID_880_" fill="#441FA7" d="M365.162,128.244c-10.213,0-15.319,0-25.531,0
					c-10.641-10.853-21.28-21.705-31.921-32.557c7.659,0,11.488,0,19.146,0C339.625,106.539,352.394,117.392,365.162,128.244z"/>
				<path id="XMLID_835_" fill="#441FA7" d="M416.221,128.244c-10.212,0-15.317,0-25.529,0
					c-14.896-10.853-29.791-21.705-44.688-32.557c7.659,0,11.488,0,19.146,0C382.174,106.539,399.197,117.392,416.221,128.244z"/>
			</g>
		</g>
	</g>
</g>
<g>
	<path opacity="0.09" fill="#441FA7" d="M492.282,448.123c0,6.544-43.845,10.114-97.928,10.114
		c-54.084,0-96.638-3.664-97.927-10.114c-2.37-11.848,43.843-11.848,97.927-11.848C448.438,436.275,492.282,436.275,492.282,448.123
		z"/>
	<g>
		<path fill="#9292F6" d="M463.707,444.065H323.646c-5.6,0-10.142-4.541-10.142-10.143v-76.542c0-5.602,4.542-10.144,10.142-10.144
			h140.062c5.602,0,10.144,4.542,10.144,10.144v76.542C473.851,439.524,469.309,444.065,463.707,444.065z"/>
		<rect x="313.431" y="370.973" fill="#441FA7" width="160.409" height="19.902"/>
		<path fill="#FFFFFF" d="M402.831,412.632h-69.449c-3.275,0-5.928-2.654-5.928-5.929l0,0c0-3.274,2.652-5.93,5.928-5.93h69.449
			c3.273,0,5.928,2.655,5.928,5.93l0,0C408.759,409.978,406.104,412.632,402.831,412.632z"/>
		<path fill="#FFFFFF" d="M454.494,412.632h-35.938c-3.274,0-5.93-2.654-5.93-5.929l0,0c0-3.274,2.655-5.93,5.93-5.93h35.938
			c3.274,0,5.929,2.655,5.929,5.93l0,0C460.423,409.978,457.769,412.632,454.494,412.632z"/>
		<rect x="328.767" y="417.756" fill="#441FA7" width="47.264" height="4.233"/>
		<rect x="380.532" y="417.756" fill="#441FA7" width="23.306" height="4.233"/>
		<rect x="407.912" y="417.756" fill="#441FA7" width="52.397" height="4.233"/>
		<circle fill="#FFFFFF" cx="446.172" cy="360.422" r="5.485"/>
		<circle fill="#441FA7" cx="453.222" cy="360.422" r="5.486"/>
		<g>
			<circle fill="#441FA7" cx="386.072" cy="434.447" r="2.353"/>
			<circle fill="#441FA7" cx="393.677" cy="434.447" r="2.353"/>
			<circle fill="#441FA7" cx="401.282" cy="434.447" r="2.353"/>
		</g>
	</g>
</g>
<polygon fill="#5DEBEE" points="406.934,277.461 389.136,292.921 406.934,308.423 457.731,308.423 457.731,277.461 "/>
<g>
	<g>
		<polyline fill="none" stroke="#2ECCCC" stroke-width="0.5" stroke-linecap="round" stroke-linejoin="round" points="
			394.816,292.481 394.302,292.924 394.816,293.367 		"/>
		
			<polyline fill="none" stroke="#2ECCCC" stroke-width="0.5" stroke-linecap="round" stroke-linejoin="round" stroke-dasharray="1.3632,1.3632" points="
			395.85,294.257 409.604,306.104 453.477,306.104 		"/>
		<polyline fill="none" stroke="#2ECCCC" stroke-width="0.5" stroke-linecap="round" stroke-linejoin="round" points="
			454.158,306.104 454.837,306.104 454.837,305.425 		"/>
		
			<line fill="none" stroke="#2ECCCC" stroke-width="0.5" stroke-linecap="round" stroke-linejoin="round" stroke-dasharray="1.3139,1.3139" x1="454.837" y1="304.11" x2="454.837" y2="281.117"/>
		<polyline fill="none" stroke="#2ECCCC" stroke-width="0.5" stroke-linecap="round" stroke-linejoin="round" points="
			454.837,280.46 454.837,279.781 454.158,279.781 		"/>
		
			<polyline fill="none" stroke="#2ECCCC" stroke-width="0.5" stroke-linecap="round" stroke-linejoin="round" stroke-dasharray="1.3627,1.3627" points="
			452.795,279.781 409.604,279.781 395.334,292.037 		"/>
	</g>
</g>
<g>
	<path fill="#FFFFFF" d="M412.644,286.061l0.907-0.088c0.055,0.305,0.166,0.528,0.333,0.672c0.167,0.143,0.393,0.214,0.676,0.214
		c0.301,0,0.527-0.063,0.68-0.19s0.229-0.276,0.229-0.446c0-0.109-0.032-0.202-0.097-0.279c-0.063-0.076-0.176-0.143-0.335-0.2
		c-0.109-0.037-0.358-0.104-0.747-0.201c-0.5-0.124-0.852-0.276-1.053-0.457c-0.284-0.254-0.426-0.564-0.426-0.93
		c0-0.235,0.066-0.456,0.2-0.661c0.133-0.204,0.325-0.36,0.577-0.468c0.251-0.107,0.554-0.16,0.909-0.16
		c0.58,0,1.017,0.127,1.31,0.381s0.447,0.594,0.462,1.019l-0.934,0.041c-0.04-0.238-0.125-0.408-0.257-0.513
		c-0.131-0.104-0.328-0.156-0.591-0.156c-0.271,0-0.483,0.056-0.637,0.167c-0.099,0.072-0.148,0.167-0.148,0.287
		c0,0.109,0.047,0.203,0.139,0.28c0.118,0.1,0.403,0.202,0.857,0.31c0.454,0.106,0.79,0.218,1.008,0.332
		c0.217,0.115,0.388,0.271,0.51,0.47c0.123,0.198,0.185,0.444,0.185,0.736c0,0.265-0.073,0.513-0.221,0.744
		c-0.146,0.23-0.354,0.402-0.624,0.515c-0.269,0.112-0.604,0.169-1.005,0.169c-0.585,0-1.033-0.135-1.347-0.405
		C412.892,286.972,412.704,286.578,412.644,286.061z"/>
	<path fill="#FFFFFF" d="M417.841,285.238l-0.804-0.145c0.091-0.324,0.246-0.563,0.467-0.719c0.221-0.156,0.549-0.233,0.983-0.233
		c0.395,0,0.689,0.047,0.883,0.14c0.193,0.094,0.329,0.213,0.408,0.356c0.078,0.145,0.118,0.408,0.118,0.793l-0.01,1.034
		c0,0.294,0.015,0.511,0.043,0.65s0.081,0.289,0.159,0.449h-0.877c-0.022-0.059-0.051-0.146-0.085-0.262
		c-0.015-0.053-0.025-0.087-0.031-0.104c-0.151,0.146-0.313,0.257-0.485,0.33c-0.173,0.074-0.356,0.11-0.552,0.11
		c-0.345,0-0.616-0.093-0.814-0.28c-0.199-0.187-0.298-0.423-0.298-0.709c0-0.189,0.045-0.357,0.135-0.506
		c0.091-0.148,0.218-0.262,0.38-0.341c0.163-0.078,0.398-0.147,0.705-0.206c0.414-0.078,0.7-0.15,0.86-0.218v-0.088
		c0-0.17-0.042-0.292-0.126-0.364s-0.243-0.108-0.477-0.108c-0.157,0-0.28,0.03-0.368,0.093
		C417.967,284.974,417.896,285.083,417.841,285.238z M419.026,285.957c-0.113,0.038-0.293,0.083-0.539,0.136
		c-0.246,0.052-0.406,0.104-0.482,0.154c-0.115,0.082-0.173,0.186-0.173,0.312c0,0.124,0.046,0.231,0.139,0.322
		c0.092,0.09,0.21,0.135,0.353,0.135c0.16,0,0.313-0.052,0.457-0.157c0.107-0.08,0.178-0.178,0.211-0.293
		c0.023-0.076,0.035-0.22,0.035-0.432V285.957z"/>
	<path fill="#FFFFFF" d="M420.769,287.564v-4.621h0.886v4.621H420.769z"/>
	<path fill="#FFFFFF" d="M424.501,286.499l0.883,0.148c-0.113,0.323-0.292,0.569-0.537,0.739c-0.245,0.169-0.551,0.253-0.919,0.253
		c-0.582,0-1.013-0.189-1.292-0.57c-0.221-0.305-0.331-0.688-0.331-1.153c0-0.555,0.145-0.989,0.435-1.304
		c0.29-0.313,0.657-0.471,1.101-0.471c0.498,0,0.891,0.164,1.179,0.493s0.426,0.833,0.413,1.512h-2.22
		c0.007,0.263,0.078,0.467,0.215,0.612c0.137,0.146,0.307,0.22,0.511,0.22c0.139,0,0.255-0.038,0.35-0.114
		C424.382,286.789,424.453,286.667,424.501,286.499z M424.552,285.604c-0.006-0.256-0.072-0.451-0.198-0.584
		c-0.126-0.134-0.279-0.2-0.46-0.2c-0.193,0-0.354,0.07-0.479,0.211s-0.188,0.332-0.187,0.573H424.552z"/>
	<path fill="#FFFFFF" d="M412.867,295.311v-4.621h1.396l0.838,3.152l0.829-3.152h1.399v4.621h-0.866v-3.638l-0.917,3.638h-0.898
		l-0.914-3.638v3.638H412.867z"/>
	<path fill="#FFFFFF" d="M418.912,292.984l-0.804-0.145c0.091-0.324,0.246-0.563,0.467-0.719c0.221-0.156,0.549-0.233,0.983-0.233
		c0.395,0,0.689,0.047,0.883,0.14c0.193,0.094,0.329,0.213,0.408,0.356c0.078,0.145,0.118,0.408,0.118,0.793l-0.01,1.034
		c0,0.294,0.015,0.511,0.043,0.65s0.081,0.289,0.159,0.449h-0.877c-0.022-0.059-0.051-0.146-0.085-0.262
		c-0.015-0.053-0.025-0.087-0.031-0.104c-0.151,0.146-0.313,0.257-0.485,0.33c-0.173,0.074-0.356,0.11-0.552,0.11
		c-0.345,0-0.616-0.093-0.814-0.28c-0.199-0.187-0.298-0.423-0.298-0.709c0-0.189,0.045-0.357,0.135-0.506
		c0.091-0.148,0.218-0.262,0.38-0.341c0.163-0.078,0.398-0.147,0.705-0.206c0.414-0.078,0.7-0.15,0.86-0.218v-0.088
		c0-0.17-0.042-0.292-0.126-0.364s-0.243-0.108-0.477-0.108c-0.157,0-0.28,0.03-0.368,0.093
		C419.038,292.72,418.967,292.829,418.912,292.984z M420.098,293.703c-0.113,0.038-0.293,0.083-0.539,0.136
		c-0.246,0.052-0.406,0.104-0.482,0.154c-0.115,0.082-0.173,0.186-0.173,0.312c0,0.124,0.046,0.231,0.139,0.322
		c0.092,0.09,0.21,0.135,0.353,0.135c0.16,0,0.313-0.052,0.457-0.157c0.107-0.08,0.178-0.178,0.211-0.293
		c0.023-0.076,0.035-0.22,0.035-0.432V293.703z"/>
	<path fill="#FFFFFF" d="M424.886,295.311H424v-1.708c0-0.361-0.019-0.596-0.057-0.702c-0.037-0.105-0.099-0.188-0.185-0.247
		c-0.085-0.059-0.188-0.088-0.307-0.088c-0.153,0-0.291,0.042-0.413,0.126s-0.205,0.195-0.251,0.334
		c-0.045,0.139-0.067,0.396-0.067,0.769v1.517h-0.886v-3.348h0.822v0.492c0.292-0.379,0.66-0.567,1.104-0.567
		c0.195,0,0.374,0.035,0.536,0.105c0.161,0.07,0.284,0.16,0.367,0.27s0.141,0.233,0.173,0.372c0.033,0.139,0.049,0.337,0.049,0.596
		V295.311z"/>
	<path fill="#FFFFFF" d="M426.445,292.984l-0.804-0.145c0.091-0.324,0.246-0.563,0.467-0.719c0.221-0.156,0.549-0.233,0.983-0.233
		c0.395,0,0.689,0.047,0.883,0.14c0.193,0.094,0.329,0.213,0.408,0.356c0.078,0.145,0.118,0.408,0.118,0.793l-0.01,1.034
		c0,0.294,0.015,0.511,0.043,0.65s0.081,0.289,0.159,0.449h-0.877c-0.022-0.059-0.051-0.146-0.085-0.262
		c-0.015-0.053-0.025-0.087-0.031-0.104c-0.151,0.146-0.313,0.257-0.485,0.33c-0.173,0.074-0.356,0.11-0.552,0.11
		c-0.345,0-0.616-0.093-0.814-0.28c-0.199-0.187-0.298-0.423-0.298-0.709c0-0.189,0.045-0.357,0.135-0.506
		c0.091-0.148,0.218-0.262,0.38-0.341c0.163-0.078,0.398-0.147,0.705-0.206c0.414-0.078,0.7-0.15,0.86-0.218v-0.088
		c0-0.17-0.042-0.292-0.126-0.364s-0.243-0.108-0.477-0.108c-0.157,0-0.28,0.03-0.368,0.093
		C426.571,292.72,426.5,292.829,426.445,292.984z M427.631,293.703c-0.113,0.038-0.293,0.083-0.539,0.136
		c-0.246,0.052-0.406,0.104-0.482,0.154c-0.115,0.082-0.173,0.186-0.173,0.312c0,0.124,0.046,0.231,0.139,0.322
		c0.092,0.09,0.21,0.135,0.353,0.135c0.16,0,0.313-0.052,0.457-0.157c0.107-0.08,0.178-0.178,0.211-0.293
		c0.023-0.076,0.035-0.22,0.035-0.432V293.703z"/>
	<path fill="#FFFFFF" d="M429.293,295.531l1.012,0.123c0.017,0.117,0.056,0.198,0.116,0.242c0.084,0.063,0.217,0.095,0.397,0.095
		c0.23,0,0.404-0.034,0.52-0.104c0.078-0.047,0.137-0.121,0.177-0.225c0.027-0.073,0.041-0.209,0.041-0.406v-0.488
		c-0.265,0.361-0.599,0.542-1.002,0.542c-0.45,0-0.807-0.19-1.069-0.57c-0.205-0.301-0.309-0.675-0.309-1.122
		c0-0.562,0.135-0.99,0.405-1.286c0.27-0.297,0.605-0.444,1.007-0.444c0.414,0,0.756,0.182,1.024,0.545v-0.47h0.829v3.004
		c0,0.396-0.032,0.69-0.098,0.886s-0.156,0.349-0.274,0.46c-0.117,0.111-0.274,0.199-0.471,0.262
		c-0.197,0.063-0.445,0.095-0.746,0.095c-0.567,0-0.97-0.097-1.207-0.291s-0.356-0.441-0.356-0.739
		C429.289,295.609,429.29,295.573,429.293,295.531z M430.084,293.567c0,0.355,0.068,0.615,0.206,0.78s0.308,0.247,0.509,0.247
		c0.217,0,0.399-0.084,0.549-0.254c0.149-0.169,0.224-0.419,0.224-0.751c0-0.347-0.071-0.604-0.214-0.772
		c-0.144-0.168-0.324-0.252-0.542-0.252c-0.213,0-0.388,0.082-0.525,0.247S430.084,293.229,430.084,293.567z"/>
	<path fill="#FFFFFF" d="M435.256,294.245l0.883,0.148c-0.113,0.323-0.292,0.569-0.537,0.739c-0.245,0.169-0.551,0.253-0.919,0.253
		c-0.582,0-1.013-0.189-1.292-0.57c-0.221-0.305-0.331-0.688-0.331-1.153c0-0.555,0.145-0.989,0.435-1.304
		c0.29-0.313,0.657-0.471,1.101-0.471c0.498,0,0.891,0.164,1.179,0.493s0.426,0.833,0.413,1.512h-2.22
		c0.007,0.263,0.078,0.467,0.215,0.612c0.137,0.146,0.307,0.22,0.511,0.22c0.139,0,0.255-0.038,0.35-0.114
		C435.137,294.535,435.208,294.413,435.256,294.245z M435.307,293.35c-0.006-0.256-0.072-0.451-0.198-0.584
		c-0.126-0.134-0.279-0.2-0.46-0.2c-0.193,0-0.354,0.07-0.479,0.211s-0.188,0.332-0.187,0.573H435.307z"/>
	<path fill="#FFFFFF" d="M436.842,291.963h0.816v0.457c0.292-0.354,0.64-0.532,1.043-0.532c0.214,0,0.4,0.044,0.558,0.132
		c0.158,0.089,0.287,0.222,0.388,0.4c0.147-0.179,0.306-0.312,0.477-0.4c0.17-0.088,0.352-0.132,0.545-0.132
		c0.246,0,0.454,0.05,0.624,0.149s0.298,0.246,0.382,0.439c0.061,0.144,0.091,0.374,0.091,0.693v2.141h-0.886v-1.913
		c0-0.332-0.03-0.547-0.091-0.644c-0.082-0.126-0.208-0.188-0.379-0.188c-0.124,0-0.24,0.037-0.35,0.113
		c-0.109,0.075-0.188,0.187-0.236,0.332c-0.048,0.146-0.072,0.377-0.072,0.692v1.607h-0.886v-1.834c0-0.326-0.016-0.536-0.048-0.631
		c-0.031-0.095-0.08-0.165-0.146-0.211c-0.065-0.047-0.155-0.069-0.27-0.069c-0.137,0-0.259,0.036-0.368,0.11
		c-0.109,0.073-0.188,0.18-0.235,0.318c-0.047,0.139-0.07,0.368-0.07,0.69v1.626h-0.886V291.963z"/>
	<path fill="#FFFFFF" d="M444.585,294.245l0.883,0.148c-0.113,0.323-0.292,0.569-0.537,0.739c-0.245,0.169-0.551,0.253-0.919,0.253
		c-0.582,0-1.013-0.189-1.292-0.57c-0.221-0.305-0.331-0.688-0.331-1.153c0-0.555,0.145-0.989,0.435-1.304
		c0.29-0.313,0.657-0.471,1.101-0.471c0.498,0,0.891,0.164,1.179,0.493s0.426,0.833,0.413,1.512h-2.22
		c0.007,0.263,0.078,0.467,0.215,0.612c0.137,0.146,0.307,0.22,0.511,0.22c0.139,0,0.255-0.038,0.35-0.114
		C444.466,294.535,444.537,294.413,444.585,294.245z M444.636,293.35c-0.006-0.256-0.072-0.451-0.198-0.584
		c-0.126-0.134-0.279-0.2-0.46-0.2c-0.193,0-0.354,0.07-0.479,0.211s-0.188,0.332-0.187,0.573H444.636z"/>
	<path fill="#FFFFFF" d="M449.282,295.311h-0.886v-1.708c0-0.361-0.019-0.596-0.057-0.702c-0.037-0.105-0.099-0.188-0.185-0.247
		c-0.085-0.059-0.188-0.088-0.307-0.088c-0.153,0-0.291,0.042-0.413,0.126s-0.205,0.195-0.251,0.334
		c-0.045,0.139-0.067,0.396-0.067,0.769v1.517h-0.886v-3.348h0.822v0.492c0.292-0.379,0.66-0.567,1.104-0.567
		c0.195,0,0.374,0.035,0.536,0.105c0.161,0.07,0.284,0.16,0.367,0.27s0.141,0.233,0.173,0.372c0.033,0.139,0.049,0.337,0.049,0.596
		V295.311z"/>
	<path fill="#FFFFFF" d="M451.715,291.963v0.706h-0.604v1.35c0,0.272,0.006,0.432,0.017,0.478c0.012,0.045,0.038,0.082,0.079,0.111
		s0.091,0.044,0.149,0.044c0.082,0,0.201-0.028,0.356-0.085l0.076,0.688c-0.206,0.088-0.439,0.132-0.7,0.132
		c-0.16,0-0.304-0.026-0.432-0.08s-0.223-0.123-0.282-0.208s-0.102-0.2-0.125-0.345c-0.019-0.104-0.028-0.312-0.028-0.624v-1.46
		h-0.406v-0.706h0.406v-0.665l0.89-0.517v1.182H451.715z"/>
	<path fill="#FFFFFF" d="M412.644,301.554l0.907-0.088c0.055,0.305,0.166,0.528,0.333,0.672c0.167,0.143,0.393,0.214,0.676,0.214
		c0.301,0,0.527-0.063,0.68-0.19s0.229-0.276,0.229-0.446c0-0.109-0.032-0.202-0.097-0.279c-0.063-0.076-0.176-0.143-0.335-0.2
		c-0.109-0.037-0.358-0.104-0.747-0.201c-0.5-0.124-0.852-0.276-1.053-0.457c-0.284-0.254-0.426-0.564-0.426-0.93
		c0-0.235,0.066-0.456,0.2-0.661c0.133-0.204,0.325-0.36,0.577-0.468c0.251-0.107,0.554-0.16,0.909-0.16
		c0.58,0,1.017,0.127,1.31,0.381s0.447,0.594,0.462,1.019l-0.934,0.041c-0.04-0.238-0.125-0.408-0.257-0.513
		c-0.131-0.104-0.328-0.156-0.591-0.156c-0.271,0-0.483,0.056-0.637,0.167c-0.099,0.072-0.148,0.167-0.148,0.287
		c0,0.109,0.047,0.203,0.139,0.28c0.118,0.1,0.403,0.202,0.857,0.31c0.454,0.106,0.79,0.218,1.008,0.332
		c0.217,0.115,0.388,0.271,0.51,0.47c0.123,0.198,0.185,0.444,0.185,0.736c0,0.265-0.073,0.513-0.221,0.744
		c-0.146,0.23-0.354,0.402-0.624,0.515c-0.269,0.112-0.604,0.169-1.005,0.169c-0.585,0-1.033-0.135-1.347-0.405
		C412.892,302.465,412.704,302.071,412.644,301.554z"/>
	<path fill="#FFFFFF" d="M416.76,299.71h0.942l0.801,2.377l0.782-2.377h0.917l-1.183,3.222l-0.211,0.583
		c-0.077,0.195-0.151,0.345-0.222,0.447c-0.071,0.104-0.151,0.187-0.243,0.251s-0.204,0.114-0.337,0.149
		c-0.134,0.036-0.284,0.054-0.452,0.054c-0.171,0-0.338-0.018-0.502-0.054l-0.078-0.693c0.139,0.027,0.264,0.041,0.375,0.041
		c0.206,0,0.358-0.061,0.457-0.181c0.099-0.121,0.174-0.275,0.227-0.462L416.76,299.71z"/>
	<path fill="#FFFFFF" d="M420.457,302.103l0.889-0.136c0.038,0.173,0.114,0.304,0.23,0.393c0.115,0.09,0.277,0.134,0.485,0.134
		c0.229,0,0.401-0.042,0.517-0.126c0.078-0.059,0.117-0.138,0.117-0.236c0-0.067-0.021-0.123-0.063-0.167
		c-0.044-0.042-0.143-0.081-0.296-0.116c-0.715-0.158-1.168-0.302-1.359-0.433c-0.265-0.181-0.396-0.432-0.396-0.753
		c0-0.29,0.114-0.534,0.344-0.731c0.229-0.197,0.584-0.296,1.065-0.296c0.458,0,0.798,0.074,1.021,0.224s0.376,0.37,0.461,0.662
		l-0.836,0.154c-0.035-0.13-0.104-0.23-0.203-0.3s-0.242-0.104-0.427-0.104c-0.233,0-0.4,0.032-0.501,0.098
		c-0.067,0.046-0.102,0.105-0.102,0.18c0,0.063,0.029,0.116,0.089,0.16c0.079,0.06,0.355,0.143,0.827,0.249
		c0.472,0.107,0.801,0.239,0.988,0.395c0.185,0.157,0.277,0.377,0.277,0.658c0,0.308-0.129,0.571-0.385,0.792
		c-0.257,0.22-0.636,0.33-1.138,0.33c-0.456,0-0.817-0.092-1.083-0.277C420.713,302.671,420.539,302.42,420.457,302.103z"/>
	<path fill="#FFFFFF" d="M425.895,299.71v0.706h-0.604v1.35c0,0.272,0.006,0.432,0.017,0.478c0.012,0.045,0.038,0.082,0.079,0.111
		s0.091,0.044,0.149,0.044c0.082,0,0.201-0.028,0.356-0.085l0.076,0.688c-0.206,0.088-0.439,0.132-0.7,0.132
		c-0.16,0-0.304-0.026-0.432-0.08s-0.223-0.123-0.282-0.208s-0.102-0.2-0.125-0.345c-0.019-0.104-0.028-0.312-0.028-0.624v-1.46
		h-0.406v-0.706h0.406v-0.665l0.89-0.517v1.182H425.895z"/>
	<path fill="#FFFFFF" d="M428.447,301.992l0.883,0.148c-0.113,0.323-0.292,0.569-0.537,0.739c-0.245,0.169-0.551,0.253-0.919,0.253
		c-0.582,0-1.013-0.189-1.292-0.57c-0.221-0.305-0.331-0.688-0.331-1.153c0-0.555,0.145-0.989,0.435-1.304
		c0.29-0.313,0.657-0.471,1.101-0.471c0.498,0,0.891,0.164,1.179,0.493s0.426,0.833,0.413,1.512h-2.22
		c0.007,0.263,0.078,0.467,0.215,0.612c0.137,0.146,0.307,0.22,0.511,0.22c0.139,0,0.255-0.038,0.35-0.114
		C428.328,302.282,428.399,302.16,428.447,301.992z M428.498,301.097c-0.006-0.256-0.072-0.451-0.198-0.584
		c-0.126-0.134-0.279-0.2-0.46-0.2c-0.193,0-0.354,0.07-0.479,0.211s-0.188,0.332-0.187,0.573H428.498z"/>
	<path fill="#FFFFFF" d="M430.033,299.71h0.816v0.457c0.292-0.354,0.64-0.532,1.043-0.532c0.214,0,0.4,0.044,0.558,0.132
		c0.158,0.089,0.287,0.222,0.388,0.4c0.147-0.179,0.306-0.312,0.477-0.4c0.17-0.088,0.352-0.132,0.545-0.132
		c0.246,0,0.454,0.05,0.624,0.149s0.298,0.246,0.382,0.439c0.061,0.144,0.091,0.374,0.091,0.693v2.141h-0.886v-1.913
		c0-0.332-0.03-0.547-0.091-0.644c-0.082-0.126-0.208-0.188-0.379-0.188c-0.124,0-0.24,0.037-0.35,0.113
		c-0.109,0.075-0.188,0.187-0.236,0.332c-0.048,0.146-0.072,0.377-0.072,0.692v1.607h-0.886v-1.834c0-0.326-0.016-0.536-0.048-0.631
		c-0.031-0.095-0.08-0.165-0.146-0.211c-0.065-0.047-0.155-0.069-0.27-0.069c-0.137,0-0.259,0.036-0.368,0.11
		c-0.109,0.073-0.188,0.18-0.235,0.318c-0.047,0.139-0.07,0.368-0.07,0.69v1.626h-0.886V299.71z"/>
</g>
<g>
	<polygon fill="#8157DB" points="406.934,238.79 389.136,254.25 406.934,269.751 457.731,269.751 457.731,238.79 	"/>
	<g>
		<g>
			<polyline fill="none" stroke="#6345BA" stroke-width="0.5504" stroke-linecap="round" stroke-linejoin="round" points="
				394.816,253.81 394.302,254.252 394.816,254.695 			"/>
			
				<polyline fill="none" stroke="#6345BA" stroke-width="0.5504" stroke-linecap="round" stroke-linejoin="round" stroke-dasharray="1.3632,1.3632" points="
				395.849,255.585 409.604,267.433 453.477,267.433 			"/>
			<polyline fill="none" stroke="#6345BA" stroke-width="0.5504" stroke-linecap="round" stroke-linejoin="round" points="
				454.158,267.433 454.837,267.433 454.837,266.754 			"/>
			
				<line fill="none" stroke="#6345BA" stroke-width="0.5504" stroke-linecap="round" stroke-linejoin="round" stroke-dasharray="1.314,1.314" x1="454.837" y1="265.439" x2="454.837" y2="242.444"/>
			<polyline fill="none" stroke="#6345BA" stroke-width="0.5504" stroke-linecap="round" stroke-linejoin="round" points="
				454.837,241.787 454.837,241.108 454.158,241.108 			"/>
			
				<polyline fill="none" stroke="#6345BA" stroke-width="0.5504" stroke-linecap="round" stroke-linejoin="round" stroke-dasharray="1.3627,1.3627" points="
				452.795,241.108 409.604,241.108 395.334,253.365 			"/>
		</g>
	</g>
	<g>
		<path fill="#FFFFFF" d="M414.319,255.691l1.772-0.172c0.106,0.595,0.323,1.031,0.649,1.311s0.767,0.418,1.32,0.418
			c0.586,0,1.028-0.124,1.326-0.372c0.297-0.248,0.446-0.538,0.446-0.871c0-0.213-0.063-0.395-0.188-0.544
			c-0.125-0.15-0.343-0.28-0.655-0.391c-0.213-0.074-0.699-0.205-1.458-0.395c-0.977-0.241-1.662-0.539-2.056-0.892
			c-0.554-0.497-0.831-1.102-0.831-1.815c0-0.46,0.131-0.89,0.391-1.29c0.261-0.399,0.637-0.704,1.127-0.913
			c0.49-0.21,1.082-0.314,1.775-0.314c1.132,0,1.984,0.248,2.557,0.745c0.572,0.496,0.873,1.159,0.901,1.987l-1.821,0.08
			c-0.078-0.464-0.245-0.797-0.502-1c-0.256-0.203-0.641-0.305-1.153-0.305c-0.529,0-0.944,0.108-1.243,0.326
			c-0.193,0.14-0.289,0.326-0.289,0.561c0,0.213,0.09,0.396,0.271,0.547c0.229,0.193,0.788,0.395,1.674,0.604
			s1.542,0.426,1.966,0.649c0.425,0.224,0.757,0.529,0.997,0.917s0.36,0.866,0.36,1.437c0,0.518-0.144,1.001-0.431,1.452
			c-0.287,0.452-0.693,0.787-1.219,1.007c-0.525,0.219-1.18,0.329-1.963,0.329c-1.141,0-2.017-0.264-2.628-0.791
			S414.438,256.701,414.319,255.691z"/>
		<path fill="#FFFFFF" d="M431.323,258.627h-1.981l-0.788-2.049h-3.606l-0.744,2.049h-1.933l3.514-9.021h1.927L431.323,258.627z
			 M427.969,255.058l-1.243-3.348l-1.218,3.348H427.969z"/>
		<path fill="#FFFFFF" d="M432.308,258.627v-9.021h1.772l3.692,6.024v-6.024h1.692v9.021h-1.828L434,252.744v5.883H432.308z"/>
		<path fill="#FFFFFF" d="M441.385,249.605h3.329c0.751,0,1.323,0.058,1.717,0.172c0.529,0.156,0.982,0.433,1.36,0.831
			c0.377,0.397,0.664,0.885,0.861,1.462c0.197,0.576,0.295,1.287,0.295,2.132c0,0.743-0.092,1.383-0.276,1.92
			c-0.226,0.656-0.548,1.188-0.967,1.594c-0.315,0.308-0.742,0.548-1.279,0.721c-0.402,0.127-0.939,0.19-1.612,0.19h-3.428V249.605z
			 M443.206,251.132v5.975h1.36c0.508,0,0.876-0.028,1.102-0.086c0.295-0.073,0.54-0.198,0.735-0.375
			c0.194-0.177,0.354-0.467,0.477-0.871s0.185-0.955,0.185-1.652s-0.062-1.232-0.185-1.606c-0.123-0.373-0.295-0.664-0.517-0.873
			c-0.222-0.21-0.503-0.352-0.844-0.425c-0.254-0.058-0.753-0.086-1.495-0.086H443.206z"/>
	</g>
</g>
<g>
	<g>
		<polygon fill="#DED9D3" points="165.76,187.266 149.727,187.266 162.556,196.836 		"/>
		<polygon fill="#DED9D3" points="176.886,187.266 169.652,187.266 165.673,199.16 176.886,207.526 		"/>
		<polygon fill="#DED9D3" points="176.886,210.577 145.635,187.266 144.3,187.266 176.886,211.242 		"/>
		<path fill="#DED9D3" d="M176.886,231.955c-0.24,0.053-0.477,0.075-0.701,0.078c-0.531-0.016-0.964-0.096-1.346-0.386
			c-0.614-0.502-0.767-0.537-4.399-3.654c-0.623-0.534-1.197-0.736-1.741-0.736c-1.457-0.037-2.785,1.597-3.506,2.724l5.713,4.733
			l5.98,9.426V231.955z"/>
		<path fill="#DED9D3" d="M176.886,218.422l-14.414-10.541l-5.078,15.641l6.605,5.47c0.726-1.281,2.403-3.76,4.7-3.815
			c0.745-0.002,1.544,0.29,2.342,0.979c3.643,3.124,3.703,3.087,4.372,3.629c0.023,0.037,0.384,0.179,0.772,0.166
			c0.223,0.003,0.467-0.032,0.701-0.101V218.422z"/>
		<polygon fill="#DED9D3" points="130.949,283.703 139.343,269.933 122.881,261.19 123.387,294.104 		"/>
		<polygon fill="#DED9D3" points="141.014,192.189 137.879,203.948 156.083,218.626 160.126,206.167 		"/>
		<path fill="#DED9D3" d="M105.556,233.899c4.893,0.98,10.168,2.058,14.811,3.013l-0.074-4.809l-14.071-2.158L105.556,233.899z"/>
		<polygon fill="#DED9D3" points="127.236,230.937 136.14,232.076 138.758,229.33 137.862,226.476 123.278,187.266 121.745,187.266 
			122.406,230.315 125.91,230.765 127.79,222.383 128.995,223.094 		"/>
		<polygon fill="#DED9D3" points="139.844,191.333 134.282,187.266 127.958,187.266 132.377,201.348 136.707,203.103 		"/>
		<path fill="#DED9D3" d="M131.823,285.229L130.9,286.5l8.508,6.299c0.238-0.644,0.5-1.326,0.786-2.03
			c1.356-3.333,3.156-7.115,5.217-8.949c1.256-1.106,3.693-3.381,6.362-5.897l-2.014-5.674l1.112-1.039l2.011,5.664
			c0.57-0.537,1.143-1.082,1.713-1.622l-5.853-15.78l-6.191,10.16l4.155,6.737l-0.908,1.473l-4.15-6.73l-2.14,3.513l2.827,4.893
			l-0.936,1.419l-2.793-4.831L131.823,285.229z"/>
		<path fill="#DED9D3" d="M160.839,297.284l1.683-2.665l-7.266-19.585c-0.576,0.547-1.157,1.097-1.733,1.642L160.839,297.284z"/>
		<path fill="#DED9D3" d="M163.293,267.363c-0.929,0.891-3.379,3.237-6.191,5.916l6.991,18.849l7.392-11.745L163.293,267.363z"/>
		<path fill="#DED9D3" d="M133.695,239.684l0.045,0.016c0-0.003,0.003,0.002,0.051,0.015c0.049,0.01,0.126,0.03,0.23,0.048
			c0.205,0.038,0.511,0.081,0.881,0.078c0.926,0.005,2.229-0.262,3.382-1.306c0.48-0.434,1.412-1.312,2.596-2.438l-1.537-4.899
			l-2.873,3.011l-14.033-1.801l0.076,4.95c6.398,1.323,11.137,2.319,11.14,2.319L133.695,239.684z"/>
		<path fill="#DED9D3" d="M173.139,277.755l-2.077-4.211l5.824-11.295v-15.207l-6.737-10.619l-5.862-4.854l-13.995,23.348
			l6.149,16.579c2.537-2.416,4.779-4.564,5.879-5.615l-7.001-11.191l0.901-1.482l16.181,25.721L173.139,277.755z"/>
		<path fill="#DED9D3" d="M139.436,296.954l6.398,4.6l0.187-1.573l-6.09-4.509c-0.08,0.231-0.154,0.454-0.223,0.66
			C139.603,296.442,139.514,296.715,139.436,296.954z"/>
		<path fill="#DED9D3" d="M155.232,306.158l4.658-7.371l-7.478-21.063c-2.668,2.52-5.11,4.796-6.389,5.921
			c-2.019,1.737-4.112,6.478-5.441,10.021l5.839,4.324l2.807-7.64l1.104,1.063l-2.736,7.446l5.98,4.429l-0.533,1.891l-5.82-4.31
			l-0.185,1.551l5.199,3.737H155.232z"/>
		<polygon fill="#DED9D3" points="149.07,306.158 144.649,302.979 143.781,306.158 		"/>
		<path fill="#DED9D3" d="M138.261,296.107c0.128-0.396,0.296-0.905,0.5-1.501l-8.943-6.619l-0.979,1.347L138.261,296.107z"/>
		<path fill="#DED9D3" d="M102.029,268.826l7.305,2.431l0.388-5.406l-5.666-2.746l-0.016-0.008h-0.003l0.365-1.994l0.003,0.002
			v-0.002l0.026,0.013l6.692,3.182l-0.005,0.063l5.701,2.764l3.983-0.149l0.021-0.174l-0.022-1.407l-3.77-0.711l-5.508-2.625
			l0.362-1.997l5.405,2.577l3.479,0.655l-0.24-15.588l-16.3-2.201c-0.582,5.577-1.28,12.633-1.833,19.335
			C102.292,266.125,102.167,267.462,102.029,268.826z"/>
		<path fill="#DED9D3" d="M120.501,245.612l-0.069-4.491c-1.233-0.255-2.513-0.517-3.823-0.787
			c-3.781-0.773-7.794-1.588-11.569-2.345c-0.157,1.43-0.36,3.291-0.589,5.454L120.501,245.612z"/>
		<path fill="#DED9D3" d="M139.737,224.804l3.397,9.133c1.419-1.364,2.98-2.869,4.491-4.332c3.21-3.102,6.196-6.004,7.14-6.922
			l0.719-2.216l-18.115-14.605l-1.643,6.16L139.737,224.804z"/>
		<polygon fill="#DED9D3" points="88.17,255.295 82.105,253.656 81.191,267.22 85.542,268.604 88.155,255.472 		"/>
		<polygon fill="#DED9D3" points="79.517,268.1 74.874,266.783 73.412,271.668 80.768,277.19 80.768,277.192 80.408,278.448 
			73.038,272.916 71.685,277.432 78.911,282.737 78.911,282.737 78.56,284.001 71.312,278.678 68.845,286.924 82.701,287.723 
			86.732,270.395 		"/>
		<path fill="#DED9D3" d="M149.607,253.073l13.483-22.495l-6.294-5.215l-0.094,0.29l-0.309,0.3
			c-0.008,0.008-7.292,7.094-12.398,11.99L149.607,253.073z"/>
		<polygon fill="#DED9D3" points="109.136,294.115 107.939,300.492 109.218,294.155 		"/>
		<path fill="#DED9D3" d="M176.123,284.036c-3.242,4.965-6.206,10.334-9.206,15.704l0.011,0.03l9.589-15.432
			c-0.057-0.028-0.113-0.063-0.171-0.089C176.264,284.215,176.189,284.14,176.123,284.036z"/>
		<polygon fill="#DED9D3" points="78.83,238.052 69.814,237.379 75.764,240.906 72.439,251.8 77.651,253.459 80.125,238.415 		"/>
		<polygon fill="#DED9D3" points="118.659,299.899 117.396,306.158 121.432,306.158 121.343,300.435 110.794,294.973 		"/>
		<path fill="#DED9D3" d="M96.242,306.158h3.843l0.272-1.352l2.552,1.352h2.626l2.379-12.679l-6.453-3.341l0.389-1.979h0.002l0,0
			l0.211,0.108l7.449,3.843l-0.003,0.015l11.8,6.11l-0.119-7.764l-17.996-8.122l0.344-2.005l17.619,7.953l-0.168-10.903
			l-8.531-2.305l0.211-2.053l8.287,2.239l-0.095-6.224l-4.213,0.159l-5.678-2.754l-0.522,7.293l-8.633-2.872
			C100.375,284.097,97.765,299.65,96.242,306.158z"/>
		<path fill="#DED9D3" d="M55.083,232.482l-1.317,4.445l0.023,0.008l0.058,0.05c0.743,0.663,1.326,1.425,1.785,2.239l1.237-6.012
			L55.083,232.482z"/>
		<polygon fill="#DED9D3" points="126.644,306.158 126.756,305.18 126.025,304.749 123.547,304.622 123.571,306.158 		"/>
		<path fill="#DED9D3" d="M122.847,258.981l17.504,9.297l7.708-12.646l-5.905-15.927c-1.181,1.128-2.118,2.01-2.623,2.464
			c-1.698,1.523-3.426,1.828-4.628,1.831c-0.839,0-1.432-0.151-1.612-0.204c-0.156-0.033-0.849-0.18-1.956-0.411l-1.343,5.595
			l-7.314-0.985L122.847,258.981z"/>
		<polygon fill="#DED9D3" points="142.377,306.158 143.476,302.136 127.753,290.829 123.428,296.775 123.517,302.54 
			126.269,302.679 129.895,304.816 129.894,304.816 129.594,306.158 		"/>
		<polygon fill="#DED9D3" points="133.149,203.806 134.97,209.611 136.19,205.04 		"/>
		<path fill="#DED9D3" d="M122.579,241.564l0.067,4.338l6.498,0.877l0.879-3.669C128.132,242.717,125.545,242.178,122.579,241.564z"
			/>
		<polygon fill="#DED9D3" points="78.411,306.158 82.382,289.092 55.474,287.536 54.887,290.131 66.54,296.72 66.119,298.687 
			54.443,292.083 53.817,294.852 74.911,306.158 		"/>
		<polygon fill="#DED9D3" points="166.779,306.158 166.485,305.349 165.976,306.158 		"/>
		<polygon fill="#DED9D3" points="49.299,282.984 45.543,300.313 50.035,303.503 53.889,286.487 		"/>
		<polygon fill="#DED9D3" points="49.433,306.158 49.591,305.46 45.115,302.282 44.276,306.158 		"/>
		<path fill="#DED9D3" d="M35.439,306.158h2.992l0.291-1.49c-1.026-0.403-2.132-0.943-3.283-1.581V306.158z"/>
		<polygon fill="#DED9D3" points="44.559,279.366 41.087,297.151 44.756,299.756 48.521,282.39 		"/>
		<polygon fill="#DED9D3" points="35.439,281.681 37.241,275.278 38.411,276.164 38.731,275.133 35.439,272.749 		"/>
		<path fill="#DED9D3" d="M35.439,300.886c1.305,0.741,2.547,1.364,3.67,1.795l0.799-4.093l-4.469-3.172V300.886z"/>
		<polygon fill="#DED9D3" points="35.439,188.98 36.142,187.266 35.439,187.266 		"/>
		<polygon fill="#DED9D3" points="50.621,261.967 48.714,260.88 44.835,278.042 48.806,281.073 49.438,278.153 47.507,276.665 		"/>
		<path fill="#DED9D3" d="M35.439,202.529l0.421-1.154c-0.142-0.098-0.28-0.197-0.421-0.294V202.529z"/>
		<polygon fill="#DED9D3" points="59.41,234.255 64.073,236.663 64.159,236.204 		"/>
		<polygon fill="#DED9D3" points="39.38,276.895 35.439,289.468 35.439,293.145 40.299,296.591 43.776,278.781 39.514,275.697 
			39.187,276.751 		"/>
		<polygon fill="#DED9D3" points="35.439,261.248 37.473,254.468 35.439,253.308 		"/>
		<path fill="#DED9D3" d="M35.439,271.231l8.616,6.23l3.852-17.041l-9.622-5.489l-2.846,9.489V271.231z M45.938,263.487
			l-1.711,6.935l-3.421-2.31l2.138-7.169L45.938,263.487z"/>
		<polygon fill="#DED9D3" points="35.439,231.227 36.078,229.229 35.439,229.193 		"/>
		<polygon fill="#DED9D3" points="35.439,251.84 37.848,253.215 44.632,230.591 37.016,229.308 35.439,234.244 		"/>
		<polygon fill="#DED9D3" points="66.64,267.964 67.616,264.521 61.425,259.89 60.284,265.019 		"/>
		<polygon fill="#DED9D3" points="65.57,241.242 73.399,245.534 74.576,241.679 67.609,237.551 67.683,237.22 66.41,237.127 
			65.405,236.713 65.298,237.293 66.329,237.825 		"/>
		<polygon fill="#DED9D3" points="43.369,306.158 44.33,301.726 40.697,299.146 39.328,306.158 		"/>
		<path fill="#DED9D3" d="M52.468,236.507l1.294-4.375l-8.226-1.388l-2.472,8.243l3.344,2.605l-0.371,1.248l-3.348-2.604
			l-4.03,13.439l9.542,5.441l1.469-6.503l0.803,0.475l-1.466,6.49l1.89,1.077l1.367-6.456l-6.6-4.388l-4.977-2.305l0.235-1.334
			l4.53,2.099c0.54-5.142,1.268-8.229,2.046-10.097c0.808-1.965,1.738-2.58,2.441-2.564c0.491,0,0.844,0.26,1,0.398L52.468,236.507z
			"/>
		<path fill="#DED9D3" d="M102.129,220.638c0.962-8.672,2.981-16.738,4.132-25.304c0.362-2.682,0.678-5.376,0.994-8.068h-8.937
			c-0.925,4.478-2.544,8.252-2.544,8.252c-7.107,4.098-10.366-1.261-11.412-8.252h-13.25l-2.507,32.656l-0.258-0.053
			c2.877,2.06,4.626,3.318,4.628,3.318c0,0,0.537,0.383,1.536,1.006c0.999,0.623,2.445,1.476,4.218,2.386
			c3.542,1.82,8.389,3.865,13.546,4.769c2.123,0.373,5.061,0.93,8.399,1.586C101.163,228.833,101.673,224.74,102.129,220.638z"/>
		<path fill="#DED9D3" d="M68.511,204.298l-10.938-0.633l0.006-0.3l-1.129,8.009c4.229,3.011,8.029,5.727,10.919,7.794
			L68.511,204.298z"/>
		<polygon fill="#DED9D3" points="89.409,241.018 80.971,238.652 78.141,255.87 75.262,265.484 79.673,266.735 80.348,266.95 
			81.354,252.045 88.289,253.921 88.711,249.049 82.351,246.825 82.533,245.471 88.831,247.672 		"/>
		<polygon fill="#DED9D3" points="119.605,187.266 113.395,187.266 106.564,227.908 120.261,230.011 		"/>
		<polygon fill="#DED9D3" points="176.886,214.289 140.162,187.266 138.443,187.266 176.886,215.378 		"/>
		<path fill="#DED9D3" d="M112.063,187.266h-2.902c-0.543,4.538-1.027,9.097-1.702,13.601c-1.219,8.143-3.07,15.843-3.969,24.14
			c-0.3,2.771-0.624,5.532-0.949,8.293c0.567,0.113,1.145,0.228,1.728,0.346L112.063,187.266z"/>
		<path fill="#DED9D3" d="M35.439,227.807l1.075,0.059l5.337-16.716v0.002l0.76,0.636l-5.172,16.199l16.651,2.807l2.12-15.044
			c-1.935-1.377-3.964-2.822-6.043-4.295c-4.308-3.056-8.826-6.245-13.12-9.249l-1.608,4.416V227.807z"/>
		<polygon fill="#DED9D3" points="49.583,281.668 54.889,285.718 55.439,282.778 50.217,278.753 		"/>
		<polygon fill="#DED9D3" points="68.433,264.955 67.464,268.377 72.612,271.158 73.996,266.534 		"/>
		<polygon fill="#DED9D3" points="77.43,254.803 72.046,253.089 68.82,263.656 74.385,265.235 77.335,255.381 		"/>
		<path fill="#DED9D3" d="M50.621,237.321l-0.073-0.076c0,0.003,0,0-0.023-0.022c-0.025-0.021-0.067-0.056-0.121-0.088
			c-0.11-0.068-0.271-0.139-0.463-0.137c-0.414,0.013-1.018,0.268-1.733,1.952c-0.683,1.631-1.407,4.606-1.934,9.769l2.082,1.384
			l-0.279-0.254l2.568-11.098l4.089,0.973c-0.34-0.517-0.748-1.011-1.246-1.473L50.621,237.321z"/>
		<polygon fill="#DED9D3" points="67.985,263.266 71.176,252.812 63.537,250.38 61.716,258.578 		"/>
		<polygon fill="#DED9D3" points="71.57,251.525 73.015,246.789 65.279,242.548 63.832,249.062 		"/>
		<polygon fill="#DED9D3" points="61.383,286.492 66.277,269.237 59.994,266.324 59.151,270.117 56.142,286.189 		"/>
		<polygon fill="#DED9D3" points="68.083,286.878 67.941,286.765 70.514,278.171 65.506,275.273 62.308,286.545 		"/>
		<polygon fill="#DED9D3" points="67.103,269.646 65.865,274.008 70.889,276.915 72.235,272.417 		"/>
		<path fill="#DED9D3" d="M47.129,204.763c2.774,1.96,5.516,3.908,8.123,5.76l3.282-23.258H48.238l-2.345,9.504l-1.192-0.772
			l2.154-8.731h-1.604l-3.649,13.603c1.443,1.014,2.896,2.038,4.345,3.061l3.375-10.791l1.145,0.942L47.129,204.763z"/>
		<path fill="#DED9D3" d="M99.404,244.78c0.234-2.59,0.507-5.172,0.798-7.749c-3.263-0.639-6.129-1.183-8.202-1.546
			c-10.784-1.898-19.985-8.445-20.059-8.488c-0.005-0.005-1.563-1.124-4.158-2.982l-2.129,11.372l0.88,0.36l12.394,0.926
			l18.986,5.323l-0.145,1.366l-7.517-2.107l-0.583,6.712l0.114,0.038l7.686,1.616l-0.11,1.374l-7.709-1.621l-0.1-0.032l-0.417,4.806
			l7.21,1.949l-0.14,1.369l-7.188-1.941l-0.022,0.255l-2.606,13.095l8.544,2.718H94.93l-0.165,1.359l-7.182-2.284l-3.986,17.132
			l9.711,1.687c0.919-5.795,2.065-11.466,3.062-17.271C97.917,263.208,98.572,254.004,99.404,244.78z"/>
		<path fill="#DED9D3" d="M91.233,306.158c0.365-3.111,0.725-6.226,1.07-9.345c0.224-2.015,0.494-4,0.792-5.969l-9.761-1.697
			l-0.05-0.003l-3.958,17.014H91.233z"/>
		<polygon fill="#DED9D3" points="70.823,306.158 53.375,296.803 51.63,304.504 54.479,306.158 		"/>
		<path fill="#DED9D3" d="M94.869,306.158c0.031-0.131,0.062-0.265,0.093-0.396c1.681-6.963,5.003-27.11,6.163-41.201
			c0.857-10.341,2.05-21.481,2.639-26.824c-0.576-0.116-1.145-0.229-1.705-0.338c-0.57,4.882-1.116,9.771-1.522,14.703
			c-0.678,8.226-1.381,16.486-2.806,24.479c-1.542,8.657-3.216,17.059-4.216,25.942c-0.137,1.213-0.277,2.424-0.416,3.634H94.869z"
			/>
		<polygon fill="#DED9D3" points="176.886,290.63 176.886,290.431 176.156,289.803 168.057,302.84 169.26,306.158 171.305,306.158 
			169.886,301.979 		"/>
		<polygon fill="#DED9D3" points="69.819,187.266 59.851,187.266 57.828,201.598 68.671,202.225 		"/>
		<path fill="#DED9D3" d="M65.424,222.325c-2.268-1.622-5.005-3.578-8.018-5.725l-2.051,14.561l9.053,3.714l2.192-11.708
			C66.223,222.897,65.833,222.62,65.424,222.325z"/>
		<path fill="#DED9D3" d="M35.439,196.552c1.625,1.132,3.293,2.301,4.989,3.49l1.666-6.213l-4.415-2.895l0.479-1.929l4.448,2.914
			l1.249-4.652h-6.172l-2.243,5.475V196.552z"/>
		<polygon fill="#DAD6B8" points="176.886,262.249 171.062,273.544 173.139,277.755 176.886,271.802 		"/>
		<polygon fill="#CAC0B6" points="176.886,290.63 169.886,301.979 171.305,306.158 176.435,306.158 176.886,305.629 		"/>
		<polygon fill="#CAC0B6" points="59.871,266.269 59.151,270.117 59.994,266.324 		"/>
		<path fill="#CAC0B6" d="M56.869,233.213l-1.237,6.012c1.085,1.937,1.451,4.181,1.441,6.155c-0.003,3.014-0.763,5.465-0.9,5.894
			l-2.383,10.988l5.087,2.151l5.195-27.75l-4.664-2.408L56.869,233.213z"/>
		<polygon fill="#CAC0B6" points="50.621,261.967 47.507,276.665 49.438,278.153 52.692,263.149 		"/>
		<polygon fill="#CAC0B6" points="61.716,258.578 63.537,250.38 62.886,250.174 61.361,258.313 		"/>
		<polygon fill="#CAC0B6" points="50.217,278.753 55.439,282.778 58.629,265.739 53.506,263.573 		"/>
		<polygon fill="#CAC0B6" points="60.284,265.019 61.425,259.89 61.109,259.652 60.119,264.942 		"/>
		<polygon fill="#CAC0B6" points="65.57,241.242 66.329,237.825 65.298,237.293 64.652,240.737 		"/>
		<polygon fill="#CAC0B6" points="52.975,261.841 54.343,255.532 54.332,255.575 52.265,254.2 50.898,260.656 		"/>
		<path fill="#CAC0B6" d="M48.076,249.849l0.279,0.254l6.263,4.161l0.768-3.548l0.018-0.048c-0.003-0.005,0.198-0.578,0.404-1.551
			c0.207-0.971,0.412-2.308,0.411-3.737c-0.009-1.884-0.333-3.898-1.485-5.656l-4.089-0.973L48.076,249.849z"/>
		<polygon fill="#CAC0B6" points="63.832,249.062 65.279,242.548 64.403,242.066 63.134,248.84 		"/>
		<polygon fill="#CAC0B6" points="44.227,270.422 45.938,263.487 42.944,260.943 40.806,268.112 		"/>
		<polygon fill="#CAC0B6" points="35.439,289.468 39.38,276.895 39.187,276.751 35.439,288.827 		"/>
		<polygon fill="#CAC0B6" points="35.439,285.741 38.411,276.164 37.241,275.278 35.439,281.681 		"/>
		<polygon fill="#B2CB99" points="117.396,306.158 118.659,299.899 110.794,294.973 109.218,294.155 107.939,300.492 
			106.875,306.158 		"/>
		<path fill="#B2CB99" d="M95.774,195.518c0,0,1.619-3.774,2.544-8.252H84.362C85.408,194.257,88.667,199.615,95.774,195.518z"/>
		<path fill="#88B9B7" d="M103.491,225.006c0.899-8.297,2.75-15.997,3.969-24.14c0.675-4.504,1.159-9.063,1.702-13.601h-1.907
			c-0.316,2.692-0.631,5.386-0.994,8.068c-1.151,8.565-3.17,16.632-4.132,25.304c-0.456,4.103-0.966,8.195-1.453,12.296
			c0.61,0.118,1.232,0.242,1.867,0.365C102.868,230.538,103.191,227.776,103.491,225.006z"/>
		<polygon fill="#7E93B0" points="162.921,306.158 165.361,302.277 163.653,297.673 158.292,306.158 		"/>
		<path fill="#88B9B7" d="M176.123,284.036c0.067,0.104,0.142,0.179,0.223,0.214c0.058,0.028,0.114,0.061,0.173,0.089l0.368-0.593
			v-7.091l-11.66,18.526l1.691,4.559C169.917,294.37,172.881,289.001,176.123,284.036z"/>
		<path fill="#88B9B7" d="M93.1,306.158c0.139-1.21,0.279-2.421,0.416-3.634c1-8.884,2.674-17.285,4.216-25.942
			c1.425-7.993,2.127-16.254,2.806-24.479c0.406-4.933,0.952-9.821,1.522-14.703c-0.631-0.126-1.252-0.247-1.858-0.368
			c-0.291,2.577-0.564,5.159-0.798,7.749c-0.832,9.224-1.487,18.428-3.034,27.435c-0.997,5.805-2.143,11.476-3.062,17.271
			l0.087,0.015l-0.09,1.38l-0.21-0.035c-0.298,1.969-0.568,3.954-0.792,5.969c-0.345,3.119-0.705,6.233-1.07,9.345H93.1z"/>
		<polygon fill="#FFFFFF" points="176.886,211.242 144.3,187.266 140.162,187.266 176.886,214.289 		"/>
		<polygon fill="#FFFFFF" points="45.894,196.77 48.238,187.266 46.856,187.266 44.702,195.997 		"/>
		<polygon fill="#FFFFFF" points="35.439,192.74 37.682,187.266 36.142,187.266 35.439,188.98 		"/>
		<path fill="#FFFFFF" d="M176.156,289.803l0.729,0.628v-6.685l-0.368,0.593l-9.591,15.432l-0.011-0.03l-1.691-4.559l11.66-18.526
			v-4.854l-3.747,5.953l-0.739,1.173l-16.181-25.721l-0.901,1.482l7.001,11.191c-1.1,1.051-3.342,3.199-5.879,5.615l-6.149-16.579
			l13.995-23.348l5.862,4.854l6.737,10.619v-2.902l-5.98-9.426l-5.713-4.733c0.721-1.127,2.049-2.761,3.506-2.724
			c0.544,0,1.119,0.202,1.741,0.736c3.632,3.117,3.785,3.152,4.399,3.654c0.382,0.29,0.815,0.37,1.346,0.386
			c0.224-0.003,0.46-0.025,0.701-0.078v-2.105c-0.234,0.068-0.478,0.104-0.701,0.101c-0.388,0.013-0.749-0.129-0.772-0.166
			c-0.669-0.542-0.729-0.505-4.372-3.629c-0.798-0.688-1.597-0.98-2.342-0.979c-2.297,0.056-3.974,2.534-4.7,3.815l-6.605-5.47
			l5.078-15.641l14.414,10.541v-3.044l-38.443-28.112h-4.161l5.562,4.067l-3.137,11.77l-4.33-1.755l-4.42-14.082h-4.679
			l14.584,39.21l0.896,2.854l-2.618,2.746l-8.904-1.14l1.759-7.843l-1.206-0.711l-1.88,8.382l-3.504-0.449l-0.661-43.05h-2.14
			l0.656,42.745l-13.697-2.103l6.83-40.643h-1.329l-7.795,46.379c-0.583-0.118-1.161-0.232-1.728-0.346
			c-0.635-0.123-1.256-0.247-1.867-0.365c-3.338-0.656-6.277-1.213-8.399-1.586c-5.157-0.903-10.003-2.948-13.546-4.769
			c-1.773-0.91-3.22-1.763-4.218-2.386c-1-0.623-1.536-1.006-1.536-1.006c-0.002,0-1.751-1.259-4.628-3.318l0.258,0.053
			l2.507-32.656h-1.293l-1.148,14.959l-10.843-0.627l2.023-14.332h-1.317l-3.282,23.258c-2.607-1.853-5.349-3.8-8.123-5.76
			l3.339-10.683l-1.145-0.942l-3.375,10.791c-1.449-1.023-2.902-2.047-4.345-3.061l3.649-13.603h-1.398l-1.249,4.652l-4.448-2.914
			l-0.479,1.929l4.415,2.895l-1.666,6.213c-1.695-1.189-3.364-2.358-4.989-3.49v4.53c0.141,0.097,0.28,0.196,0.421,0.294
			l-0.421,1.154v4.091l1.608-4.416c4.294,3.004,8.812,6.193,13.12,9.249c2.079,1.473,4.109,2.918,6.043,4.295l-2.12,15.044
			l-16.651-2.807l5.172-16.199l-0.76-0.636v-0.002l-5.337,16.716l-1.075-0.059v1.387l0.639,0.036l-0.639,1.997v3.018l1.577-4.937
			l7.616,1.283l-6.784,22.624l-2.409-1.375v1.468l2.034,1.16l-2.034,6.78v3.173l2.846-9.489l9.622,5.489l-3.852,17.041l-8.616-6.23
			v1.518l3.292,2.384l-0.32,1.031l-2.972,9.577v3.086l3.748-12.076l0.327-1.054l4.263,3.084l-3.477,17.81l-4.86-3.446v2.271
			l4.469,3.172l-0.799,4.093c-1.123-0.431-2.365-1.054-3.67-1.795v2.201c1.151,0.638,2.257,1.178,3.283,1.581l-0.291,1.49h0.897
			l1.369-7.013l3.633,2.58l-0.961,4.433h0.907l0.839-3.876l4.476,3.178l-0.158,0.698h5.046l-2.85-1.654l1.746-7.701l17.448,9.355
			h4.087l-21.094-11.307l0.626-2.769l11.676,6.604l0.421-1.967l-11.653-6.589l0.587-2.595l26.909,1.556l-3.971,17.066h0.915
			l3.958-17.014l0.05,0.003l9.761,1.697l0.21,0.035l0.09-1.38l-0.087-0.015l-9.711-1.687l3.986-17.132l7.182,2.284l0.165-1.359
			h0.001l-8.544-2.718l2.606-13.095l0.022-0.255l7.188,1.941l0.14-1.369l-7.21-1.949l0.417-4.806l0.1,0.032l7.709,1.621l0.11-1.374
			l-7.686-1.616l-0.114-0.038l0.583-6.712l7.517,2.107l0.145-1.366l-18.986-5.323l-12.394-0.926l-0.88-0.36l2.129-11.372
			c2.594,1.858,4.152,2.978,4.158,2.982c0.074,0.043,9.275,6.59,20.059,8.488c2.073,0.363,4.939,0.907,8.202,1.546
			c0.606,0.121,1.228,0.242,1.858,0.368c0.56,0.108,1.129,0.222,1.705,0.338c-0.589,5.343-1.782,16.483-2.639,26.824
			c-1.16,14.091-4.482,34.238-6.163,41.201c-0.031,0.131-0.063,0.265-0.093,0.396h1.373c1.522-6.508,4.132-22.062,5.572-35.279
			l8.633,2.872l0.522-7.293l5.678,2.754l4.213-0.159l0.095,6.224l-8.287-2.239l-0.211,2.053l8.531,2.305l0.168,10.903l-17.619-7.953
			l-0.344,2.005l17.996,8.122l0.119,7.764l-11.8-6.11l0.003-0.015l-7.449-3.843l-0.211-0.108l0,0h-0.002l-0.389,1.979l6.453,3.341
			l-2.379,12.679h1.34l1.064-5.666l1.197-6.38l0.082,0.043l1.577,0.817l10.549,5.462l0.088,5.724h2.14l-0.024-1.536l2.478,0.127
			l0.731,0.431l-0.112,0.979h1.305l0.03-0.257l0.437,0.257h1.179l0.3-1.342h0.001l-3.626-2.138l-2.752-0.139l-0.089-5.765
			l4.325-5.946l15.723,11.307l-1.099,4.022h1.403l0.868-3.18l4.421,3.18h3.166l-5.199-3.737l0.185-1.551l5.82,4.31l0.533-1.891
			l-5.98-4.429l2.736-7.446l-1.104-1.063l-2.807,7.64l-5.839-4.324c1.33-3.543,3.423-8.283,5.441-10.021
			c1.279-1.125,3.72-3.401,6.389-5.921l7.478,21.063l-4.658,7.371h3.061l5.361-8.485l1.708,4.604l-2.44,3.881h3.055l0.509-0.81
			l0.293,0.81h2.481l-1.204-3.318L176.156,289.803z M56.45,211.374l1.129-8.009l-0.006,0.3l10.938,0.633l-1.142,14.87
			C64.479,217.101,60.679,214.385,56.45,211.374z M49.008,259.579l1.466-6.49l-0.803-0.475l-1.469,6.503l-9.542-5.441l4.03-13.439
			l3.348,2.604l0.371-1.248l-3.344-2.605l2.472-8.243l8.226,1.388l-1.294,4.375l-1.529-0.497c-0.155-0.139-0.508-0.398-1-0.398
			c-0.703-0.016-1.633,0.6-2.441,2.564c-0.778,1.868-1.506,4.955-2.046,10.097l-4.53-2.099l-0.235,1.334l4.977,2.305l6.6,4.388
			l2.067,1.375l0.011-0.043l-1.368,6.309l-2.077-1.185L49.008,259.579z M49.94,236.998c0.193-0.002,0.353,0.068,0.463,0.137
			c0.054,0.032,0.096,0.067,0.121,0.088c0.023,0.022,0.023,0.025,0.023,0.022l0.073,0.076l2.867,0.93
			c0.498,0.462,0.905,0.956,1.246,1.473c1.152,1.758,1.476,3.772,1.485,5.656c0.001,1.43-0.204,2.767-0.411,3.737
			c-0.207,0.973-0.407,1.546-0.404,1.551l-0.018,0.048l-0.768,3.548l-6.263-4.161l-2.082-1.384c0.527-5.162,1.251-8.138,1.934-9.769
			C48.922,237.266,49.526,237.011,49.94,236.998z M44.835,278.042l3.879-17.162l1.906,1.087l2.072,1.183l-3.254,15.004l-0.633,2.92
			L44.835,278.042z M63.537,250.38l7.639,2.432l-3.191,10.454l-6.269-4.688l-0.354-0.265l1.524-8.14L63.537,250.38z M63.832,249.062
			l-0.697-0.222l1.269-6.773l0.875,0.481l7.736,4.241l-1.444,4.736L63.832,249.062z M65.506,275.273l5.007,2.897l-2.572,8.594
			l0.142,0.113l-5.775-0.333L65.506,275.273z M61.383,286.492l-5.241-0.303l3.01-16.072l0.72-3.849l0.123,0.056l6.283,2.913
			L61.383,286.492z M65.865,274.008l1.238-4.362l5.132,2.771l-1.347,4.498L65.865,274.008z M67.464,268.377l0.969-3.422l5.563,1.579
			l-1.384,4.624L67.464,268.377z M68.82,263.656l3.226-10.567l5.384,1.714l-0.095,0.578l-2.95,9.854L68.82,263.656z M61.425,259.89
			l6.191,4.632l-0.977,3.442l-6.356-2.945l-0.165-0.076l0.99-5.29L61.425,259.89z M58.629,265.739l-3.19,17.039l-0.55,2.939
			l-5.305-4.05l0.633-2.915l3.289-15.18L58.629,265.739z M41.087,297.151l3.472-17.785l3.963,3.023l-3.766,17.366L41.087,297.151z
			 M50.035,303.503l-4.492-3.189l3.756-17.329l4.59,3.503L50.035,303.503z M86.732,270.395l-4.031,17.328l-13.856-0.799l2.467-8.246
			l7.248,5.323l0.351-1.264l0,0l-7.226-5.306l1.353-4.516l7.371,5.532l0.359-1.256v-0.002l-7.356-5.522l1.462-4.885l4.644,1.316
			L86.732,270.395z M88.17,255.295l-0.016,0.177l-2.612,13.132l-4.352-1.384l0.914-13.563L88.17,255.295z M89.409,241.018
			l-0.578,6.654l-6.298-2.201l-0.182,1.354l6.361,2.224l-0.423,4.872l-6.935-1.876l-1.006,14.905l-0.675-0.215l-4.411-1.251
			l2.879-9.614l2.831-17.218L89.409,241.018z M78.83,238.052l1.295,0.363l-2.475,15.044l-5.211-1.659l3.325-10.894l-5.952-3.527
			L78.83,238.052z M66.41,237.127l1.273,0.093l-0.074,0.331l6.967,4.128l-1.177,3.855l-7.829-4.292l-0.917-0.505l0.646-3.444
			l0.107-0.58L66.41,237.127z M64.159,236.204l-0.086,0.459l-5.195,27.75l-5.087-2.151l2.383-10.988
			c0.137-0.429,0.897-2.88,0.9-5.894c0.01-1.975-0.356-4.219-1.441-6.155c-0.459-0.814-1.042-1.576-1.785-2.239l-0.058-0.05
			l-0.023-0.008l1.317-4.445l1.786,0.73l2.541,1.042L64.159,236.204z M64.408,234.875l-9.053-3.714l2.051-14.561
			c3.013,2.146,5.75,4.103,8.018,5.725c0.409,0.292,0.799,0.572,1.177,0.842L64.408,234.875z M163.293,267.363l8.191,13.02
			l-7.392,11.745l-6.991-18.849C159.914,270.601,162.364,268.254,163.293,267.363z M148.059,255.633l-7.708,12.646l-17.504-9.297
			l-0.169-10.986l7.314,0.985l1.342-5.595c1.108,0.231,1.801,0.378,1.957,0.411c0.18,0.053,0.772,0.204,1.612,0.204
			c1.202-0.003,2.93-0.308,4.628-1.831c0.505-0.454,1.442-1.336,2.623-2.464L148.059,255.633z M129.144,246.779l-6.498-0.877
			l-0.067-4.338c2.966,0.613,5.553,1.152,7.444,1.546L129.144,246.779z M163.09,230.578l-13.483,22.495l-5.611-15.13
			c5.106-4.896,12.39-11.982,12.398-11.99l0.309-0.3l0.094-0.29L163.09,230.578z M141.014,192.189l19.113,13.977l-4.044,12.459
			l-18.204-14.678L141.014,192.189z M133.149,203.806l3.041,1.233l-1.22,4.572L133.149,203.806z M139.737,224.804l-4.01-12.782
			l1.643-6.16l18.115,14.605l-0.719,2.216c-0.944,0.918-3.93,3.82-7.14,6.922c-1.51,1.463-3.072,2.968-4.491,4.332L139.737,224.804z
			 M105.556,233.899l0.666-3.954l14.072,2.158l0.073,4.809C115.725,235.957,110.449,234.88,105.556,233.899z M122.514,237.356
			l-0.076-4.95l14.033,1.801l2.873-3.011l1.537,4.899c-1.184,1.127-2.115,2.005-2.596,2.438c-1.153,1.044-2.456,1.311-3.382,1.306
			c-0.37,0.003-0.676-0.04-0.881-0.078c-0.104-0.018-0.182-0.038-0.23-0.048c-0.048-0.013-0.051-0.018-0.051-0.015l-0.045-0.016
			l-0.042-0.008C133.651,239.676,128.912,238.68,122.514,237.356z M105.04,237.989c3.775,0.757,7.789,1.571,11.569,2.345
			c1.31,0.271,2.589,0.532,3.823,0.787l0.069,4.491l-16.051-2.169C104.68,241.28,104.883,239.419,105.04,237.989z M111.121,264.357
			l0.005-0.061l-6.692-3.182l-0.026-0.013v0.002l-0.003-0.002l-0.365,1.994h0.003l0.016,0.008l5.666,2.746l-0.388,5.406
			l-7.305-2.431c0.138-1.364,0.263-2.701,0.37-3.987c0.553-6.702,1.252-13.758,1.833-19.335l16.3,2.201l0.24,15.588l-3.479-0.655
			l-5.405-2.577l-0.362,1.997l5.508,2.625l3.77,0.711l0.022,1.407l-0.021,0.174l-3.983,0.149L111.121,264.357z M123.387,294.104
			l-0.506-32.914l16.462,8.742l-8.395,13.771L123.387,294.104z M146.021,299.98l-0.187,1.573l-6.398-4.6
			c0.078-0.239,0.167-0.512,0.272-0.822c0.069-0.206,0.143-0.429,0.223-0.66L146.021,299.98z M138.761,294.606
			c-0.204,0.596-0.373,1.104-0.5,1.501l-9.421-6.776l0.979-1.344L138.761,294.606z M145.411,281.819
			c-2.061,1.834-3.86,5.616-5.217,8.949c-0.285,0.704-0.547,1.387-0.786,2.03L130.9,286.5l0.922-1.271l6.782-11.125l2.793,4.831
			l0.936-1.419l-2.827-4.893l2.14-3.513l4.15,6.73l0.908-1.473l-4.155-6.737l6.191-10.16l5.853,15.78
			c-0.57,0.54-1.143,1.085-1.713,1.622l-2.011-5.664l-1.112,1.039l2.014,5.674C149.104,278.438,146.667,280.713,145.411,281.819z
			 M153.522,276.676c0.577-0.545,1.157-1.095,1.733-1.642l7.266,19.585l-1.683,2.665L153.522,276.676z"/>
		<polygon fill="#FFFFFF" points="176.886,207.526 165.673,199.16 169.652,187.266 165.76,187.266 162.556,196.836 149.727,187.266 
			145.635,187.266 176.886,210.577 		"/>
		<polygon fill="#FFFFFF" points="100.085,306.158 102.909,306.158 100.357,304.807 		"/>
	</g>
</g>
<g>
	<g>
		<g>
			<g>
				<path fill="#FD6464" d="M171.976,208.068c0,6.807-12.086,24.767-12.086,24.767s-12.086-17.96-12.086-24.767
					s5.411-12.326,12.086-12.326S171.976,201.261,171.976,208.068z"/>
				<ellipse fill="#FFFFFF" cx="159.89" cy="207.524" rx="5.681" ry="5.793"/>
			</g>
		</g>
	</g>
</g>
<path fill="#9090F3" d="M370.254,216.83H280.4c-1.173,0-2.12-0.799-2.12-1.782v-31.586c0-0.984,0.947-1.782,2.12-1.782h89.854
	c1.17,0,2.122,0.798,2.122,1.782v31.586C372.376,216.031,371.424,216.83,370.254,216.83z"/>
<path fill="#9090F3" d="M322.773,232.32h-42.896c-0.56,0-1.012-0.23-1.012-0.514v-9.1c0-0.284,0.452-0.514,1.012-0.514h42.896
	c0.56,0,1.014,0.229,1.014,0.514v9.1C323.787,232.09,323.333,232.32,322.773,232.32z"/>
<path fill="#9090F3" d="M322.773,246.865h-42.896c-0.56,0-1.012-0.232-1.012-0.515v-9.101c0-0.282,0.452-0.512,1.012-0.512h42.896
	c0.56,0,1.014,0.229,1.014,0.512v9.101C323.787,246.633,323.333,246.865,322.773,246.865z"/>
<path fill="#9090F3" d="M371.362,232.046h-42.896c-0.56,0-1.012-0.229-1.012-0.515v-9.098c0-0.285,0.452-0.515,1.012-0.515h42.896
	c0.56,0,1.014,0.229,1.014,0.515v9.098C372.376,231.816,371.922,232.046,371.362,232.046z"/>
<path fill="#9090F3" d="M371.362,246.591h-42.896c-0.56,0-1.012-0.232-1.012-0.515v-9.101c0-0.282,0.452-0.512,1.012-0.512h42.896
	c0.56,0,1.014,0.229,1.014,0.512v9.101C372.376,246.358,371.922,246.591,371.362,246.591z"/>
<path fill="#3E24A1" d="M347.075,281.545h-41.53c-3.539,0-6.409-2.87-6.409-6.41l0,0c0-3.539,2.87-6.408,6.409-6.408h41.53
	c3.539,0,6.409,2.869,6.409,6.408l0,0C353.484,278.675,350.614,281.545,347.075,281.545z"/>
<g>
	<g>
		<path fill="#FFFFFF" d="M308.86,275.292c0,2.021-1.229,3.093-2.727,3.093c-1.552,0-2.641-1.202-2.641-2.979
			c0-1.864,1.159-3.084,2.728-3.084C307.823,272.321,308.86,273.549,308.86,275.292z M304.304,275.388
			c0,1.255,0.68,2.379,1.873,2.379c1.202,0,1.882-1.106,1.882-2.439c0-1.168-0.609-2.388-1.873-2.388
			C304.931,272.939,304.304,274.099,304.304,275.388z"/>
		<path fill="#FFFFFF" d="M309.844,272.495c0.384-0.078,0.933-0.122,1.455-0.122c0.811,0,1.333,0.148,1.699,0.479
			c0.296,0.261,0.462,0.662,0.462,1.115c0,0.775-0.488,1.289-1.106,1.498v0.026c0.452,0.157,0.723,0.575,0.862,1.185
			c0.191,0.819,0.331,1.386,0.453,1.612h-0.784c-0.096-0.166-0.227-0.671-0.393-1.402c-0.174-0.811-0.487-1.115-1.176-1.142h-0.715
			v2.544h-0.758V272.495z M310.602,275.17h0.775c0.811,0,1.324-0.444,1.324-1.115c0-0.758-0.549-1.089-1.35-1.098
			c-0.366,0-0.628,0.035-0.75,0.069V275.17z"/>
		<path fill="#FFFFFF" d="M314.529,272.495c0.462-0.069,1.011-0.122,1.612-0.122c1.089,0,1.864,0.253,2.378,0.731
			c0.523,0.479,0.828,1.159,0.828,2.109c0,0.958-0.296,1.742-0.846,2.282c-0.549,0.549-1.455,0.846-2.596,0.846
			c-0.54,0-0.993-0.026-1.377-0.07V272.495z M315.287,277.688c0.192,0.035,0.471,0.044,0.767,0.044c1.621,0,2.501-0.906,2.501-2.492
			c0.009-1.385-0.775-2.265-2.379-2.265c-0.392,0-0.688,0.034-0.889,0.078V277.688z"/>
		<path fill="#FFFFFF" d="M323.372,275.536h-2.283v2.117h2.544v0.636h-3.302v-5.872h3.172v0.636h-2.414v1.855h2.283V275.536z"/>
		<path fill="#FFFFFF" d="M324.616,272.495c0.384-0.078,0.933-0.122,1.455-0.122c0.811,0,1.333,0.148,1.699,0.479
			c0.296,0.261,0.462,0.662,0.462,1.115c0,0.775-0.488,1.289-1.106,1.498v0.026c0.453,0.157,0.723,0.575,0.862,1.185
			c0.191,0.819,0.331,1.386,0.453,1.612h-0.784c-0.096-0.166-0.227-0.671-0.393-1.402c-0.174-0.811-0.487-1.115-1.176-1.142h-0.715
			v2.544h-0.758V272.495z M325.374,275.17h0.775c0.811,0,1.324-0.444,1.324-1.115c0-0.758-0.549-1.089-1.35-1.098
			c-0.366,0-0.628,0.035-0.75,0.069V275.17z"/>
		<path fill="#FFFFFF" d="M331.149,278.289v-5.872h0.828l1.882,2.971c0.436,0.688,0.775,1.307,1.054,1.908l0.018-0.009
			c-0.069-0.784-0.087-1.499-0.087-2.413v-2.457h0.715v5.872h-0.768l-1.864-2.979c-0.409-0.653-0.802-1.324-1.098-1.961
			l-0.026,0.009c0.044,0.741,0.062,1.446,0.062,2.422v2.51H331.149z"/>
		<path fill="#FFFFFF" d="M341.899,275.292c0,2.021-1.229,3.093-2.727,3.093c-1.552,0-2.641-1.202-2.641-2.979
			c0-1.864,1.159-3.084,2.728-3.084C340.862,272.321,341.899,273.549,341.899,275.292z M337.343,275.388
			c0,1.255,0.68,2.379,1.873,2.379c1.202,0,1.882-1.106,1.882-2.439c0-1.168-0.609-2.388-1.873-2.388
			C337.97,272.939,337.343,274.099,337.343,275.388z"/>
		<path fill="#FFFFFF" d="M343.841,278.289l-1.489-5.872h0.802l0.696,2.971c0.175,0.731,0.331,1.464,0.436,2.03h0.018
			c0.096-0.584,0.279-1.281,0.479-2.039l0.784-2.962h0.793l0.714,2.979c0.166,0.697,0.323,1.394,0.41,2.013h0.018
			c0.122-0.645,0.287-1.298,0.47-2.03l0.775-2.962h0.776l-1.665,5.872h-0.792l-0.741-3.059c-0.183-0.749-0.305-1.324-0.383-1.916
			h-0.018c-0.104,0.583-0.235,1.158-0.453,1.916l-0.837,3.059H343.841z"/>
	</g>
</g>
<path fill="#441FA7" d="M265.145,195.866h-83.652c-4.151,0-7.519-3.365-7.519-7.516l0,0c0-4.153,3.368-7.52,7.519-7.52h83.652
	c4.152,0,7.52,3.367,7.52,7.52l0,0C272.664,192.501,269.297,195.866,265.145,195.866z"/>
<path fill="#441FA7" d="M265.242,218.266H181.59c-4.152,0-7.52-3.365-7.52-7.516l0,0c0-4.155,3.368-7.522,7.52-7.522h83.652
	c4.152,0,7.52,3.367,7.52,7.522l0,0C272.762,214.901,269.395,218.266,265.242,218.266z"/>
<g>
	<path fill="#FFFFFF" d="M184.572,191.612h-1.143v-4.308c-0.417,0.39-0.91,0.679-1.477,0.866v-1.037
		c0.298-0.098,0.623-0.283,0.972-0.556c0.35-0.272,0.59-0.59,0.72-0.954h0.927V191.612z"/>
	<path fill="#FFFFFF" d="M190.154,187.109l-1.107,0.122c-0.027-0.228-0.097-0.396-0.211-0.504c-0.114-0.109-0.262-0.163-0.443-0.163
		c-0.241,0-0.445,0.108-0.612,0.326c-0.167,0.217-0.272,0.668-0.315,1.354c0.285-0.336,0.639-0.504,1.062-0.504
		c0.478,0,0.886,0.182,1.227,0.545c0.34,0.363,0.511,0.833,0.511,1.407c0,0.61-0.179,1.1-0.537,1.469
		c-0.358,0.369-0.818,0.553-1.379,0.553c-0.602,0-1.097-0.234-1.485-0.702c-0.388-0.468-0.582-1.235-0.582-2.301
		c0-1.093,0.202-1.881,0.606-2.363c0.404-0.483,0.929-0.724,1.575-0.724c0.453,0,0.828,0.126,1.125,0.38
		C189.883,186.258,190.072,186.626,190.154,187.109z M187.562,189.603c0,0.372,0.085,0.659,0.256,0.86
		c0.171,0.202,0.366,0.303,0.586,0.303c0.211,0,0.388-0.083,0.529-0.248s0.211-0.437,0.211-0.814c0-0.388-0.076-0.672-0.228-0.852
		s-0.342-0.271-0.57-0.271c-0.219,0-0.405,0.086-0.557,0.258S187.562,189.266,187.562,189.603z"/>
	<path fill="#FFFFFF" d="M191.159,191.612v-1.143h1.143v1.143H191.159z"/>
	<path fill="#FFFFFF" d="M195.471,191.612v-1.2h-2.441v-1.001l2.587-3.787h0.96v3.783h0.74v1.005h-0.74v1.2H195.471z
		 M195.471,189.407v-2.038l-1.371,2.038H195.471z"/>
	<path fill="#FFFFFF" d="M197.887,190.233l1.106-0.122c0.027,0.225,0.098,0.392,0.211,0.5c0.114,0.109,0.265,0.163,0.452,0.163
		c0.236,0,0.437-0.108,0.602-0.326c0.166-0.217,0.271-0.667,0.317-1.351c-0.288,0.333-0.647,0.5-1.078,0.5
		c-0.469,0-0.874-0.181-1.214-0.543c-0.34-0.362-0.51-0.833-0.51-1.414c0-0.604,0.179-1.092,0.539-1.462
		c0.359-0.37,0.817-0.555,1.373-0.555c0.604,0,1.101,0.234,1.489,0.702s0.582,1.237,0.582,2.309c0,1.09-0.202,1.877-0.606,2.36
		c-0.404,0.482-0.93,0.724-1.579,0.724c-0.466,0-0.843-0.124-1.131-0.373C198.153,191.098,197.968,190.727,197.887,190.233z
		 M200.475,187.735c0-0.369-0.085-0.655-0.254-0.858c-0.169-0.204-0.365-0.305-0.588-0.305c-0.211,0-0.387,0.083-0.527,0.25
		c-0.14,0.167-0.209,0.44-0.209,0.82c0,0.385,0.076,0.668,0.228,0.848c0.152,0.181,0.342,0.271,0.569,0.271
		c0.22,0,0.405-0.086,0.555-0.26C200.399,188.327,200.475,188.072,200.475,187.735z"/>
	<path fill="#FFFFFF" d="M204.738,191.612v-1.2h-2.441v-1.001l2.587-3.787h0.96v3.783h0.74v1.005h-0.74v1.2H204.738z
		 M204.738,189.407v-2.038l-1.371,2.038H204.738z"/>
	<path fill="#FFFFFF" d="M208.111,188.395c-0.296-0.125-0.511-0.296-0.645-0.515s-0.201-0.458-0.201-0.718
		c0-0.445,0.155-0.812,0.466-1.103c0.311-0.29,0.752-0.435,1.324-0.435c0.567,0,1.007,0.145,1.32,0.435
		c0.313,0.291,0.47,0.658,0.47,1.103c0,0.277-0.072,0.523-0.216,0.738c-0.144,0.216-0.346,0.38-0.606,0.495
		c0.331,0.133,0.583,0.327,0.754,0.582c0.172,0.255,0.258,0.549,0.258,0.883c0,0.551-0.175,0.998-0.527,1.342
		c-0.351,0.345-0.818,0.517-1.401,0.517c-0.542,0-0.994-0.143-1.354-0.427c-0.426-0.336-0.639-0.797-0.639-1.383
		c0-0.323,0.08-0.619,0.24-0.889C207.514,188.749,207.766,188.541,208.111,188.395z M208.241,189.798
		c0,0.314,0.081,0.56,0.242,0.736c0.162,0.176,0.363,0.265,0.604,0.265c0.236,0,0.432-0.085,0.586-0.254
		c0.155-0.169,0.232-0.415,0.232-0.734c0-0.279-0.079-0.504-0.236-0.673s-0.357-0.254-0.598-0.254c-0.279,0-0.487,0.097-0.625,0.289
		C208.31,189.364,208.241,189.573,208.241,189.798z M208.347,187.243c0,0.228,0.064,0.405,0.193,0.533s0.3,0.191,0.515,0.191
		c0.217,0,0.391-0.064,0.521-0.193c0.13-0.129,0.195-0.307,0.195-0.535c0-0.214-0.064-0.386-0.193-0.515
		c-0.128-0.128-0.299-0.193-0.51-0.193c-0.22,0-0.395,0.065-0.525,0.195C208.412,186.856,208.347,187.029,208.347,187.243z"/>
	<path fill="#FFFFFF" d="M213.696,185.624c0.578,0,1.029,0.206,1.355,0.618c0.388,0.488,0.582,1.298,0.582,2.429
		c0,1.128-0.195,1.939-0.585,2.433c-0.323,0.407-0.773,0.61-1.351,0.61c-0.58,0-1.048-0.223-1.403-0.669
		c-0.355-0.446-0.533-1.242-0.533-2.386c0-1.123,0.195-1.931,0.585-2.425C212.668,185.827,213.119,185.624,213.696,185.624z
		 M213.696,186.572c-0.138,0-0.262,0.044-0.37,0.132c-0.108,0.088-0.192,0.246-0.252,0.474c-0.079,0.296-0.118,0.793-0.118,1.493
		s0.035,1.181,0.106,1.442c0.07,0.262,0.159,0.436,0.266,0.522c0.107,0.087,0.23,0.13,0.368,0.13c0.139,0,0.262-0.044,0.371-0.132
		c0.108-0.088,0.192-0.246,0.252-0.474c0.079-0.293,0.118-0.79,0.118-1.489s-0.035-1.18-0.106-1.442
		c-0.07-0.261-0.159-0.437-0.266-0.524C213.958,186.616,213.835,186.572,213.696,186.572z"/>
	<path fill="#FFFFFF" d="M216.357,190.03l1.106-0.134c0.035,0.282,0.13,0.498,0.285,0.647c0.155,0.149,0.342,0.224,0.562,0.224
		c0.236,0,0.435-0.089,0.596-0.269c0.162-0.179,0.242-0.42,0.242-0.724c0-0.288-0.077-0.515-0.232-0.684
		c-0.154-0.168-0.343-0.252-0.565-0.252c-0.146,0-0.321,0.028-0.525,0.085l0.126-0.932c0.309,0.008,0.545-0.059,0.708-0.202
		c0.163-0.142,0.244-0.332,0.244-0.567c0-0.201-0.06-0.361-0.179-0.48c-0.12-0.12-0.278-0.179-0.476-0.179
		c-0.195,0-0.362,0.068-0.5,0.204s-0.222,0.333-0.252,0.594l-1.053-0.179c0.073-0.361,0.184-0.649,0.332-0.865
		c0.147-0.215,0.354-0.385,0.618-0.508c0.265-0.124,0.561-0.185,0.889-0.185c0.562,0,1.012,0.179,1.351,0.537
		c0.279,0.293,0.419,0.624,0.419,0.993c0,0.523-0.286,0.941-0.858,1.253c0.342,0.073,0.615,0.237,0.82,0.492
		c0.205,0.255,0.307,0.563,0.307,0.923c0,0.523-0.191,0.97-0.574,1.338c-0.382,0.369-0.858,0.553-1.428,0.553
		c-0.54,0-0.987-0.155-1.342-0.466S216.414,190.532,216.357,190.03z"/>
	<path fill="#FFFFFF" d="M221.247,190.469h1.144v0.817c0,0.331-0.029,0.592-0.085,0.783c-0.057,0.191-0.165,0.363-0.324,0.515
		s-0.36,0.271-0.604,0.358l-0.224-0.472c0.23-0.076,0.395-0.18,0.492-0.313c0.098-0.133,0.149-0.314,0.155-0.545h-0.554V190.469z"/>
	<path fill="#FFFFFF" d="M226.642,188.395c-0.296-0.125-0.511-0.296-0.645-0.515s-0.201-0.458-0.201-0.718
		c0-0.445,0.155-0.812,0.466-1.103c0.311-0.29,0.752-0.435,1.324-0.435c0.567,0,1.007,0.145,1.32,0.435
		c0.313,0.291,0.47,0.658,0.47,1.103c0,0.277-0.072,0.523-0.216,0.738c-0.144,0.216-0.346,0.38-0.606,0.495
		c0.331,0.133,0.583,0.327,0.754,0.582c0.172,0.255,0.258,0.549,0.258,0.883c0,0.551-0.175,0.998-0.527,1.342
		c-0.351,0.345-0.818,0.517-1.401,0.517c-0.542,0-0.994-0.143-1.354-0.427c-0.426-0.336-0.639-0.797-0.639-1.383
		c0-0.323,0.08-0.619,0.24-0.889C226.045,188.749,226.297,188.541,226.642,188.395z M226.772,189.798
		c0,0.314,0.081,0.56,0.242,0.736c0.162,0.176,0.363,0.265,0.604,0.265c0.236,0,0.432-0.085,0.586-0.254
		c0.155-0.169,0.232-0.415,0.232-0.734c0-0.279-0.079-0.504-0.236-0.673s-0.357-0.254-0.598-0.254c-0.279,0-0.487,0.097-0.625,0.289
		C226.841,189.364,226.772,189.573,226.772,189.798z M226.878,187.243c0,0.228,0.064,0.405,0.193,0.533s0.3,0.191,0.515,0.191
		c0.217,0,0.391-0.064,0.521-0.193c0.13-0.129,0.195-0.307,0.195-0.535c0-0.214-0.064-0.386-0.193-0.515
		c-0.128-0.128-0.299-0.193-0.51-0.193c-0.22,0-0.395,0.065-0.525,0.195C226.943,186.856,226.878,187.029,226.878,187.243z"/>
	<path fill="#FFFFFF" d="M232.228,185.624c0.578,0,1.029,0.206,1.355,0.618c0.388,0.488,0.582,1.298,0.582,2.429
		c0,1.128-0.195,1.939-0.585,2.433c-0.323,0.407-0.773,0.61-1.351,0.61c-0.58,0-1.048-0.223-1.403-0.669
		c-0.355-0.446-0.533-1.242-0.533-2.386c0-1.123,0.195-1.931,0.585-2.425C231.2,185.827,231.65,185.624,232.228,185.624z
		 M232.228,186.572c-0.138,0-0.262,0.044-0.37,0.132c-0.108,0.088-0.192,0.246-0.252,0.474c-0.079,0.296-0.118,0.793-0.118,1.493
		s0.035,1.181,0.106,1.442c0.07,0.262,0.159,0.436,0.266,0.522c0.107,0.087,0.23,0.13,0.368,0.13c0.139,0,0.262-0.044,0.371-0.132
		c0.108-0.088,0.192-0.246,0.252-0.474c0.079-0.293,0.118-0.79,0.118-1.489s-0.035-1.18-0.106-1.442
		c-0.07-0.261-0.159-0.437-0.266-0.524C232.489,186.616,232.366,186.572,232.228,186.572z"/>
	<path fill="#FFFFFF" d="M235.173,191.612v-1.143h1.143v1.143H235.173z"/>
	<path fill="#FFFFFF" d="M241.117,187.109l-1.107,0.122c-0.027-0.228-0.097-0.396-0.211-0.504c-0.114-0.109-0.262-0.163-0.443-0.163
		c-0.241,0-0.445,0.108-0.612,0.326c-0.167,0.217-0.272,0.668-0.315,1.354c0.285-0.336,0.639-0.504,1.062-0.504
		c0.478,0,0.886,0.182,1.227,0.545c0.34,0.363,0.511,0.833,0.511,1.407c0,0.61-0.179,1.1-0.537,1.469
		c-0.358,0.369-0.818,0.553-1.379,0.553c-0.602,0-1.097-0.234-1.485-0.702c-0.388-0.468-0.582-1.235-0.582-2.301
		c0-1.093,0.202-1.881,0.606-2.363c0.404-0.483,0.929-0.724,1.575-0.724c0.453,0,0.828,0.126,1.125,0.38
		C240.846,186.258,241.035,186.626,241.117,187.109z M238.525,189.603c0,0.372,0.085,0.659,0.256,0.86
		c0.171,0.202,0.366,0.303,0.586,0.303c0.211,0,0.388-0.083,0.529-0.248s0.211-0.437,0.211-0.814c0-0.388-0.076-0.672-0.228-0.852
		s-0.342-0.271-0.57-0.271c-0.219,0-0.405,0.086-0.557,0.258S238.525,189.266,238.525,189.603z"/>
	<path fill="#FFFFFF" d="M245.75,187.109l-1.107,0.122c-0.027-0.228-0.097-0.396-0.211-0.504c-0.114-0.109-0.262-0.163-0.443-0.163
		c-0.241,0-0.445,0.108-0.612,0.326c-0.167,0.217-0.272,0.668-0.315,1.354c0.285-0.336,0.639-0.504,1.062-0.504
		c0.478,0,0.886,0.182,1.227,0.545c0.34,0.363,0.511,0.833,0.511,1.407c0,0.61-0.179,1.1-0.537,1.469
		c-0.358,0.369-0.818,0.553-1.379,0.553c-0.602,0-1.097-0.234-1.485-0.702c-0.388-0.468-0.582-1.235-0.582-2.301
		c0-1.093,0.202-1.881,0.606-2.363c0.404-0.483,0.929-0.724,1.575-0.724c0.453,0,0.828,0.126,1.125,0.38
		C245.48,186.258,245.669,186.626,245.75,187.109z M243.159,189.603c0,0.372,0.085,0.659,0.256,0.86
		c0.171,0.202,0.366,0.303,0.586,0.303c0.211,0,0.388-0.083,0.529-0.248s0.211-0.437,0.211-0.814c0-0.388-0.076-0.672-0.228-0.852
		s-0.342-0.271-0.57-0.271c-0.219,0-0.405,0.086-0.557,0.258S243.159,189.266,243.159,189.603z"/>
	<path fill="#FFFFFF" d="M248.753,191.612v-1.2h-2.441v-1.001l2.587-3.787h0.96v3.783h0.74v1.005h-0.74v1.2H248.753z
		 M248.753,189.407v-2.038l-1.371,2.038H248.753z"/>
	<path fill="#FFFFFF" d="M253.387,191.612v-1.2h-2.441v-1.001l2.588-3.787h0.96v3.783h0.74v1.005h-0.74v1.2H253.387z
		 M253.387,189.407v-2.038l-1.371,2.038H253.387z"/>
	<path fill="#FFFFFF" d="M255.795,190.079l1.139-0.118c0.033,0.258,0.129,0.462,0.289,0.612c0.16,0.151,0.345,0.226,0.554,0.226
		c0.238,0,0.44-0.097,0.606-0.291c0.165-0.194,0.248-0.486,0.248-0.877c0-0.366-0.082-0.641-0.246-0.824s-0.378-0.274-0.641-0.274
		c-0.328,0-0.623,0.145-0.883,0.435l-0.928-0.134l0.586-3.104h3.022v1.07h-2.156l-0.179,1.013c0.254-0.127,0.516-0.191,0.781-0.191
		c0.507,0,0.937,0.185,1.289,0.554c0.353,0.369,0.529,0.848,0.529,1.436c0,0.491-0.143,0.929-0.428,1.314
		c-0.388,0.526-0.926,0.789-1.615,0.789c-0.551,0-0.999-0.147-1.346-0.443C256.07,190.975,255.863,190.578,255.795,190.079z"/>
	<path fill="#FFFFFF" d="M262.654,191.612v-1.2h-2.441v-1.001l2.588-3.787h0.96v3.783h0.74v1.005h-0.74v1.2H262.654z
		 M262.654,189.407v-2.038l-1.371,2.038H262.654z"/>
</g>
<g>
	<path fill="#FFFFFF" d="M199.055,212.132l1.167,0.37c-0.179,0.651-0.477,1.135-0.893,1.451s-0.944,0.474-1.584,0.474
		c-0.792,0-1.443-0.271-1.953-0.812c-0.51-0.541-0.765-1.281-0.765-2.219c0-0.993,0.256-1.764,0.769-2.313
		c0.513-0.549,1.187-0.824,2.022-0.824c0.729,0,1.322,0.216,1.778,0.647c0.271,0.255,0.475,0.621,0.61,1.099l-1.192,0.285
		c-0.07-0.309-0.217-0.553-0.441-0.732c-0.224-0.179-0.496-0.269-0.815-0.269c-0.442,0-0.801,0.159-1.076,0.476
		s-0.413,0.832-0.413,1.542c0,0.754,0.136,1.291,0.407,1.611c0.271,0.32,0.624,0.48,1.058,0.48c0.32,0,0.595-0.102,0.826-0.305
		C198.789,212.889,198.955,212.569,199.055,212.132z"/>
	<path fill="#FFFFFF" d="M201.012,211.38c0-0.607,0.091-1.118,0.272-1.53c0.135-0.304,0.321-0.576,0.555-0.818
		c0.234-0.241,0.492-0.42,0.771-0.537c0.372-0.158,0.8-0.236,1.286-0.236c0.878,0,1.582,0.273,2.109,0.818
		c0.527,0.545,0.791,1.303,0.791,2.274c0,0.963-0.262,1.716-0.785,2.26c-0.523,0.543-1.223,0.815-2.099,0.815
		c-0.887,0-1.592-0.271-2.115-0.812S201.012,212.329,201.012,211.38z M202.253,211.339c0,0.676,0.156,1.188,0.468,1.536
		s0.708,0.522,1.188,0.522s0.874-0.173,1.182-0.519c0.308-0.346,0.462-0.864,0.462-1.556c0-0.684-0.15-1.193-0.45-1.53
		c-0.3-0.336-0.698-0.504-1.194-0.504c-0.497,0-0.896,0.17-1.2,0.511S202.253,210.653,202.253,211.339z"/>
	<path fill="#FFFFFF" d="M207.736,214.325v-5.964h1.933c0.732,0,1.209,0.03,1.432,0.089c0.342,0.089,0.628,0.284,0.858,0.583
		c0.23,0.3,0.346,0.687,0.346,1.162c0,0.366-0.066,0.674-0.199,0.924s-0.302,0.445-0.507,0.587
		c-0.205,0.143-0.413,0.237-0.624,0.283c-0.288,0.057-0.704,0.085-1.249,0.085h-0.785v2.25H207.736z M208.941,209.37v1.692h0.659
		c0.475,0,0.792-0.031,0.952-0.094c0.16-0.062,0.286-0.16,0.376-0.293c0.091-0.133,0.136-0.287,0.136-0.463
		c0-0.217-0.064-0.396-0.191-0.537s-0.289-0.229-0.484-0.265c-0.144-0.027-0.433-0.041-0.867-0.041H208.941z"/>
	<path fill="#FFFFFF" d="M214.86,214.325v-2.51l-2.185-3.454h1.412l1.404,2.359l1.375-2.359h1.387l-2.193,3.462v2.502H214.86z"/>
	<path fill="#FFFFFF" d="M220.397,214.427l1.477-6.167h0.858l-1.493,6.167H220.397z"/>
	<path fill="#FFFFFF" d="M225.645,214.325v-5.964h1.933c0.732,0,1.209,0.03,1.432,0.089c0.342,0.089,0.628,0.284,0.858,0.583
		c0.23,0.3,0.346,0.687,0.346,1.162c0,0.366-0.066,0.674-0.199,0.924s-0.302,0.445-0.507,0.587
		c-0.205,0.143-0.413,0.237-0.624,0.283c-0.288,0.057-0.704,0.085-1.249,0.085h-0.785v2.25H225.645z M226.85,209.37v1.692h0.659
		c0.475,0,0.792-0.031,0.952-0.094c0.16-0.062,0.286-0.16,0.376-0.293c0.091-0.133,0.136-0.287,0.136-0.463
		c0-0.217-0.064-0.396-0.191-0.537s-0.289-0.229-0.484-0.265c-0.144-0.027-0.433-0.041-0.867-0.041H226.85z"/>
	<path fill="#FFFFFF" d="M235.962,214.325h-1.31l-0.521-1.354h-2.384l-0.492,1.354h-1.277l2.323-5.964h1.273L235.962,214.325z
		 M233.745,211.966l-0.822-2.213l-0.805,2.213H233.745z"/>
	<path fill="#FFFFFF" d="M236.296,212.385l1.171-0.114c0.07,0.394,0.214,0.682,0.429,0.867c0.216,0.185,0.506,0.277,0.873,0.277
		c0.388,0,0.68-0.082,0.877-0.246c0.196-0.164,0.295-0.356,0.295-0.576c0-0.141-0.042-0.261-0.124-0.36
		c-0.083-0.099-0.228-0.185-0.434-0.258c-0.141-0.049-0.462-0.135-0.964-0.26c-0.646-0.16-1.099-0.356-1.359-0.59
		c-0.366-0.328-0.549-0.729-0.549-1.2c0-0.304,0.086-0.588,0.258-0.853c0.172-0.264,0.42-0.466,0.745-0.604s0.715-0.208,1.174-0.208
		c0.749,0,1.312,0.164,1.69,0.492c0.378,0.329,0.577,0.767,0.596,1.314l-1.204,0.053c-0.052-0.307-0.162-0.527-0.332-0.661
		s-0.424-0.201-0.763-0.201c-0.35,0-0.624,0.072-0.822,0.215c-0.128,0.092-0.191,0.216-0.191,0.37c0,0.141,0.06,0.262,0.179,0.362
		c0.152,0.127,0.521,0.26,1.106,0.398c0.586,0.139,1.019,0.282,1.3,0.429c0.281,0.148,0.5,0.35,0.659,0.606s0.238,0.573,0.238,0.95
		c0,0.342-0.095,0.662-0.285,0.96s-0.458,0.52-0.806,0.665s-0.78,0.218-1.298,0.218c-0.754,0-1.333-0.174-1.737-0.523
		C236.616,213.56,236.375,213.052,236.296,212.385z"/>
	<path fill="#FFFFFF" d="M243.501,214.325v-4.955h-1.77v-1.009h4.739v1.009h-1.766v4.955H243.501z"/>
	<path fill="#FFFFFF" d="M247.248,214.325v-5.964h4.422v1.009h-3.218v1.322h2.994v1.005h-2.994v1.623h3.331v1.005H247.248z"/>
</g>
</svg>
