<?xml version="1.0" encoding="utf-8"?>
<!-- Generator: Adobe Illustrator 16.0.0, SVG Export Plug-In . SVG Version: 6.00 Build 0)  -->
<!DOCTYPE svg PUBLIC "-//W3C//DTD SVG 1.1//EN" "http://www.w3.org/Graphics/SVG/1.1/DTD/svg11.dtd">
<svg version="1.1" id="Layer_1" xmlns="http://www.w3.org/2000/svg" xmlns:xlink="http://www.w3.org/1999/xlink" x="0px" y="0px"
	 width="500px" height="500px" viewBox="0 0 500 500" enable-background="new 0 0 500 500" xml:space="preserve">
<g>
	<path fill="#F4F7FA" d="M437.63,378.16c-92.403,118.195-308.8,120.091-368.706,54.44c-23.909-26.199-30.221-71.194-39.5-137.29
		c-4.468-31.819-5.106-57.465-5.485-75.062c-1.309-59.855-1.961-89.787,7.676-110.15c27.6-58.285,123.48-80.97,185.452-82.023
		c4.325-0.074,8.69-0.046,13.089,0.088c72.564,2.161,154.449,32.368,204.951,96.917c5.221,6.659,10.096,13.686,14.595,21.086
		C495.798,221.969,488.041,313.688,437.63,378.16z"/>
	<g>
		<g>
			<defs>
				<path id="SVGID_1_" d="M214.889,382.836c16.33-11.531,19.25-41.736,15.251-62.008c-4.667-23.667-16.892-24.295-19.09-42.981
					c-4.092-34.797,36.606-46.892,35.262-82.31c-1.101-28.954-28.716-31.855-28.474-63.974c0.174-23.177,14.638-32.807,8.142-53.029
					c-0.555-1.729-6.811-20.288-22.663-24.625c-15.998-4.377-32.412,8.293-40.529,18.498c-15.005,18.865-3.898,32.124-13.479,61.015
					c-13.044,39.332-41.352,38.038-44.97,68.985c-2.988,25.557,15.626,32.333,11.751,60.603
					c-3.599,26.251-20.958,29.946-21.687,47.837C92.728,352.011,181.584,406.354,214.889,382.836z"/>
			</defs>
			<linearGradient id="SVGID_2_" gradientUnits="userSpaceOnUse" x1="205.897" y1="187.5752" x2="286.8901" y2="-2.5459">
				<stop  offset="0" style="stop-color:#FF9085"/>
				<stop  offset="1" style="stop-color:#FB6FBB"/>
			</linearGradient>
			<use xlink:href="#SVGID_1_"  overflow="visible" fill="url(#SVGID_2_)"/>
			<clipPath id="SVGID_3_">
				<use xlink:href="#SVGID_1_"  overflow="visible"/>
			</clipPath>
			<g clip-path="url(#SVGID_3_)">
				<g opacity="0.7">
					<path fill="#FFFFFF" d="M191.343,402.169c-0.096,0-0.194-0.023-0.283-0.076c-15.327-9.003-28.099-20.816-37.961-35.115
						c-9.354-13.563-19.025-27.587-18.244-45.124c0.592-13.347,6.803-20.479,14.664-29.502c7.494-8.605,16.823-19.313,23.348-39.15
						c3.725-11.319,8.361-25.409,4.787-42.279c-2.075-9.79-5.906-15.329-9.287-20.217c-3.54-5.121-6.596-9.542-6.011-17.125
						c0.935-12.151,7.423-19.91,14.938-28.895c4.556-5.45,9.268-11.083,13.399-18.401c11.616-20.57,11.923-48.264,0.917-82.311
						c-0.095-0.294,0.067-0.611,0.361-0.707c0.295-0.096,0.611,0.067,0.707,0.362c11.107,34.357,10.769,62.353-1.007,83.209
						c-4.183,7.406-8.927,13.081-13.515,18.568c-7.391,8.836-13.772,16.469-14.68,28.26c-0.554,7.187,2.256,11.253,5.816,16.4
						c3.44,4.975,7.339,10.613,9.46,20.624c3.637,17.165-1.052,31.415-4.818,42.863c-6.598,20.051-16.008,30.856-23.568,39.537
						c-7.717,8.861-13.813,15.858-14.389,28.813c-0.764,17.161,8.797,31.025,18.045,44.435
						c9.769,14.165,22.421,25.869,37.605,34.788c0.268,0.155,0.357,0.5,0.201,0.768
						C191.722,402.071,191.534,402.169,191.343,402.169z"/>
				</g>
				<g opacity="0.7">
					<path fill="#FFFFFF" d="M179.347,219.503c-0.155,0-0.309-0.063-0.418-0.187c-0.207-0.232-0.188-0.586,0.043-0.794
						c25.974-23.207,38.177-44.737,43.841-58.712c6.135-15.138,6.132-24.914,6.13-25.011c-0.003-0.31,0.248-0.564,0.557-0.567
						c0.001,0,0.003,0,0.005,0c0.308,0,0.558,0.249,0.561,0.557c0.003,0.404,0.015,10.045-6.184,25.368
						c-5.703,14.103-17.995,35.822-44.161,59.203C179.613,219.458,179.479,219.503,179.347,219.503z"/>
				</g>
				<g opacity="0.7">
					<path fill="#FFFFFF" d="M166.853,269.683c-0.126,0-0.25-0.04-0.355-0.125c-14.5-11.848-25.521-25.283-32.765-39.937
						c-5.797-11.73-9.197-24.261-10.106-37.243c-1.546-22.107,4.774-38.093,4.838-38.251c0.116-0.288,0.443-0.427,0.73-0.311
						c0.288,0.116,0.426,0.443,0.312,0.73c-0.064,0.157-6.298,15.944-4.757,37.807c1.421,20.16,9.941,49.768,42.459,76.336
						c0.241,0.193,0.275,0.548,0.079,0.787C167.177,269.613,167.015,269.683,166.853,269.683z"/>
				</g>
				<g opacity="0.7">
					<path fill="#FFFFFF" d="M143.125,352.587c-0.244,0-0.468-0.158-0.539-0.4c-0.087-0.301,0.082-0.614,0.38-0.699
						c38.297-11.235,58.27-31.651,68.279-46.798c10.829-16.391,12.643-30.268,12.659-30.407c0.038-0.306,0.321-0.524,0.626-0.488
						c0.307,0.039,0.525,0.318,0.487,0.628c-0.018,0.14-1.863,14.278-12.835,30.884c-10.113,15.305-30.276,35.928-68.899,47.26
						C143.23,352.581,143.176,352.587,143.125,352.587z"/>
				</g>
				<g opacity="0.7">
					<path fill="#FFFFFF" d="M192.464,123.225c-0.152,0-0.303-0.061-0.413-0.18c-21.906-23.752-24.571-48.537-22.953-65.144
						c1.755-17.99,8.792-30.544,8.863-30.668c0.152-0.27,0.497-0.364,0.764-0.211c0.271,0.154,0.364,0.497,0.212,0.766
						c-0.07,0.124-7.004,12.505-8.726,30.269c-1.587,16.368,1.056,40.796,22.665,64.228c0.209,0.228,0.196,0.582-0.032,0.793
						C192.736,123.176,192.6,123.225,192.464,123.225z"/>
				</g>
			</g>
		</g>
	</g>
	<g>
		<g>
			<g>
				<defs>
					<path id="SVGID_4_" d="M172.625,464.731c4.146,0.588,13.686-1.789,15.917-3.435c14.85-10.945,43.984-29.633,48.063-48.705
						c0.695-3.256-12.806-10.189-14.001-13.684c-7.536-6.509-10.555-8.3-14.678-18.005c-12.178-28.657,42.581-61.033-2.669-90.221
						c-33.145-21.381-67.241-17.346-47.786-72.592c19.457-55.248,3.134-170.221-67.191-147.353
						c-40.36,13.124-18.936,70.59-46.254,101.07c-25.96,28.964-19.359,60.533,10.742,90.529
						c30.101,29.995,6.772,40.225-12.402,69.266c-23.034,34.886,34.044,57.956,61.306,66.359
						C125.622,404.729,176.955,436.77,172.625,464.731z"/>
				</defs>
				<linearGradient id="SVGID_5_" gradientUnits="userSpaceOnUse" x1="107.8247" y1="149.8008" x2="131.7558" y2="340.3286">
					<stop  offset="0.0036" style="stop-color:#6165D7"/>
					<stop  offset="1" style="stop-color:#AA80F9"/>
				</linearGradient>
				<use xlink:href="#SVGID_4_"  overflow="visible" fill="url(#SVGID_5_)"/>
				<clipPath id="SVGID_6_">
					<use xlink:href="#SVGID_4_"  overflow="visible"/>
				</clipPath>
				<g opacity="0.7" clip-path="url(#SVGID_6_)">
					<g>
						<path fill="#FCFDFE" d="M211.626,438.424l0.589-0.669C109.338,347,71.456,205.041,110.877,58.017l-0.86-0.231
							c-18.683,69.678-19.971,140.937-3.725,206.075C123.374,332.341,159.798,392.7,211.626,438.424z"/>
						<path fill="#FCFDFE" d="M31.127,345.004c37.481-1.785,95.047,13.78,128.326,34.701l0.473-0.756
							c-33.41-21.001-91.208-36.627-128.842-34.833L31.127,345.004z"/>
						<path fill="#FCFDFE" d="M191.635,420.376l0.752-0.479c-10.976-17.233-12.818-39.354-5.474-65.746
							c5.384-19.353,15.489-40.507,30.037-62.879l-0.747-0.486c-14.597,22.448-24.74,43.687-30.149,63.128
							C178.64,380.559,180.519,402.919,191.635,420.376z"/>
						<path fill="#FCFDFE" d="M104.347,254.525l0.774-0.439c-19.017-33.548-55.528-51.199-82.807-60.099l-0.277,0.847
							C49.167,203.685,85.47,221.225,104.347,254.525z"/>
						<path fill="#FCFDFE" d="M94.851,166.759l0.874,0.175c8.506-42.604,42.701-72.772,62.328-86.965l-0.522-0.723
							C137.798,93.516,103.417,123.858,94.851,166.759z"/>
					</g>
				</g>
			</g>
		</g>
	</g>
	<g>
		<g>
			<linearGradient id="SVGID_7_" gradientUnits="userSpaceOnUse" x1="222.0654" y1="454.835" x2="191.0679" y2="467.8539">
				<stop  offset="0" style="stop-color:#40447E"/>
				<stop  offset="0.9964" style="stop-color:#3C3B6B"/>
			</linearGradient>
			<path fill="url(#SVGID_7_)" d="M476.938,437.874l-441.259-3.842v11.371c0,3.085,1.924,5.71,4.531,6.177l124.775,22.392
				c1.48,0.267,2.982,0.338,4.478,0.21l302.681-25.531c2.702-0.227,4.795-2.858,4.795-6.03V437.874z"/>
			<g>
				<linearGradient id="SVGID_8_" gradientUnits="userSpaceOnUse" x1="180.6743" y1="318.2188" x2="147.0339" y2="332.3477">
					<stop  offset="0" style="stop-color:#40447E"/>
					<stop  offset="0.9964" style="stop-color:#3C3B6B"/>
				</linearGradient>
				<path fill="url(#SVGID_8_)" d="M334.891,419.439L40.536,440.242c-5.269,0.373-9.55-3.582-9.55-8.835V220.978
					c0-5.254,4.281-9.511,9.55-9.511h294.355c4.34,0,7.851,3.85,7.851,8.597v190.227
					C342.741,415.038,339.23,419.133,334.891,419.439z"/>
				<linearGradient id="SVGID_9_" gradientUnits="userSpaceOnUse" x1="35.6792" y1="325.8672" x2="347.4346" y2="325.8672">
					<stop  offset="0" style="stop-color:#40447E"/>
					<stop  offset="0.9964" style="stop-color:#3C3B6B"/>
				</linearGradient>
				<path fill="url(#SVGID_9_)" d="M339.585,419.439L45.229,440.242c-5.269,0.373-9.55-3.582-9.55-8.835V220.978
					c0-5.254,4.282-9.511,9.55-9.511h294.355c4.341,0,7.85,3.85,7.85,8.597v190.227
					C347.435,415.038,343.926,419.133,339.585,419.439z"/>
				<linearGradient id="SVGID_10_" gradientUnits="userSpaceOnUse" x1="232.6226" y1="250.3057" x2="-6.3072" y2="640.9041">
					<stop  offset="0" style="stop-color:#FFC444"/>
					<stop  offset="0.9964" style="stop-color:#F36F56"/>
				</linearGradient>
				<path fill="url(#SVGID_10_)" d="M330.415,406.03L56.252,424.099c-4.285,0.282-7.768-2.961-7.768-7.25V232.615
					c0-4.287,3.483-7.778,7.768-7.796l274.163-1.135c3.578-0.014,6.477,3.14,6.477,7.044v167.805
					C336.892,402.437,333.993,405.795,330.415,406.03z"/>
				<path fill="#FFFFFF" d="M202.804,217.224c0,1.955-1.515,3.545-3.387,3.55c-1.874,0.006-3.394-1.579-3.394-3.539
					c0-1.959,1.521-3.55,3.394-3.55C201.289,213.684,202.804,215.269,202.804,217.224z"/>
				<path opacity="0.48" fill="#FFFFFF" d="M268.665,361.728c-22.693-12.209-40.535,3.262-57.755-12.002
					c-10.439-9.257-5.314-16.157-18.16-29.986c-14.228-15.316-23.492-10.169-37.79-23.953c-18.081-17.433-9.037-30.993-24.611-43.51
					c-18.892-15.181-39.267-1.13-57.251-15.69c-7.757-6.279-12.012-15.411-14.236-25.119H41.268c-3.086,0-5.588,2.499-5.588,5.583
					v218.128c0,3.083,2.502,5.404,5.588,5.187l299.998-21.294c1.471-0.105,2.776-0.965,3.613-2.211
					c-21.96-0.801-35.449-8.163-44.076-15.771C283.931,386.197,286.856,371.518,268.665,361.728z"/>
			</g>
			<linearGradient id="SVGID_11_" gradientUnits="userSpaceOnUse" x1="35.6792" y1="441.1523" x2="476.9385" y2="441.1523">
				<stop  offset="0" style="stop-color:#40447E"/>
				<stop  offset="0.9964" style="stop-color:#3C3B6B"/>
			</linearGradient>
			<path fill="url(#SVGID_11_)" d="M332.242,418.498L35.679,440.394l129.306,23.204c1.48,0.268,2.982,0.338,4.478,0.21
				l307.476-25.934L336.96,418.647C335.391,418.432,333.813,418.38,332.242,418.498z"/>
			<linearGradient id="SVGID_12_" gradientUnits="userSpaceOnUse" x1="78.9512" y1="437.5381" x2="402.2598" y2="437.5381">
				<stop  offset="0" style="stop-color:#40447E"/>
				<stop  offset="0.9964" style="stop-color:#3C3B6B"/>
			</linearGradient>
			<polygon opacity="0.3" fill="url(#SVGID_12_)" points="78.951,440.942 325.849,422.444 402.26,432.854 157.491,452.632 			"/>
		</g>
		<g>
			<path fill="#FFFFFF" d="M324.711,108.862v284.701c0,7.297-5.775,13.343-13.24,13.823l-2.404,0.151L66.961,422.444
				c6.226-0.995,10.716-6.244,10.716-12.398V104.698l165.507,2.789L324.711,108.862z"/>
		</g>
		<g>
			<polygon fill="#D8DEE8" points="298.958,202.514 109.364,204.197 109.364,171.049 298.958,170.999 			"/>
			<g>
				<polygon fill="#D8DEE8" points="246.854,230.145 121.329,232.179 121.329,213.455 246.854,212.033 				"/>
				<g>
					<polygon fill="#D8DEE8" points="288.075,229.476 257.231,229.977 257.231,211.914 288.075,211.565 					"/>
				</g>
			</g>
			<g>
				<polygon fill="#D8DEE8" points="198.783,256.285 121.329,258.063 121.329,239.339 198.783,237.94 				"/>
				<g>
					<polygon fill="#D8DEE8" points="288.075,254.236 257.231,254.943 257.231,236.882 288.075,236.325 					"/>
				</g>
			</g>
			<g>
				<polygon fill="#D8DEE8" points="219.396,281.037 121.329,283.948 121.329,265.224 219.396,262.79 				"/>
				<g>
					<polygon fill="#D8DEE8" points="288.075,278.996 257.231,279.912 257.231,261.852 288.075,261.087 					"/>
				</g>
			</g>
			<g>
				<polygon fill="#D8DEE8" points="164.166,308.271 121.329,309.835 121.329,291.11 164.166,289.755 				"/>
				<g>
					<polygon fill="#D8DEE8" points="288.075,303.755 257.231,304.88 257.231,286.819 288.075,285.846 					"/>
				</g>
			</g>
			<g>
				<path fill="#D8DEE8" d="M109.364,195.359v149.955l95.085-4.328l94.509-4.305V194.107L109.364,195.359z M293.68,331.659
					l-91.217,4.026l-87.277,3.851V200.833l178.494-1.431V331.659z"/>
			</g>
			<g>
				<path fill="#D8DEE8" d="M199.169,352.859l-86.779,4.224c-1.672,0.08-3.026,1.431-3.026,3.017v21.332
					c0,1.585,1.354,2.791,3.026,2.699l86.779-4.83c1.595-0.092,2.885-1.417,2.885-2.964V355.52
					C202.055,353.973,200.764,352.782,199.169,352.859z"/>
				<path fill="#D8DEE8" d="M296.218,348.138l-82.306,4.006c-1.583,0.077-2.868,1.39-2.868,2.931v20.771
					c0,1.542,1.284,2.723,2.868,2.634l82.306-4.583c1.514-0.085,2.74-1.374,2.74-2.88v-20.281
					C298.958,349.226,297.731,348.065,296.218,348.138z"/>
			</g>
			<polygon fill="#D8DEE8" points="298.958,159.574 109.364,158.565 109.364,136.589 298.958,137.782 			"/>
		</g>
	</g>
	<g opacity="0.7">
		<path fill="#D8DEE8" d="M324.711,101.015v61.809l-38.04-0.119l-7.207,8.299l-10.63,12.216c-0.539,0.619-1.197,0.961-1.882,1.084
			l-0.06,0.061c-3.038,3.43-6.747,1.915-6.747-1.19v-20.711l-4.93-0.045c-3.027-0.027-5.784-1.201-7.878-3.122
			c-2.481-2.241-4.035-5.525-4.035-9.163v-50.53L324.711,101.015z"/>
	</g>
	<g>
		<linearGradient id="SVGID_13_" gradientUnits="userSpaceOnUse" x1="77.917" y1="380.7529" x2="96.5781" y2="380.7529">
			<stop  offset="0" style="stop-color:#40447E"/>
			<stop  offset="0.9964" style="stop-color:#3C3B6B"/>
		</linearGradient>
		<polygon opacity="0.1" fill="url(#SVGID_13_)" points="77.917,324.31 78.951,437.196 96.578,436.229 		"/>
		<g>
			
				<linearGradient id="SVGID_14_" gradientUnits="userSpaceOnUse" x1="-462.8599" y1="634.8887" x2="-701.8188" y2="613.0151" gradientTransform="matrix(0.9966 -0.0282 0.1345 0.99 684.4989 -252.7596)">
				<stop  offset="0" style="stop-color:#311944"/>
				<stop  offset="1" style="stop-color:#893976"/>
			</linearGradient>
			<path fill="url(#SVGID_14_)" d="M283.148,429.045c0.412,2.877-1.399,5.378-4.037,5.564l-177.489,12.677
				c-3.213,0.223-7.232-2.438-7.667-5.628L77.917,324.31c-0.432-3.161,2.908-5.984,6.137-5.993l177.788-3.675
				c2.65-0.01,5.146,2.315,5.557,5.169L283.148,429.045z"/>
			
				<linearGradient id="SVGID_15_" gradientUnits="userSpaceOnUse" x1="-673.4614" y1="622.6846" x2="-356.8665" y2="634.4616" gradientTransform="matrix(0.9975 -0.0369 0.1345 0.99 684.602 -260.5683)">
				<stop  offset="0.0036" style="stop-color:#E38DDD"/>
				<stop  offset="1" style="stop-color:#9571F6"/>
			</linearGradient>
			<path fill="url(#SVGID_15_)" d="M286.656,429.193c0.417,2.897-1.41,5.412-4.063,5.597l-179.643,12.505
				c-3.232,0.224-6.242-2.216-6.681-5.422L80.137,323.888c-0.436-3.179,1.872-5.791,5.117-5.803l179.959-3.927
				c2.668-0.011,5.183,2.33,5.594,5.199L286.656,429.193z"/>
			<g opacity="0.7">
				<path fill="#F4F7FA" d="M148.214,406.211l-30.647,1.295c-1.383,0.062-2.737-0.94-3.007-2.22l-1.486-7.021
					c-0.271-1.284,0.643-2.372,2.029-2.422l30.732-1.101c1.337-0.047,2.643,0.942,2.904,2.198l1.427,6.887
					C150.426,405.082,149.548,406.154,148.214,406.211z"/>
				<path fill="#F4F7FA" d="M187.603,404.541l-29.283,1.239c-1.322,0.059-2.615-0.921-2.874-2.171l-1.418-6.865
					c-0.259-1.252,0.613-2.317,1.938-2.365l29.364-1.051c1.278-0.045,2.527,0.925,2.776,2.152l1.364,6.731
					C189.718,403.44,188.879,404.488,187.603,404.541z"/>
				<path fill="#F4F7FA" d="M225.277,402.95l-28.014,1.186c-1.262,0.051-2.499-0.907-2.746-2.13l-1.357-6.713
					c-0.247-1.226,0.588-2.266,1.853-2.313l28.087-1.003c1.222-0.045,2.418,0.902,2.655,2.106l1.307,6.588
					C227.3,401.873,226.497,402.896,225.277,402.95z"/>
				<path fill="#F4F7FA" d="M261.344,401.422l-26.823,1.134c-1.208,0.051-2.391-0.887-2.627-2.082l-1.297-6.568
					c-0.238-1.199,0.561-2.219,1.772-2.261l26.89-0.964c1.173-0.039,2.315,0.889,2.545,2.065l1.251,6.447
					C263.281,400.37,262.513,401.372,261.344,401.422z"/>
			</g>
			<g>
				
					<linearGradient id="SVGID_16_" gradientUnits="userSpaceOnUse" x1="-697.0498" y1="581.1641" x2="-587.873" y2="643.0556" gradientTransform="matrix(0.9975 -0.0369 0.1345 0.99 684.602 -260.5683)">
					<stop  offset="0" style="stop-color:#F57E53"/>
					<stop  offset="0.0045" style="stop-color:#F58152"/>
					<stop  offset="0.042" style="stop-color:#F99A4D"/>
					<stop  offset="0.084" style="stop-color:#FCAD49"/>
					<stop  offset="0.1333" style="stop-color:#FEBA46"/>
					<stop  offset="0.1962" style="stop-color:#FFC244"/>
					<stop  offset="0.3183" style="stop-color:#FFC444"/>
					<stop  offset="0.455" style="stop-color:#FDB946"/>
					<stop  offset="0.6941" style="stop-color:#F99C4C"/>
					<stop  offset="0.9964" style="stop-color:#F36F56"/>
				</linearGradient>
				<path fill="url(#SVGID_16_)" d="M129.624,378.193l-14.626,0.509c-2.677,0.092-5.173-2.013-5.54-4.681l-2-14.537
					c-0.365-2.66,1.533-4.89,4.212-4.948l14.638-0.323c2.631-0.058,5.078,2.046,5.44,4.677l1.986,14.352
					C134.101,375.875,132.253,378.104,129.624,378.193z"/>
				
					<linearGradient id="SVGID_17_" gradientUnits="userSpaceOnUse" x1="-658.5063" y1="606.9746" x2="-636.9302" y2="606.9746" gradientTransform="matrix(0.9966 -0.0282 0.1345 0.99 684.4989 -252.7596)">
					<stop  offset="0" style="stop-color:#FF9085"/>
					<stop  offset="1" style="stop-color:#FB6FBB"/>
				</linearGradient>
				<path fill="url(#SVGID_17_)" d="M128.408,376.843l-12.564,0.426c-2.474,0.085-4.768-1.853-5.108-4.318l-1.716-12.478
					c-0.338-2.462,1.405-4.51,3.881-4.566l12.573-0.287c2.438-0.057,4.691,1.881,5.029,4.317l1.706,12.335
					C132.546,374.714,130.843,376.762,128.408,376.843z M112.987,356.526c-2.132,0.048-3.632,1.81-3.342,3.932l1.716,12.474
					c0.292,2.121,2.268,3.792,4.398,3.718l12.563-0.421c2.099-0.071,3.566-1.838,3.275-3.936l-1.708-12.344
					c-0.29-2.097-2.23-3.765-4.33-3.717L112.987,356.526z"/>
				<g>
					<g>
						<path fill="#F4F7FA" d="M109.546,362.013l20.862-0.543L109.546,362.013z"/>
						
							<linearGradient id="SVGID_18_" gradientUnits="userSpaceOnUse" x1="-657.9868" y1="604.458" x2="-637.1016" y2="604.458" gradientTransform="matrix(0.9975 -0.0369 0.1345 0.99 684.602 -260.5683)">
							<stop  offset="0" style="stop-color:#FF9085"/>
							<stop  offset="1" style="stop-color:#FB6FBB"/>
						</linearGradient>
						<polygon fill="url(#SVGID_18_)" points="130.451,361.778 109.588,362.322 109.502,361.701 130.366,361.165 						"/>
					</g>
					<g>
						<path fill="#F4F7FA" d="M110.191,366.703l20.859-0.592L110.191,366.703z"/>
						
							<linearGradient id="SVGID_19_" gradientUnits="userSpaceOnUse" x1="-657.978" y1="609.1699" x2="-637.0903" y2="609.1699" gradientTransform="matrix(0.9975 -0.0369 0.1345 0.99 684.602 -260.5683)">
							<stop  offset="0" style="stop-color:#FF9085"/>
							<stop  offset="1" style="stop-color:#FB6FBB"/>
						</linearGradient>
						<polygon fill="url(#SVGID_19_)" points="131.092,366.417 110.233,367.014 110.148,366.394 131.007,365.803 						"/>
					</g>
					<g>
						<path fill="#F4F7FA" d="M110.837,371.394l20.855-0.641L110.837,371.394z"/>
						
							<linearGradient id="SVGID_20_" gradientUnits="userSpaceOnUse" x1="-657.9702" y1="613.8848" x2="-637.0781" y2="613.8848" gradientTransform="matrix(0.9975 -0.0369 0.1345 0.99 684.602 -260.5683)">
							<stop  offset="0" style="stop-color:#FF9085"/>
							<stop  offset="1" style="stop-color:#FB6FBB"/>
						</linearGradient>
						<polygon fill="url(#SVGID_20_)" points="131.735,371.06 110.879,371.703 110.794,371.083 131.65,370.446 						"/>
					</g>
				</g>
				<g>
					<path fill="#FEC045" d="M124.705,374.413l-5.827,0.19c-1.483,0.049-2.867-1.123-3.072-2.604l-1.498-10.868
						c-0.204-1.479,0.847-2.72,2.333-2.757l5.831-0.141c1.474-0.035,2.843,1.139,3.047,2.612l1.492,10.803
						C127.214,373.122,126.177,374.367,124.705,374.413z"/>
					
						<linearGradient id="SVGID_21_" gradientUnits="userSpaceOnUse" x1="-653.623" y1="606.9727" x2="-641.7319" y2="606.9727" gradientTransform="matrix(0.9966 -0.0282 0.1345 0.99 684.4989 -252.7596)">
						<stop  offset="0" style="stop-color:#FF9085"/>
						<stop  offset="1" style="stop-color:#FB6FBB"/>
					</linearGradient>
					<path fill="url(#SVGID_21_)" d="M124.747,374.723l-5.827,0.19c-1.659,0.055-3.198-1.247-3.426-2.901l-1.497-10.873
						c-0.227-1.654,0.94-3.03,2.601-3.071l5.832-0.141c1.646-0.04,3.17,1.267,3.396,2.912l1.494,10.802
						C127.545,373.285,126.393,374.667,124.747,374.723z M116.683,358.687c-1.318,0.03-2.245,1.124-2.064,2.437l1.498,10.866
						c0.18,1.314,1.401,2.347,2.717,2.308l5.827-0.19c1.309-0.041,2.224-1.14,2.043-2.447l-1.493-10.807
						c-0.18-1.306-1.39-2.341-2.699-2.307L116.683,358.687z"/>
				</g>
			</g>
			
				<linearGradient id="SVGID_22_" gradientUnits="userSpaceOnUse" x1="-672.4038" y1="663.2842" x2="-360.2004" y2="674.8979" gradientTransform="matrix(0.9975 -0.0369 0.1345 0.99 684.602 -260.5683)">
				<stop  offset="0" style="stop-color:#FB6FBB"/>
				<stop  offset="1" style="stop-color:#FF9085"/>
			</linearGradient>
			<path opacity="0.15" fill="url(#SVGID_22_)" d="M160.83,413.793c-15.035,2.658-24.836,3.321-36.478,0.288
				c-16.137-4.207-27.914-13.443-34.563-19.599l6.481,47.391c0.439,3.206,3.449,5.646,6.681,5.422l179.643-12.505
				c2.652-0.185,4.479-2.699,4.063-5.597l-2.512-17.492c-27.832-15.18-48.421-16.229-62.401-14.135
				C204.673,400.122,195.94,407.589,160.83,413.793z"/>
			<g opacity="0.42">
				
					<linearGradient id="SVGID_23_" gradientUnits="userSpaceOnUse" x1="-659.936" y1="665.8506" x2="-614.9028" y2="665.8506" gradientTransform="matrix(0.9966 -0.0282 0.1345 0.99 684.4989 -252.7596)">
					<stop  offset="0" style="stop-color:#FB6FBB"/>
					<stop  offset="1" style="stop-color:#FF9085"/>
				</linearGradient>
				<path fill="url(#SVGID_23_)" d="M160.38,427.807l-41.8,2.564c-0.808,0.049-1.559-0.567-1.67-1.375l-0.914-6.645
					c-0.112-0.809,0.459-1.503,1.267-1.55l41.815-2.359c0.771-0.042,1.493,0.565,1.603,1.355l0.903,6.488
					C161.694,427.074,161.154,427.757,160.38,427.807z"/>
				
					<linearGradient id="SVGID_24_" gradientUnits="userSpaceOnUse" x1="-593.4463" y1="663.8047" x2="-537.2925" y2="663.8047" gradientTransform="matrix(0.9966 -0.0282 0.1345 0.99 684.4989 -252.7596)">
					<stop  offset="0" style="stop-color:#FB6FBB"/>
					<stop  offset="1" style="stop-color:#FF9085"/>
				</linearGradient>
				<path fill="url(#SVGID_24_)" d="M237.495,423.263l-52.971,3.249c-0.769,0.046-1.491-0.557-1.601-1.345l-0.906-6.484
					c-0.109-0.785,0.43-1.465,1.199-1.509l52.991-2.988c0.726-0.041,1.408,0.551,1.517,1.313l0.893,6.291
					C238.726,422.557,238.221,423.219,237.495,423.263z"/>
			</g>
			
				<linearGradient id="SVGID_25_" gradientUnits="userSpaceOnUse" x1="-594.6143" y1="571.7734" x2="-565.4761" y2="571.7734" gradientTransform="matrix(0.9739 -0.1443 0.2507 0.9798 664.4088 -298.3441)">
				<stop  offset="0" style="stop-color:#FF9085"/>
				<stop  offset="1" style="stop-color:#FB6FBB"/>
			</linearGradient>
			<path opacity="0.26" fill="url(#SVGID_25_)" d="M257.355,345.057c1.09,7.625-4.566,14.023-12.602,14.281
				c-8.007,0.259-15.344-5.677-16.419-13.248c-1.073-7.567,4.51-13.953,12.5-14.264
				C248.857,331.515,256.266,337.437,257.355,345.057z"/>
			<g opacity="0.53">
				<path fill="#F4F7FA" d="M142.126,367.017c-0.832,0.935-2.393,0.996-3.489,0.133c-1.101-0.869-1.304-2.338-0.456-3.27
					c0.846-0.929,2.409-0.968,3.492-0.099C142.75,364.649,142.953,366.096,142.126,367.017z"/>
				<g>
					<path fill="#F4F7FA" d="M151.065,375.771c-0.229,0.015-0.472-0.057-0.671-0.215c-0.4-0.314-0.475-0.863-0.171-1.223
						c4.5-5.277,3.365-13.38-2.563-18.316c-0.401-0.336-0.478-0.881-0.169-1.221c0.305-0.337,0.878-0.339,1.278-0.006
						c6.663,5.589,7.942,14.716,2.896,20.688C151.512,375.658,151.295,375.754,151.065,375.771z"/>
					<path fill="#F4F7FA" d="M148.164,373.473c-0.235,0.014-0.479-0.059-0.681-0.22c-0.405-0.321-0.483-0.872-0.171-1.229
						c3.366-3.893,2.526-9.895-1.893-13.532c-0.406-0.333-0.483-0.886-0.172-1.229c0.312-0.342,0.892-0.348,1.297-0.014
						c5.178,4.288,6.166,11.347,2.228,15.935C148.62,373.36,148.397,373.459,148.164,373.473z"/>
					<path fill="#F4F7FA" d="M145.222,371.143c-0.238,0.01-0.487-0.063-0.692-0.226c-0.41-0.324-0.488-0.88-0.172-1.238
						c2.187-2.487,1.645-6.353-1.212-8.671c-0.412-0.336-0.489-0.894-0.172-1.24c0.314-0.347,0.905-0.355,1.313-0.021
						c1.774,1.448,2.904,3.39,3.196,5.476c0.291,2.085-0.29,4.082-1.644,5.631C145.684,371.031,145.458,371.131,145.222,371.143z"/>
				</g>
			</g>
		</g>
	</g>
	<g>
		<linearGradient id="SVGID_26_" gradientUnits="userSpaceOnUse" x1="209.3096" y1="224.9404" x2="598.0735" y2="-274.3536">
			<stop  offset="0" style="stop-color:#AB316D"/>
			<stop  offset="1" style="stop-color:#792D3D"/>
		</linearGradient>
		<path fill="url(#SVGID_26_)" d="M348.89,55.781l-90.04-5.519c-6.611-0.341-11.996,4.827-11.996,11.546v84.114
			c0,6.719,5.384,12.216,11.996,12.28l5.009,0.046v20.714c0,3.104,3.681,4.619,6.719,1.187l18.835-21.661l59.478,0.182
			c5.562,0.053,10.053-4.869,10.053-10.992V67.388C358.942,61.264,354.451,56.069,348.89,55.781z"/>
		<linearGradient id="SVGID_27_" gradientUnits="userSpaceOnUse" x1="246.1768" y1="179.062" x2="316.5963" y2="88.6213">
			<stop  offset="0" style="stop-color:#FCB148"/>
			<stop  offset="0.0521" style="stop-color:#FDBA46"/>
			<stop  offset="0.1424" style="stop-color:#FFC244"/>
			<stop  offset="0.3183" style="stop-color:#FFC444"/>
			<stop  offset="0.4849" style="stop-color:#FDB946"/>
			<stop  offset="0.7754" style="stop-color:#F99C4D"/>
			<stop  offset="0.8658" style="stop-color:#F8924F"/>
			<stop  offset="1" style="stop-color:#F8924F"/>
		</linearGradient>
		<path fill="url(#SVGID_27_)" d="M351.743,156.477l-90.041-0.469c-6.61-0.063-11.994-5.559-11.994-12.278V59.615
			c0-6.72,5.384-11.887,11.994-11.548l90.041,5.521c5.563,0.286,10.054,5.481,10.054,11.604v80.292
			C361.797,151.607,357.307,156.53,351.743,156.477z"/>
		<linearGradient id="SVGID_28_" gradientUnits="userSpaceOnUse" x1="322.9688" y1="147.5747" x2="277.3842" y2="31.6313">
			<stop  offset="0" style="stop-color:#FCB148"/>
			<stop  offset="0.0521" style="stop-color:#FDBA46"/>
			<stop  offset="0.1424" style="stop-color:#FFC244"/>
			<stop  offset="0.3183" style="stop-color:#FFC444"/>
			<stop  offset="0.4849" style="stop-color:#FDB946"/>
			<stop  offset="0.7754" style="stop-color:#F99C4D"/>
			<stop  offset="0.8658" style="stop-color:#F8924F"/>
			<stop  offset="1" style="stop-color:#F8924F"/>
		</linearGradient>
		<path fill="url(#SVGID_28_)" d="M253.135,145.993V57.56c0-3.576,2.864-6.331,6.39-6.152l94.059,5.443
			c2.964,0.15,5.359,2.918,5.359,6.186v84.432c0,3.268-2.396,5.891-5.359,5.857l-94.059-0.79
			C255.999,152.499,253.135,149.57,253.135,145.993z"/>
		<g>
			<path fill="#FFFFFF" d="M341.136,69.959c0.525,0.024,0.949,0.487,0.949,1.034v66.994c0,0.546-0.424,0.984-0.949,0.976
				l-65.729-1.093c-0.55-0.007-0.996-0.472-0.996-1.035v-68.82c0-0.562,0.446-1,0.996-0.976L341.136,69.959L341.136,69.959z
				 M341.136,66.159l-65.729-3.018c-2.666-0.123-4.83,1.982-4.83,4.706v68.922c0,2.723,2.164,4.96,4.83,5.001l65.729,0.989
				c2.529,0.039,4.57-2.071,4.57-4.713V71.152C345.706,68.51,343.665,66.276,341.136,66.159L341.136,66.159z"/>
		</g>
		<linearGradient id="SVGID_29_" gradientUnits="userSpaceOnUse" x1="252.2744" y1="189.2427" x2="350.9702" y2="62.4866">
			<stop  offset="0" style="stop-color:#FCB148"/>
			<stop  offset="0.0521" style="stop-color:#FDBA46"/>
			<stop  offset="0.1424" style="stop-color:#FFC244"/>
			<stop  offset="0.3183" style="stop-color:#FFC444"/>
			<stop  offset="0.4849" style="stop-color:#FDB946"/>
			<stop  offset="0.7754" style="stop-color:#F99C4D"/>
			<stop  offset="0.8658" style="stop-color:#F8924F"/>
			<stop  offset="1" style="stop-color:#F8924F"/>
		</linearGradient>
		<path fill="url(#SVGID_29_)" d="M266.712,176.768v-24.974l29.19,0.325l-23.4,26.889
			C270.485,181.327,266.712,179.874,266.712,176.768z"/>
	</g>
	<path fill="#FFFFFF" d="M320.385,92.066c0.578,0.021,1.063-0.43,1.084-1.007l0.13-3.483c0.021-0.577-0.429-1.063-1.006-1.084
		l-25.78-0.959c-0.577-0.021-1.063,0.43-1.083,1.007l-0.146,3.897c-0.021,0.577,0.429,1.063,1.007,1.084l7.427,0.276
		c2.378,0.088,4.171,1.024,5.223,2.571l-12.738-0.474c-0.577-0.021-1.063,0.429-1.084,1.006l-0.129,3.484
		c-0.021,0.577,0.428,1.063,1.006,1.084l13.827,0.514c-0.658,3.123-3.061,5-6.701,4.864l-7.316-0.271
		c-0.577-0.021-1.062,0.429-1.083,1.006l-0.172,4.617c-0.011,0.292,0.101,0.575,0.308,0.78l13.882,13.804
		c0.187,0.186,0.436,0.294,0.698,0.304l7.19,0.268c0.951,0.035,1.451-1.116,0.776-1.787l-12.69-12.619
		c6.671,0.044,11.595-4.225,12.461-10.692l4.6,0.171c0.577,0.021,1.063-0.429,1.084-1.006l0.129-3.484
		c0.021-0.577-0.428-1.063-1.006-1.084l-5.111-0.19c-0.266-1.017-0.648-1.964-1.138-2.833L320.385,92.066z"/>
</g>
</svg>
