<?xml version="1.0" encoding="utf-8"?>
<!-- Generator: Adobe Illustrator 16.0.0, SVG Export Plug-In . SVG Version: 6.00 Build 0)  -->
<!DOCTYPE svg PUBLIC "-//W3C//DTD SVG 1.1//EN" "http://www.w3.org/Graphics/SVG/1.1/DTD/svg11.dtd">
<svg version="1.1" id="Layer_1" xmlns="http://www.w3.org/2000/svg" xmlns:xlink="http://www.w3.org/1999/xlink" x="0px" y="0px"
	 width="500px" height="500px" viewBox="0 0 500 500" enable-background="new 0 0 500 500" xml:space="preserve">
<linearGradient id="SVGID_1_" gradientUnits="userSpaceOnUse" x1="-1765.6069" y1="233.9463" x2="-1279.0967" y2="233.9463" gradientTransform="matrix(-1 0 0 1 -1272.3516 0)">
	<stop  offset="0" style="stop-color:#DAE3FE"/>
	<stop  offset="1" style="stop-color:#E9EFFD"/>
</linearGradient>
<path fill="url(#SVGID_1_)" d="M366.523,92.636c28.581,33.207,127.768-3.684,126.724,57.54
	c-1.222,71.688-42.989,107.541-20.147,162.435c21.309,51.203-50.282,87.59-177.126,86.527
	c-126.842-1.063-330.895-64.299-281.735-132.979c49.16-68.681,16.406-72.204,14.008-102.557
	c-2.398-30.354,22.472-96.934,120.711-41.411C247.196,177.714,294.146,8.546,366.523,92.636z"/>
<g>
	<circle fill="#91B3FA" cx="347.97" cy="144.87" r="19.73"/>
	<circle fill="#91B3FA" cx="397.006" cy="144.87" r="19.731"/>
	<circle fill="#91B3FA" cx="446.044" cy="145.516" r="19.731"/>
	<g>
		<linearGradient id="SVGID_2_" gradientUnits="userSpaceOnUse" x1="389.2363" y1="71.9839" x2="352.0955" y2="138.162">
			<stop  offset="0" style="stop-color:#FE7062"/>
			<stop  offset="1" style="stop-color:#FF928E"/>
		</linearGradient>
		<path fill="url(#SVGID_2_)" d="M359.694,140.7c0.61,1.485,0.948,3.11,0.948,4.816c0,7-5.674,12.674-12.673,12.674
			s-12.674-5.674-12.674-12.674s5.675-12.674,12.674-12.674c0.214,0,0.427,0.006,0.639,0.017v-3.213
			c-0.212-0.008-0.425-0.014-0.639-0.014c-8.772,0-15.885,7.111-15.885,15.884c0,8.772,7.112,15.884,15.885,15.884
			s15.884-7.111,15.884-15.884c0-2.16-0.433-4.219-1.213-6.097L359.694,140.7z"/>
		<linearGradient id="SVGID_3_" gradientUnits="userSpaceOnUse" x1="416.0898" y1="114.2549" x2="358.0146" y2="204.0688">
			<stop  offset="0" style="stop-color:#FE7062"/>
			<stop  offset="1" style="stop-color:#FF928E"/>
		</linearGradient>
		<path fill="url(#SVGID_3_)" d="M403.545,156.239c-1.956,1.234-4.27,1.951-6.753,1.951c-7,0-12.675-5.674-12.675-12.674
			s5.675-12.674,12.675-12.674c0.214,0,0.428,0.006,0.639,0.017v-3.213c-0.212-0.008-0.425-0.014-0.639-0.014
			c-8.773,0-15.885,7.111-15.885,15.884c0,8.772,7.111,15.884,15.885,15.884c3.062,0,5.92-0.867,8.345-2.368L403.545,156.239z"/>
		<linearGradient id="SVGID_4_" gradientUnits="userSpaceOnUse" x1="465.5234" y1="101.0723" x2="431.0836" y2="179.4061">
			<stop  offset="0" style="stop-color:#FE7062"/>
			<stop  offset="1" style="stop-color:#FF928E"/>
		</linearGradient>
		<path fill="url(#SVGID_4_)" d="M456.62,152.642c-2.281,3.349-6.124,5.548-10.481,5.548c-6.999,0-12.674-5.674-12.674-12.674
			s5.675-12.674,12.674-12.674c0.215,0,0.428,0.006,0.64,0.017v-3.213c-0.212-0.008-0.425-0.014-0.64-0.014
			c-8.772,0-15.885,7.111-15.885,15.884c0,8.772,7.112,15.884,15.885,15.884c5.428,0,10.219-2.722,13.083-6.875L456.62,152.642z"/>
	</g>
	<g opacity="0.64">
		<path fill="#91B3FA" d="M364.046,172.959h-32.152c-2.02,0-3.654,1.635-3.654,3.654c0,2.018,1.635,3.654,3.654,3.654h32.152
			c2.019,0,3.654-1.636,3.654-3.654C367.7,174.595,366.064,172.959,364.046,172.959z"/>
		<path fill="#91B3FA" d="M413.084,172.959H380.93c-2.018,0-3.654,1.635-3.654,3.654c0,2.018,1.637,3.654,3.654,3.654h32.154
			c2.019,0,3.653-1.636,3.653-3.654C416.737,174.595,415.103,172.959,413.084,172.959z"/>
		<path fill="#91B3FA" d="M429.968,180.268h32.153c2.018,0,3.654-1.636,3.654-3.654c0-2.019-1.637-3.654-3.654-3.654h-32.153
			c-2.019,0-3.654,1.635-3.654,3.654C426.313,178.631,427.949,180.268,429.968,180.268z"/>
		<path fill="#91B3FA" d="M364.046,184.328h-32.152c-2.02,0-3.654,1.636-3.654,3.654v21.52c0,2.019,1.635,3.654,3.654,3.654h32.152
			c2.019,0,3.654-1.636,3.654-3.654v-21.52C367.7,185.964,366.064,184.328,364.046,184.328z"/>
		<path fill="#91B3FA" d="M413.084,184.328H380.93c-2.018,0-3.654,1.636-3.654,3.654v21.52c0,2.019,1.637,3.654,3.654,3.654h32.154
			c2.019,0,3.653-1.636,3.653-3.654v-21.52C416.737,185.964,415.103,184.328,413.084,184.328z"/>
		<path fill="#91B3FA" d="M462.121,184.328h-32.153c-2.019,0-3.654,1.636-3.654,3.654v21.52c0,2.019,1.636,3.654,3.654,3.654h32.153
			c2.018,0,3.654-1.636,3.654-3.654v-21.52C465.775,185.964,464.139,184.328,462.121,184.328z"/>
	</g>
</g>
<g>
	<path fill="#BDD0FB" d="M183.466,348.09c0,0-89.444,15.598-120.938-46.825c-28.793-57.07-29.345-115.832-29.229-125.49
		c0.007-0.605-0.595-1.027-1.161-0.811c-2.795,1.073-9.717,2.109-11.946-12.543c-2.818-18.522-0.479-51.414,8.99-55.836
		c9.469-4.421,12.468,18.622,11.104,38.593c-1.364,19.972-1.759,27.905-1.759,27.905S22.892,367.162,183.466,348.09z"/>
	<path fill="#DCE5FE" d="M29.829,170.477c-0.056,0-0.113-0.007-0.17-0.021c-2.209-0.563-4.15-2.411-5.192-4.943
		c-0.896-2.18-1.081-4.502-1.204-6.89c-0.589-11.451,0.06-22.992,1.929-34.305c0.674-4.082,1.974-9.002,6.076-10.834
		c0.347-0.155,0.754,0,0.909,0.347c0.155,0.347,0,0.753-0.347,0.909c-3.503,1.565-4.662,6.062-5.281,9.803
		c-1.853,11.215-2.496,22.658-1.912,34.01c0.117,2.263,0.289,4.458,1.102,6.437c0.877,2.132,2.469,3.677,4.26,4.132
		c0.368,0.094,0.59,0.469,0.497,0.836C30.416,170.27,30.136,170.477,29.829,170.477z"/>
</g>
<g>
	<path fill="#BDD0FB" d="M56.578,208.746c0,0-8.104-5.984-1.809-26.597c5.537-18.132,11.671-29.478,19.462-26.275
		c7.792,3.202-5.108,40.946-14.776,52.72c0,0-19.087,181.807,125.297,179.311C184.752,387.903,49.276,414.926,56.578,208.746z"/>
	<path fill="#DCE5FE" d="M57.007,201.785c-0.252,0-0.496-0.14-0.616-0.381c-3.707-7.438,2.405-27.75,9.938-39.607
		c0.577-0.91,4.448-4.348,6.093-3.83c1.667,0.525,1.787,2.586,1.383,4.192c-0.953,3.789-2.535,7.356-4.704,10.606
		c-0.21,0.316-0.637,0.401-0.954,0.19c-0.316-0.211-0.401-0.638-0.19-0.954c2.081-3.118,3.6-6.542,4.514-10.178
		c0.225-0.893,0.287-2.309-0.463-2.544c-0.713-0.083-3.909,2.296-4.519,3.256c-8.031,12.643-13.011,31.95-9.867,38.256
		c0.169,0.34,0.031,0.752-0.309,0.922C57.215,201.761,57.11,201.785,57.007,201.785z"/>
</g>
<g opacity="0.91">
	<path fill="#BDD0FB" d="M87.927,129.772c23.792,15.417,158.58,110.789,91.804,253.349c0,0-104.899-39.944-95.507-251.449
		C84.306,129.821,86.372,128.765,87.927,129.772z"/>
	<path fill="#DCE5FE" d="M97.868,156.468c0,0,7.66,11.227,18.467,28.502c1.345,2.163,2.745,4.417,4.195,6.749
		c1.432,2.344,2.913,4.766,4.435,7.256c3.021,4.995,6.191,10.272,9.396,15.775c3.224,5.492,6.482,11.21,9.762,17.039
		c1.619,2.925,3.25,5.875,4.889,8.835c1.602,2.981,3.244,5.955,4.825,8.962c1.58,3.007,3.188,6,4.719,9.02
		c0.773,1.505,1.544,3.006,2.313,4.506c0.767,1.498,1.504,3.007,2.253,4.502c0.745,1.498,1.487,2.989,2.225,4.474
		c0.719,1.494,1.435,2.979,2.146,4.458c1.44,2.944,2.793,5.889,4.133,8.781c2.674,5.784,5.146,11.431,7.398,16.824
		c2.247,5.396,4.279,10.538,6.033,15.332c0.917,2.382,1.696,4.702,2.454,6.902c0.379,1.101,0.748,2.172,1.107,3.214
		c0.346,1.047,0.653,2.073,0.966,3.063c0.608,1.984,1.221,3.828,1.709,5.559c0.479,1.733,0.918,3.324,1.315,4.762
		c0.197,0.719,0.383,1.4,0.559,2.041c0.152,0.646,0.295,1.254,0.428,1.817c0.265,1.129,0.491,2.089,0.675,2.868
		c0.366,1.556,0.562,2.387,0.562,2.387c0.116,0.492-0.189,0.986-0.683,1.103c-0.493,0.116-0.986-0.19-1.102-0.684l-0.001-0.004
		l-0.009-0.037c0,0-0.189-0.824-0.545-2.366c-0.178-0.771-0.396-1.723-0.654-2.842c-0.129-0.559-0.268-1.159-0.416-1.801
		c-0.17-0.637-0.352-1.313-0.544-2.026c-0.387-1.428-0.815-3.009-1.281-4.729c-0.476-1.718-1.076-3.553-1.67-5.526
		c-0.307-0.984-0.605-2.006-0.945-3.048c-0.352-1.036-0.714-2.105-1.085-3.2c-0.743-2.192-1.506-4.503-2.407-6.878
		c-1.723-4.779-3.722-9.91-5.934-15.297c-2.219-5.385-4.655-11.027-7.294-16.81c-1.322-2.891-2.657-5.833-4.081-8.779
		c-0.702-1.478-1.41-2.964-2.12-4.457c-0.73-1.485-1.463-2.978-2.199-4.477c-0.741-1.495-1.469-3.004-2.227-4.506
		c-0.761-1.498-1.523-3.002-2.288-4.507c-1.513-3.021-3.104-6.018-4.667-9.029c-1.564-3.009-3.189-5.988-4.774-8.972
		c-1.622-2.965-3.237-5.918-4.84-8.848c-3.248-5.837-6.475-11.565-9.669-17.066c-3.175-5.514-6.317-10.801-9.31-15.806
		c-1.509-2.495-2.976-4.923-4.396-7.271c-1.438-2.338-2.826-4.596-4.159-6.764c-2.681-4.327-5.16-8.28-7.382-11.768
		c-2.217-3.491-4.173-6.52-5.791-9.009c-3.241-4.977-5.138-7.788-5.138-7.788c-0.12-0.177-0.073-0.419,0.104-0.539
		C97.507,156.245,97.747,156.291,97.868,156.468z"/>
</g>
<g>
	<path fill="#BDD0FB" d="M483.185,170.518c2.124,28.956,7.606,197.966-150.066,231.6c0,0-32.252-110.338,146.226-233.448
		C480.905,167.592,483.046,168.626,483.185,170.518z"/>
	<path fill="#DCE5FE" d="M467.528,195.137c0,0-4.431,13.194-11.853,32.699c-0.935,2.436-1.908,4.972-2.917,7.597
		c-1.027,2.618-2.089,5.325-3.181,8.107c-2.211,5.554-4.56,11.404-7.07,17.424c-2.49,6.029-5.144,12.224-7.875,18.505
		c-1.387,3.131-2.785,6.286-4.189,9.454c-1.443,3.15-2.856,6.329-4.335,9.479c-1.478,3.15-2.928,6.313-4.444,9.43
		c-0.752,1.561-1.502,3.12-2.248,4.674c-0.751,1.554-1.526,3.089-2.284,4.624c-0.762,1.535-1.521,3.063-2.276,4.583
		c-0.775,1.511-1.545,3.014-2.312,4.508c-1.515,2.996-3.082,5.923-4.614,8.804c-3.069,5.76-6.152,11.268-9.162,16.441
		c-3.016,5.17-5.957,10.009-8.785,14.404c-1.379,2.221-2.791,4.291-4.118,6.271c-0.665,0.989-1.312,1.953-1.94,2.892
		c-0.641,0.929-1.289,1.813-1.902,2.682c-1.245,1.723-2.37,3.362-3.48,4.831c-1.119,1.461-2.147,2.806-3.074,4.018
		c-0.466,0.605-0.906,1.179-1.321,1.718c-0.434,0.523-0.841,1.017-1.219,1.473c-0.758,0.916-1.402,1.692-1.924,2.323
		c-1.044,1.262-1.601,1.936-1.601,1.936c-0.323,0.39-0.901,0.443-1.292,0.12c-0.39-0.322-0.443-0.9-0.122-1.29l0.004-0.004
		l0.024-0.029c0,0,0.556-0.663,1.595-1.908c0.521-0.621,1.161-1.389,1.915-2.291c0.378-0.451,0.783-0.936,1.215-1.453
		c0.414-0.533,0.854-1.099,1.317-1.697c0.926-1.198,1.951-2.525,3.069-3.971c1.108-1.45,2.235-3.075,3.479-4.782
		c0.614-0.858,1.263-1.734,1.903-2.655c0.63-0.929,1.277-1.885,1.943-2.866c1.329-1.961,2.744-4.013,4.125-6.218
		c2.836-4.361,5.789-9.166,8.819-14.305c3.025-5.14,6.123-10.618,9.212-16.349c1.543-2.866,3.119-5.775,4.645-8.76
		c0.771-1.488,1.548-2.983,2.328-4.488c0.761-1.513,1.526-3.034,2.294-4.561c0.764-1.53,1.544-3.059,2.301-4.605
		c0.753-1.548,1.509-3.1,2.267-4.655c1.529-3.104,2.991-6.256,4.483-9.394c1.49-3.138,2.916-6.307,4.372-9.446
		c1.418-3.156,2.829-6.301,4.229-9.422c2.758-6.261,5.438-12.437,7.954-18.446c2.537-6.001,4.91-11.836,7.146-17.375
		c1.104-2.775,2.179-5.474,3.218-8.084c1.021-2.619,2.005-5.149,2.95-7.578c1.875-4.864,3.569-9.333,5.042-13.304
		c1.479-3.969,2.741-7.439,3.775-10.299c2.059-5.724,3.179-9.01,3.179-9.01c0.069-0.203,0.29-0.311,0.494-0.242
		C467.488,194.714,467.598,194.934,467.528,195.137z"/>
</g>
<g>
	<path fill="#BDD0FB" d="M20.505,297.789c-0.66-1.237,0.782-2.54,1.942-1.753c11.226,7.603,41.286,26.618,65.456,29.759
		c39.354,5.114,83.685,29.971,86.522,59.86C174.425,385.655,92.37,432.637,20.505,297.789z"/>
	<path fill="#DCE5FE" d="M34.847,310.04c0,0,0.104,0.094,0.305,0.275c0.205,0.171,0.509,0.425,0.906,0.755
		c0.807,0.672,2.019,1.629,3.555,2.85c1.545,1.213,3.424,2.679,5.609,4.324c2.175,1.658,4.67,3.475,7.38,5.47
		c2.727,1.973,5.686,4.104,8.862,6.291c3.163,2.208,6.55,4.458,10.054,6.782c3.52,2.302,7.168,4.663,10.933,6.971
		c0.94,0.577,1.884,1.158,2.831,1.74c0.955,0.568,1.912,1.14,2.872,1.713c1.911,1.155,3.863,2.258,5.805,3.381
		c1.939,1.125,3.918,2.178,5.861,3.279c1.966,1.058,3.925,2.111,5.868,3.158c1.966,1,3.899,2.027,5.84,2.98
		c0.971,0.475,1.937,0.947,2.895,1.417c0.956,0.473,1.91,0.934,2.867,1.366c3.804,1.784,7.522,3.418,11.074,4.905
		c3.55,1.493,6.956,2.78,10.113,3.933c1.589,0.545,3.112,1.068,4.56,1.566c1.455,0.478,2.847,0.895,4.148,1.308
		c0.652,0.203,1.283,0.397,1.893,0.587c0.615,0.169,1.208,0.329,1.778,0.486c1.141,0.312,2.188,0.596,3.134,0.854
		c1.901,0.478,3.408,0.806,4.429,1.055c1.024,0.24,1.569,0.368,1.569,0.368l0.009,0.003c0.124,0.028,0.2,0.152,0.171,0.275
		c-0.028,0.12-0.147,0.196-0.268,0.172c0,0-0.552-0.11-1.586-0.316c-1.032-0.215-2.558-0.482-4.479-0.921
		c-0.957-0.233-2.016-0.494-3.169-0.776c-0.577-0.143-1.178-0.289-1.8-0.442c-0.617-0.174-1.256-0.354-1.917-0.541
		c-1.317-0.383-2.73-0.758-4.201-1.213c-1.463-0.478-3.003-0.979-4.608-1.503c-3.191-1.108-6.636-2.348-10.228-3.793
		c-3.6-1.423-7.343-3.055-11.174-4.827c-0.964-0.431-1.925-0.89-2.888-1.359c-0.965-0.466-1.938-0.936-2.916-1.408
		c-1.955-0.946-3.901-1.969-5.882-2.964c-1.957-1.04-3.929-2.088-5.909-3.141c-1.958-1.092-3.932-2.175-5.875-3.308
		c-1.944-1.135-3.898-2.25-5.811-3.42c-0.96-0.577-1.918-1.155-2.874-1.729c-0.947-0.588-1.892-1.176-2.833-1.76
		c-3.766-2.331-7.415-4.716-10.935-7.04c-3.498-2.357-6.852-4.675-9.996-6.925c-3.153-2.235-6.09-4.41-8.796-6.425
		c-5.391-4.057-9.771-7.581-12.81-10.082c-1.516-1.256-2.691-2.26-3.486-2.956c-0.396-0.341-0.709-0.629-0.916-0.813
		c-0.197-0.189-0.298-0.286-0.298-0.286c-0.091-0.087-0.095-0.232-0.007-0.323c0.085-0.089,0.226-0.095,0.317-0.012L34.847,310.04z"
		/>
</g>
<g>
	<rect x="26.865" y="259.032" fill="#7D97F4" width="7.433" height="54.59"/>
	<rect x="39.286" y="277.794" fill="#7D97F4" width="7.434" height="35.828"/>
	<rect x="51.706" y="231.425" fill="#7D97F4" width="7.433" height="82.197"/>
	<rect x="64.126" y="293.875" fill="#7D97F4" width="7.434" height="19.747"/>
	<rect x="76.546" y="242.414" fill="#7D97F4" width="7.433" height="71.208"/>
	<rect x="88.967" y="254.743" fill="#7D97F4" width="7.434" height="58.879"/>
	<rect x="101.387" y="268.145" fill="#7D97F4" width="7.433" height="45.478"/>
	<rect x="113.807" y="214.808" fill="#7D97F4" width="7.434" height="98.814"/>
	<rect x="126.228" y="225.261" fill="#7D97F4" width="7.433" height="88.361"/>
	<rect x="138.648" y="241.074" fill="#7D97F4" width="7.433" height="72.548"/>
	<rect x="151.068" y="295.708" fill="#7D97F4" width="7.433" height="17.914"/>
</g>
<g>
	<path fill="#91B3FA" d="M400.363,171.076c-0.302-1.182-1.991-1.174-2.277,0.013c-2.753,11.47-10.919,41.319-24.608,57.513
		c-22.292,26.367-36.2,68.338-20.493,89.211C352.984,317.813,433.268,299.88,400.363,171.076z"/>
	<path fill="#DCE5FE" d="M398.76,187.371c0,0-0.007,0.122-0.022,0.359c-0.024,0.241-0.062,0.598-0.11,1.063
		c-0.099,0.914-0.263,2.249-0.498,3.946c-0.48,3.39-1.219,8.227-2.299,13.998c-0.554,2.882-1.163,6.003-1.875,9.291
		c-0.697,3.291-1.49,6.749-2.354,10.316c-0.896,3.559-1.842,7.232-2.894,10.941c-0.263,0.927-0.524,1.858-0.788,2.792
		c-0.276,0.93-0.554,1.863-0.831,2.798c-0.543,1.874-1.145,3.738-1.728,5.608c-0.585,1.869-1.217,3.724-1.835,5.574
		c-0.655,1.838-1.31,3.668-1.958,5.484c-0.69,1.801-1.343,3.601-2.045,5.356c-0.715,1.749-1.374,3.496-2.109,5.182
		c-1.424,3.386-2.873,6.632-4.357,9.657c-1.465,3.033-2.954,5.85-4.358,8.434c-0.728,1.278-1.424,2.502-2.085,3.667
		c-0.682,1.154-1.372,2.224-1.996,3.242c-0.316,0.505-0.621,0.996-0.917,1.47c-0.312,0.463-0.612,0.909-0.9,1.338
		c-0.577,0.857-1.106,1.645-1.586,2.356c-0.98,1.406-1.808,2.472-2.346,3.215c-0.546,0.737-0.839,1.131-0.839,1.131
		c-0.074,0.102-0.218,0.123-0.319,0.049c-0.1-0.074-0.122-0.212-0.054-0.313l0.007-0.009c0,0,0.273-0.402,0.788-1.159
		c0.509-0.76,1.281-1.856,2.22-3.279c0.455-0.722,0.959-1.521,1.507-2.39c0.274-0.436,0.561-0.887,0.855-1.356
		c0.279-0.479,0.569-0.976,0.869-1.488c0.594-1.029,1.239-2.115,1.893-3.275c0.637-1.169,1.307-2.399,2.007-3.683
		c1.349-2.593,2.778-5.417,4.18-8.459c1.406-3.04,2.835-6.271,4.232-9.646c0.721-1.68,1.366-3.423,2.067-5.167
		c0.688-1.75,1.327-3.545,2.002-5.341c0.635-1.811,1.273-3.637,1.916-5.47c0.601-1.846,1.257-3.683,1.844-5.542
		c0.59-1.859,1.198-3.711,1.748-5.575c0.281-0.93,0.562-1.858,0.843-2.783c0.267-0.929,0.533-1.855,0.799-2.778
		c1.067-3.689,2.027-7.346,2.94-10.888c0.89-3.548,1.751-6.979,2.492-10.251c0.76-3.266,1.416-6.37,2.015-9.236
		c0.572-2.871,1.117-5.5,1.546-7.84c0.442-2.338,0.794-4.382,1.078-6.066c0.274-1.685,0.495-3.01,0.622-3.914
		c0.062-0.444,0.108-0.785,0.141-1.014c0.023-0.235,0.035-0.356,0.035-0.356l0.004-0.025c0.012-0.126,0.123-0.218,0.249-0.205
		C398.678,187.141,398.768,187.249,398.76,187.371z"/>
</g>
<g>
	<linearGradient id="SVGID_5_" gradientUnits="userSpaceOnUse" x1="357.6162" y1="141.2065" x2="109.5252" y2="467.0672">
		<stop  offset="0" style="stop-color:#09005D"/>
		<stop  offset="1" style="stop-color:#1A0F91"/>
	</linearGradient>
	<path fill="url(#SVGID_5_)" d="M179.688,136.414h156.509c8.635,0,15.754,6.767,16.193,15.39l11.553,226.909
		c0.343,6.749-4.969,12.439-11.725,12.563l-179.379,3.261c-6.348,0.114-11.556-5-11.556-11.348V154.817
		C161.284,144.653,169.524,136.414,179.688,136.414z"/>
	<linearGradient id="SVGID_6_" gradientUnits="userSpaceOnUse" x1="166.8081" y1="369.0166" x2="199.4849" y2="369.0166">
		<stop  offset="0" style="stop-color:#DAE3FE"/>
		<stop  offset="1" style="stop-color:#E9EFFD"/>
	</linearGradient>
	<path fill="url(#SVGID_6_)" d="M199.057,390.678c-0.002,0-0.004,0-0.006,0l-20.072-0.26c-6.711-0.086-12.171-5.618-12.171-12.329
		v-30.306c0-0.235,0.191-0.428,0.428-0.428s0.429,0.192,0.429,0.428v30.306c0,6.245,5.081,11.391,11.325,11.473l20.071,0.259
		c0.237,0.004,0.426,0.198,0.423,0.435C199.481,390.489,199.291,390.678,199.057,390.678z"/>
	<linearGradient id="SVGID_7_" gradientUnits="userSpaceOnUse" x1="166.8081" y1="335.9434" x2="167.665" y2="335.9434">
		<stop  offset="0" style="stop-color:#DAE3FE"/>
		<stop  offset="1" style="stop-color:#E9EFFD"/>
	</linearGradient>
	<path fill="url(#SVGID_7_)" d="M167.236,338.826c-0.237,0-0.428-0.192-0.428-0.429v-4.908c0-0.236,0.191-0.429,0.428-0.429
		s0.429,0.192,0.429,0.429v4.908C167.665,338.634,167.473,338.826,167.236,338.826z"/>
	<g>
		<linearGradient id="SVGID_8_" gradientUnits="userSpaceOnUse" x1="140.5225" y1="439.0127" x2="323.0558" y2="169.7118">
			<stop  offset="0" style="stop-color:#4042E2"/>
			<stop  offset="1" style="stop-color:#4F52FF"/>
		</linearGradient>
		<path fill="url(#SVGID_8_)" d="M180.169,134.575c21.373,2.897,94.869,11.862,155.632,7.198c2.771-0.213,5.176,1.886,5.324,4.662
			l12.113,227.92c0.167,3.125-2.22,5.797-5.345,5.982c-25.556,1.513-130.806,7.359-168.348,3.428
			c-2.285-0.239-4.019-2.164-4.033-4.461l-1.408-239.397C174.087,136.654,176.947,134.137,180.169,134.575z"/>
		<path fill="#BDD0FB" d="M182.458,140.487c20.568,2.789,91.295,11.416,149.773,6.927c2.666-0.205,4.98,1.816,5.122,4.486
			l11.658,219.337c0.16,3.009-2.137,5.579-5.144,5.759c-24.594,1.454-125.881,7.081-162.008,3.297
			c-2.199-0.231-3.868-2.081-3.881-4.292l-1.355-230.383C176.605,142.488,179.357,140.066,182.458,140.487z"/>
		<linearGradient id="SVGID_9_" gradientUnits="userSpaceOnUse" x1="195.6602" y1="186.0488" x2="255.4121" y2="186.0488">
			<stop  offset="0" style="stop-color:#DAE3FE"/>
			<stop  offset="1" style="stop-color:#E9EFFD"/>
		</linearGradient>
		<path fill="url(#SVGID_9_)" d="M195.664,162.528l2.185,47.024c0.073,1.564,1.336,2.808,2.901,2.852
			c8.708,0.246,35.846,0.907,51.168,0.109c1.733-0.09,3.104-1.493,3.162-3.227c0.293-8.819,0.931-34.487-1.078-45.216
			c-0.325-1.733-1.814-3.003-3.577-3.065l-51.476-1.8C197.094,159.14,195.578,160.673,195.664,162.528z"/>
		<linearGradient id="SVGID_10_" gradientUnits="userSpaceOnUse" x1="237.3926" y1="161.3145" x2="161.1195" y2="274.8669">
			<stop  offset="0" style="stop-color:#FE7062"/>
			<stop  offset="1" style="stop-color:#FF928E"/>
		</linearGradient>
		<circle fill="url(#SVGID_10_)" cx="225.284" cy="179.34" r="10.109"/>
		<linearGradient id="SVGID_11_" gradientUnits="userSpaceOnUse" x1="250.418" y1="170.064" x2="174.1452" y2="283.616">
			<stop  offset="0" style="stop-color:#FE7062"/>
			<stop  offset="1" style="stop-color:#FF928E"/>
		</linearGradient>
		<path fill="url(#SVGID_11_)" d="M209.93,209.019h32.205c1.974,0,3.157-2.18,2.094-3.844c-2.735-4.28-8.458-10.568-18.371-10.284
			c-9.553,0.273-15.215,5.953-18.062,10.027C206.587,206.647,207.82,209.019,209.93,209.019z"/>
		<linearGradient id="SVGID_12_" gradientUnits="userSpaceOnUse" x1="266.3252" y1="164.5166" x2="326.2549" y2="164.5166">
			<stop  offset="0" style="stop-color:#DAE3FE"/>
			<stop  offset="1" style="stop-color:#E9EFFD"/>
		</linearGradient>
		<path fill="url(#SVGID_12_)" d="M325.381,166.622c0.496,0,0.889-0.405,0.874-0.9l-0.039-1.355
			c-0.016-0.496-0.432-0.907-0.927-0.916l-58.314-1.04c-0.494-0.008-0.766,0.367-0.601,0.833l0.892,2.528
			c0.163,0.467,0.703,0.849,1.198,0.849H325.381z"/>
		<linearGradient id="SVGID_13_" gradientUnits="userSpaceOnUse" x1="266.3252" y1="173.2832" x2="326.2549" y2="173.2832">
			<stop  offset="0" style="stop-color:#DAE3FE"/>
			<stop  offset="1" style="stop-color:#E9EFFD"/>
		</linearGradient>
		<path fill="url(#SVGID_13_)" d="M266.975,171.178c-0.494-0.009-0.766,0.366-0.601,0.833l0.892,2.528
			c0.163,0.467,0.703,0.849,1.198,0.849h56.917c0.496,0,0.889-0.405,0.874-0.9l-0.039-1.355c-0.016-0.495-0.432-0.907-0.927-0.916
			L266.975,171.178z"/>
		<linearGradient id="SVGID_14_" gradientUnits="userSpaceOnUse" x1="266.3252" y1="182.1768" x2="326.2549" y2="182.1768">
			<stop  offset="0" style="stop-color:#DAE3FE"/>
			<stop  offset="1" style="stop-color:#E9EFFD"/>
		</linearGradient>
		<path fill="url(#SVGID_14_)" d="M266.975,180.071c-0.494-0.009-0.766,0.367-0.601,0.833l0.892,2.528
			c0.163,0.467,0.703,0.85,1.198,0.85h56.917c0.496,0,0.889-0.405,0.874-0.9l-0.039-1.355c-0.016-0.495-0.432-0.907-0.927-0.916
			L266.975,180.071z"/>
		<linearGradient id="SVGID_15_" gradientUnits="userSpaceOnUse" x1="196.0498" y1="225.0625" x2="331.7061" y2="225.0625">
			<stop  offset="0" style="stop-color:#DAE3FE"/>
			<stop  offset="1" style="stop-color:#E9EFFD"/>
		</linearGradient>
		<path fill="url(#SVGID_15_)" d="M330.863,227.172c0.495,0,0.875-0.405,0.841-0.899l-0.09-1.358
			c-0.032-0.494-0.464-0.901-0.958-0.906l-134.107-1.057c-0.496-0.004-0.648,0.31-0.339,0.697l2.243,2.818
			c0.309,0.388,0.966,0.705,1.461,0.705H330.863z"/>
		<linearGradient id="SVGID_16_" gradientUnits="userSpaceOnUse" x1="196.0498" y1="233.8291" x2="331.7061" y2="233.8291">
			<stop  offset="0" style="stop-color:#DAE3FE"/>
			<stop  offset="1" style="stop-color:#E9EFFD"/>
		</linearGradient>
		<path fill="url(#SVGID_16_)" d="M196.549,231.719c-0.496-0.004-0.648,0.31-0.339,0.697l2.243,2.818
			c0.309,0.388,0.966,0.704,1.461,0.704h130.949c0.495,0,0.875-0.404,0.841-0.898l-0.09-1.358c-0.032-0.495-0.464-0.902-0.958-0.906
			L196.549,231.719z"/>
		<linearGradient id="SVGID_17_" gradientUnits="userSpaceOnUse" x1="194.9346" y1="254.3877" x2="213.6338" y2="254.3877">
			<stop  offset="0" style="stop-color:#DAE3FE"/>
			<stop  offset="1" style="stop-color:#E9EFFD"/>
		</linearGradient>
		<path fill="url(#SVGID_17_)" d="M196.886,246.364c3.179-0.244,9.134-0.357,12.411-0.403c1.388-0.02,2.606,0.922,2.932,2.272
			c0.633,2.622,1.505,7.176,1.396,12c-0.033,1.445-1.217,2.598-2.662,2.582l-12.095-0.13c-1.487-0.016-2.723-1.153-2.861-2.634
			l-1.063-11.379C194.834,247.496,195.707,246.454,196.886,246.364z"/>
		<linearGradient id="SVGID_18_" gradientUnits="userSpaceOnUse" x1="217.5444" y1="253.7656" x2="251.29" y2="253.7656">
			<stop  offset="0" style="stop-color:#DAE3FE"/>
			<stop  offset="1" style="stop-color:#E9EFFD"/>
		</linearGradient>
		<path fill="url(#SVGID_18_)" d="M218.32,250.997c-0.495-0.021-0.839,0.363-0.766,0.853l0.57,3.797
			c0.073,0.489,0.539,0.89,1.034,0.89H250.4c0.495,0,0.895-0.404,0.89-0.9l-0.03-2.362c-0.006-0.495-0.415-0.918-0.911-0.938
			L218.32,250.997z"/>
		<linearGradient id="SVGID_19_" gradientUnits="userSpaceOnUse" x1="260.8271" y1="254.3877" x2="279.5273" y2="254.3877">
			<stop  offset="0" style="stop-color:#DAE3FE"/>
			<stop  offset="1" style="stop-color:#E9EFFD"/>
		</linearGradient>
		<path fill="url(#SVGID_19_)" d="M262.778,246.364c3.18-0.244,9.133-0.357,12.411-0.403c1.389-0.02,2.606,0.922,2.933,2.272
			c0.633,2.622,1.505,7.176,1.396,12c-0.034,1.445-1.217,2.598-2.662,2.582l-12.095-0.13c-1.487-0.016-2.722-1.153-2.86-2.634
			l-1.063-11.379C260.727,247.496,261.599,246.454,262.778,246.364z"/>
		<linearGradient id="SVGID_20_" gradientUnits="userSpaceOnUse" x1="283.4365" y1="253.7656" x2="317.1816" y2="253.7656">
			<stop  offset="0" style="stop-color:#DAE3FE"/>
			<stop  offset="1" style="stop-color:#E9EFFD"/>
		</linearGradient>
		<path fill="url(#SVGID_20_)" d="M284.212,250.997c-0.494-0.021-0.839,0.363-0.766,0.853l0.571,3.797
			c0.073,0.489,0.538,0.89,1.033,0.89h31.241c0.496,0,0.896-0.404,0.89-0.9l-0.029-2.362c-0.007-0.495-0.416-0.918-0.91-0.938
			L284.212,250.997z"/>
		<g>
			<path fill="#FFFFFF" d="M213.951,291.508c-0.01,0-0.021,0-0.031,0L202.76,291.4c-1.595-0.016-2.911-1.112-3.062-2.553
				l-0.981-9.363c-0.058-0.55,0.113-1.093,0.48-1.53c0.412-0.489,1.034-0.797,1.708-0.843l0,0c0.94-0.064,2.265-0.177,3.666-0.296
				c2.952-0.251,6.626-0.563,8.692-0.59c1.5-0.008,2.772,0.88,3.125,2.187c0.582,2.148,0.531,6.219,0.42,10.552
				C216.773,290.373,215.494,291.508,213.951,291.508z M200.964,277.967c-0.443,0.029-0.848,0.227-1.11,0.539
				c-0.217,0.257-0.318,0.573-0.285,0.889l0.981,9.364c0.106,1.007,1.059,1.774,2.218,1.785l11.161,0.106c0.007,0,0.015,0,0.022,0
				c1.081,0,1.977-0.762,2.001-1.707c0.108-4.27,0.161-8.271-0.391-10.309c-0.247-0.914-1.197-1.549-2.286-1.552
				c-2.037,0.024-5.693,0.336-8.631,0.586C203.239,277.788,201.911,277.901,200.964,277.967L200.964,277.967z"/>
			<linearGradient id="SVGID_21_" gradientUnits="userSpaceOnUse" x1="200.7256" y1="283.9902" x2="214.564" y2="283.9902">
				<stop  offset="0" style="stop-color:#DAE3FE"/>
				<stop  offset="1" style="stop-color:#E9EFFD"/>
			</linearGradient>
			<path fill="url(#SVGID_21_)" d="M202.164,278.934c2.345-0.16,7.44-0.678,9.858-0.708c1.024-0.013,1.922,0.605,2.162,1.494
				c0.466,1.725,0.405,5.162,0.324,8.335c-0.024,0.951-0.897,1.709-1.963,1.699l-8.919-0.086c-1.097-0.011-2.007-0.758-2.109-1.732
				l-0.784-7.483C200.651,279.679,201.295,278.992,202.164,278.934z"/>
			<linearGradient id="SVGID_22_" gradientUnits="userSpaceOnUse" x1="223.6606" y1="284.583" x2="331.8008" y2="284.583">
				<stop  offset="0" style="stop-color:#DAE3FE"/>
				<stop  offset="1" style="stop-color:#E9EFFD"/>
			</linearGradient>
			<path fill="url(#SVGID_22_)" d="M223.754,285.289c0.323,1.227,1.436,2.076,2.703,2.065l103.265-0.88
				c1.168-0.011,2.104-0.974,2.078-2.142c-0.025-1.137-0.95-2.045-2.086-2.05l-103.268-0.472
				C224.623,281.804,223.289,283.527,223.754,285.289z"/>
			<linearGradient id="SVGID_23_" gradientUnits="userSpaceOnUse" x1="235.4121" y1="234.124" x2="178.4212" y2="331.3942">
				<stop  offset="0" style="stop-color:#FE7062"/>
				<stop  offset="1" style="stop-color:#FF928E"/>
			</linearGradient>
			<path fill="url(#SVGID_23_)" d="M202.639,280.401L202.639,280.401c0.829-0.486,1.895-0.196,2.363,0.644l2.202,3.946
				c0.22,0.395,0.796,0.369,0.981-0.042l5.46-12.157c0.272-0.606,1.175-0.4,1.166,0.265c-0.056,3.717-1.042,10.786-6.983,16.701
				c0,0-3.274-1.272-5.911-7.063C201.537,281.859,201.847,280.867,202.639,280.401z"/>
			<path fill="#FFFFFF" d="M213.951,315.429c-0.01,0-0.021,0-0.031,0l-11.161-0.107c-1.595-0.016-2.911-1.113-3.062-2.551
				l-0.981-9.366c-0.058-0.549,0.113-1.093,0.48-1.529c0.412-0.489,1.034-0.796,1.708-0.843l0,0c0.94-0.065,2.265-0.178,3.666-0.297
				c2.952-0.251,6.626-0.563,8.692-0.59c0.016,0,0.031,0,0.045,0c1.468,0,2.731,0.893,3.081,2.187
				c0.582,2.149,0.531,6.219,0.42,10.553C216.773,314.294,215.494,315.429,213.951,315.429z M200.964,301.888
				c-0.443,0.03-0.848,0.228-1.11,0.538c-0.217,0.258-0.318,0.574-0.285,0.89l0.981,9.365c0.106,1.005,1.059,1.772,2.218,1.783
				l11.161,0.107c0.007,0,0.015,0,0.022,0c1.081,0,1.977-0.763,2.001-1.708c0.108-4.27,0.161-8.27-0.391-10.309
				c-0.247-0.912-1.211-1.568-2.287-1.552c-2.036,0.026-5.693,0.337-8.63,0.587C203.239,301.71,201.911,301.823,200.964,301.888
				L200.964,301.888z"/>
			<linearGradient id="SVGID_24_" gradientUnits="userSpaceOnUse" x1="200.7256" y1="307.9102" x2="214.564" y2="307.9102">
				<stop  offset="0" style="stop-color:#DAE3FE"/>
				<stop  offset="1" style="stop-color:#E9EFFD"/>
			</linearGradient>
			<path fill="url(#SVGID_24_)" d="M202.164,302.854c2.345-0.161,7.44-0.678,9.858-0.708c1.024-0.013,1.922,0.605,2.162,1.494
				c0.466,1.724,0.405,5.163,0.324,8.335c-0.024,0.95-0.897,1.709-1.963,1.698l-8.919-0.086c-1.097-0.01-2.007-0.758-2.109-1.731
				l-0.784-7.484C200.651,303.6,201.295,302.913,202.164,302.854z"/>
			<linearGradient id="SVGID_25_" gradientUnits="userSpaceOnUse" x1="223.6606" y1="308.5039" x2="331.8008" y2="308.5039">
				<stop  offset="0" style="stop-color:#DAE3FE"/>
				<stop  offset="1" style="stop-color:#E9EFFD"/>
			</linearGradient>
			<path fill="url(#SVGID_25_)" d="M223.754,309.211c0.323,1.225,1.436,2.074,2.703,2.063l103.265-0.88
				c1.168-0.011,2.104-0.974,2.078-2.142c-0.025-1.136-0.95-2.044-2.086-2.05l-103.268-0.471
				C224.623,305.724,223.289,307.448,223.754,309.211z"/>
			<linearGradient id="SVGID_26_" gradientUnits="userSpaceOnUse" x1="245.8442" y1="240.2373" x2="188.854" y2="337.5062">
				<stop  offset="0" style="stop-color:#FE7062"/>
				<stop  offset="1" style="stop-color:#FF928E"/>
			</linearGradient>
			<path fill="url(#SVGID_26_)" d="M202.639,304.322L202.639,304.322c0.829-0.486,1.895-0.196,2.363,0.644l2.202,3.946
				c0.22,0.395,0.796,0.368,0.981-0.043l5.46-12.156c0.272-0.606,1.175-0.401,1.166,0.264c-0.056,3.718-1.042,10.786-6.983,16.701
				c0,0-3.274-1.272-5.911-7.062C201.537,305.78,201.847,304.788,202.639,304.322z"/>
			<path fill="#FFFFFF" d="M213.951,339.349c-0.01,0-0.021,0-0.031,0l-11.161-0.107c-1.595-0.015-2.911-1.111-3.062-2.551
				l-0.981-9.364c-0.058-0.55,0.113-1.094,0.48-1.531c0.412-0.488,1.034-0.795,1.708-0.842l0,0c0.94-0.064,2.265-0.178,3.666-0.297
				c2.952-0.252,6.626-0.564,8.692-0.591c0.016,0,0.031,0,0.045,0c1.468,0,2.731,0.895,3.081,2.187
				c0.582,2.15,0.531,6.219,0.42,10.555C216.773,338.214,215.494,339.349,213.951,339.349z M200.964,325.809
				c-0.443,0.029-0.848,0.227-1.11,0.539c-0.217,0.256-0.318,0.572-0.285,0.889l0.981,9.364c0.106,1.007,1.059,1.773,2.218,1.784
				l11.161,0.107c0.007,0,0.015,0,0.022,0c1.081,0,1.977-0.762,2.001-1.708c0.108-4.269,0.161-8.27-0.391-10.309
				c-0.247-0.912-1.211-1.573-2.287-1.553c-2.036,0.026-5.693,0.337-8.63,0.588C203.239,325.631,201.911,325.743,200.964,325.809
				L200.964,325.809z"/>
			<linearGradient id="SVGID_27_" gradientUnits="userSpaceOnUse" x1="200.7256" y1="331.8301" x2="214.564" y2="331.8301">
				<stop  offset="0" style="stop-color:#DAE3FE"/>
				<stop  offset="1" style="stop-color:#E9EFFD"/>
			</linearGradient>
			<path fill="url(#SVGID_27_)" d="M202.164,326.774c2.345-0.16,7.44-0.678,9.858-0.708c1.024-0.013,1.922,0.606,2.162,1.494
				c0.466,1.724,0.405,5.163,0.324,8.336c-0.024,0.95-0.897,1.708-1.963,1.698l-8.919-0.087c-1.097-0.009-2.007-0.758-2.109-1.731
				l-0.784-7.483C200.651,327.52,201.295,326.834,202.164,326.774z"/>
			<linearGradient id="SVGID_28_" gradientUnits="userSpaceOnUse" x1="223.6606" y1="332.4238" x2="331.8008" y2="332.4238">
				<stop  offset="0" style="stop-color:#DAE3FE"/>
				<stop  offset="1" style="stop-color:#E9EFFD"/>
			</linearGradient>
			<path fill="url(#SVGID_28_)" d="M223.754,333.132c0.323,1.224,1.436,2.074,2.703,2.063l103.265-0.881
				c1.168-0.009,2.104-0.974,2.078-2.142c-0.025-1.134-0.95-2.044-2.086-2.049l-103.268-0.471
				C224.623,329.645,223.289,331.368,223.754,333.132z"/>
			<linearGradient id="SVGID_29_" gradientUnits="userSpaceOnUse" x1="254.6172" y1="264.2139" x2="179.6289" y2="368.769">
				<stop  offset="0" style="stop-color:#FE7062"/>
				<stop  offset="1" style="stop-color:#FF928E"/>
			</linearGradient>
			<path fill="url(#SVGID_29_)" d="M202.639,328.243L202.639,328.243c0.829-0.486,1.895-0.196,2.363,0.643l2.202,3.946
				c0.22,0.395,0.796,0.37,0.981-0.043l5.46-12.155c0.272-0.606,1.175-0.402,1.166,0.263c-0.056,3.719-1.042,10.786-6.983,16.702
				c0,0-3.274-1.272-5.911-7.062C201.537,329.7,201.847,328.708,202.639,328.243z"/>
			<path fill="#FFFFFF" d="M213.951,363.27c-0.01,0-0.021,0-0.031,0l-11.161-0.107c-1.595-0.016-2.911-1.112-3.062-2.552
				l-0.981-9.363c-0.058-0.551,0.113-1.094,0.48-1.531c0.412-0.489,1.034-0.796,1.708-0.843l0,0c0.94-0.063,2.265-0.177,3.666-0.296
				c2.952-0.252,6.626-0.564,8.692-0.591c0.016,0,0.031-0.001,0.045-0.001c1.468,0,2.731,0.896,3.081,2.187
				c0.582,2.151,0.531,6.219,0.42,10.555C216.773,362.134,215.494,363.27,213.951,363.27z M200.964,349.729
				c-0.443,0.03-0.848,0.227-1.11,0.539c-0.217,0.257-0.318,0.573-0.285,0.89l0.981,9.364c0.106,1.006,1.059,1.773,2.218,1.784
				l11.161,0.106c0.007,0,0.015,0,0.022,0c1.081,0,1.977-0.761,2.001-1.707c0.108-4.27,0.161-8.27-0.391-10.309
				c-0.247-0.913-1.211-1.576-2.287-1.553c-2.036,0.025-5.693,0.336-8.63,0.587C203.239,349.551,201.911,349.663,200.964,349.729
				L200.964,349.729z"/>
			<linearGradient id="SVGID_30_" gradientUnits="userSpaceOnUse" x1="200.7256" y1="355.751" x2="214.564" y2="355.751">
				<stop  offset="0" style="stop-color:#DAE3FE"/>
				<stop  offset="1" style="stop-color:#E9EFFD"/>
			</linearGradient>
			<path fill="url(#SVGID_30_)" d="M202.164,350.694c2.345-0.159,7.44-0.678,9.858-0.708c1.024-0.012,1.922,0.607,2.162,1.494
				c0.466,1.726,0.405,5.163,0.324,8.336c-0.024,0.951-0.897,1.709-1.963,1.699l-8.919-0.085c-1.097-0.012-2.007-0.76-2.109-1.734
				l-0.784-7.481C200.651,351.439,201.295,350.754,202.164,350.694z"/>
			<linearGradient id="SVGID_31_" gradientUnits="userSpaceOnUse" x1="223.6606" y1="356.3447" x2="331.8008" y2="356.3447">
				<stop  offset="0" style="stop-color:#DAE3FE"/>
				<stop  offset="1" style="stop-color:#E9EFFD"/>
			</linearGradient>
			<path fill="url(#SVGID_31_)" d="M223.754,357.052L223.754,357.052c0.323,1.225,1.436,2.075,2.703,2.064l103.265-0.881
				c1.168-0.01,2.104-0.973,2.078-2.142c-0.025-1.135-0.95-2.044-2.086-2.05l-103.268-0.471
				C224.623,353.566,223.289,355.289,223.754,357.052z"/>
			<linearGradient id="SVGID_32_" gradientUnits="userSpaceOnUse" x1="266.7158" y1="252.458" x2="209.7218" y2="349.7334">
				<stop  offset="0" style="stop-color:#FE7062"/>
				<stop  offset="1" style="stop-color:#FF928E"/>
			</linearGradient>
			<path fill="url(#SVGID_32_)" d="M202.639,352.164L202.639,352.164c0.829-0.487,1.895-0.196,2.363,0.642l2.202,3.946
				c0.22,0.396,0.796,0.371,0.981-0.043l5.46-12.154c0.272-0.606,1.175-0.402,1.166,0.263c-0.056,3.719-1.042,10.785-6.983,16.703
				c0,0-3.274-1.273-5.911-7.063C201.537,353.62,201.847,352.628,202.639,352.164z"/>
		</g>
	</g>
	<linearGradient id="SVGID_33_" gradientUnits="userSpaceOnUse" x1="285.1113" y1="82.1133" x2="213.1224" y2="176.813">
		<stop  offset="0" style="stop-color:#09005D"/>
		<stop  offset="1" style="stop-color:#1A0F91"/>
	</linearGradient>
	<path fill="url(#SVGID_33_)" d="M267.649,105.476c-5.653-3.933-10.569-3.855-14.029-2.833c-3.157,0.931-5.202,3.979-4.902,7.256
		l1.492,16.289l17.758,1.576C267.968,127.762,278.736,113.188,267.649,105.476z M259.84,118.616c-2.445,0-4.428-1.982-4.428-4.428
		c0-2.445,1.982-4.428,4.428-4.428c2.446,0,4.429,1.982,4.429,4.428C264.269,116.634,262.286,118.616,259.84,118.616z"/>
	<linearGradient id="SVGID_34_" gradientUnits="userSpaceOnUse" x1="250.8848" y1="111.8838" x2="262.415" y2="111.8838">
		<stop  offset="0" style="stop-color:#DAE3FE"/>
		<stop  offset="1" style="stop-color:#E9EFFD"/>
	</linearGradient>
	<path fill="url(#SVGID_34_)" d="M251.984,119.335c-0.219,0-0.406-0.167-0.427-0.39l-0.238-2.594
		c-0.021-0.236,0.152-0.444,0.388-0.466c0.242-0.022,0.444,0.151,0.467,0.387l0.237,2.595c0.021,0.235-0.151,0.444-0.388,0.465
		C252.011,119.334,251.997,119.335,251.984,119.335z M251.519,114.251c-0.22,0-0.406-0.167-0.427-0.389l-0.18-1.97
		c-0.287-3.122,1.678-6.029,4.67-6.913c2.119-0.625,4.304-0.715,6.49-0.267c0.232,0.047,0.382,0.274,0.334,0.506
		c-0.048,0.231-0.272,0.38-0.506,0.333c-2.048-0.419-4.093-0.336-6.075,0.249c-2.602,0.768-4.309,3.296-4.06,6.013l0.18,1.969
		c0.022,0.236-0.152,0.444-0.388,0.466C251.544,114.251,251.531,114.251,251.519,114.251z"/>
	<linearGradient id="SVGID_35_" gradientUnits="userSpaceOnUse" x1="293.0078" y1="88.1167" x2="221.0191" y2="182.8162">
		<stop  offset="0" style="stop-color:#09005D"/>
		<stop  offset="1" style="stop-color:#1A0F91"/>
	</linearGradient>
	<path fill="url(#SVGID_35_)" d="M225.974,136.713v-8.189c0-2.827,2.343-5.091,5.168-4.995l56.462,1.935
		c2.505,0.086,4.534,2.063,4.686,4.566l0.472,7.869L225.974,136.713z"/>
	<linearGradient id="SVGID_36_" gradientUnits="userSpaceOnUse" x1="244.1704" y1="126.1865" x2="247.4556" y2="126.1865">
		<stop  offset="0" style="stop-color:#DAE3FE"/>
		<stop  offset="1" style="stop-color:#E9EFFD"/>
	</linearGradient>
	<path fill="url(#SVGID_36_)" d="M247.027,126.615h-2.428c-0.237,0-0.429-0.192-0.429-0.429s0.192-0.428,0.429-0.428h2.428
		c0.237,0,0.429,0.191,0.429,0.428S247.264,126.615,247.027,126.615z"/>
	<linearGradient id="SVGID_37_" gradientUnits="userSpaceOnUse" x1="228.6016" y1="129.9502" x2="242.5991" y2="129.9502">
		<stop  offset="0" style="stop-color:#DAE3FE"/>
		<stop  offset="1" style="stop-color:#E9EFFD"/>
	</linearGradient>
	<path fill="url(#SVGID_37_)" d="M229.03,134.142c-0.236,0-0.428-0.191-0.428-0.429V130.4c0-2.56,2.083-4.642,4.642-4.642h8.927
		c0.237,0,0.429,0.191,0.429,0.428s-0.192,0.429-0.429,0.429h-8.927c-2.087,0-3.785,1.698-3.785,3.785v3.313
		C229.458,133.95,229.267,134.142,229.03,134.142z"/>
	<linearGradient id="SVGID_38_" gradientUnits="userSpaceOnUse" x1="283.9355" y1="93.9097" x2="234.2292" y2="185.1806">
		<stop  offset="0" style="stop-color:#4042E2"/>
		<stop  offset="1" style="stop-color:#4F52FF"/>
	</linearGradient>
	<path fill="url(#SVGID_38_)" d="M208.282,133.716l98.734-0.002c3.55,0,6.586,2.555,7.191,6.053l0.083,0.482
		c0.664,3.832-2.286,7.336-6.176,7.336H206.82c-2.328,0-4.182-1.946-4.07-4.27l0.218-4.534
		C203.104,135.945,205.443,133.716,208.282,133.716z"/>
</g>
<g>
	<path fill="#7D97F4" d="M86.845,266.986l-0.851-1.08c-0.238-0.302-0.186-0.738,0.115-0.977c0.302-0.237,0.739-0.187,0.977,0.115
		c0.001,0.001,0.004,0.005,0.005,0.007l0.839,1.089c0.231,0.302,0.175,0.733-0.125,0.965
		C87.506,267.335,87.078,267.281,86.845,266.986z"/>
	<path fill="#7D97F4" d="M84.085,263.249l-0.752-1.151c-0.218-0.334-0.124-0.78,0.209-1c0.334-0.217,0.781-0.123,0.999,0.21
		c0.001,0.002,0.003,0.006,0.004,0.008l0.74,1.16c0.211,0.331,0.114,0.773-0.218,0.984C84.736,263.67,84.299,263.574,84.085,263.249
		z"/>
	<path fill="#7D97F4" d="M81.666,259.282l-0.649-1.213c-0.195-0.363-0.058-0.816,0.305-1.011c0.364-0.195,0.817-0.059,1.012,0.305
		c0.001,0.002,0.003,0.007,0.004,0.008l0.636,1.221c0.188,0.361,0.048,0.809-0.313,0.996
		C82.3,259.775,81.857,259.638,81.666,259.282z"/>
	<path fill="#7D97F4" d="M79.595,255.122l-0.545-1.263c-0.169-0.392,0.011-0.847,0.403-1.016c0.392-0.17,0.847,0.011,1.016,0.403
		c0,0.001,0.003,0.007,0.003,0.007l0.531,1.27c0.163,0.39-0.021,0.838-0.411,1.001C80.207,255.687,79.761,255.507,79.595,255.122z"
		/>
	<path fill="#7D97F4" d="M77.877,250.805l-0.441-1.303c-0.141-0.417,0.083-0.871,0.5-1.012c0.418-0.142,0.871,0.083,1.013,0.5
		c0,0.001,0.002,0.007,0.003,0.008l0.426,1.308c0.135,0.416-0.092,0.861-0.507,0.997C78.459,251.438,78.016,251.214,77.877,250.805z
		"/>
	<path fill="#7D97F4" d="M76.51,246.364l-0.337-1.333c-0.112-0.442,0.155-0.89,0.596-1.002s0.89,0.155,1.002,0.597
		c0,0.001,0.002,0.007,0.002,0.009l0.323,1.337c0.105,0.438-0.164,0.88-0.603,0.986C77.059,247.063,76.62,246.797,76.51,246.364z"/>
	<path fill="#7D97F4" d="M75.49,241.832l-0.237-1.355c-0.081-0.462,0.229-0.903,0.691-0.983c0.463-0.081,0.903,0.229,0.984,0.691
		c0,0.001,0.001,0.008,0.001,0.01l0.222,1.357c0.075,0.459-0.237,0.893-0.696,0.967C76,242.593,75.569,242.285,75.49,241.832z"/>
	<path fill="#7D97F4" d="M74.809,237.235l-0.138-1.368c-0.048-0.481,0.303-0.911,0.784-0.959c0.482-0.048,0.911,0.303,0.959,0.784
		c0,0.001,0,0.008,0,0.01l0.123,1.37c0.042,0.478-0.31,0.899-0.788,0.942C75.276,238.056,74.856,237.708,74.809,237.235z"/>
	<path fill="#7D97F4" d="M74.461,232.603l-0.041-1.375c-0.015-0.498,0.377-0.913,0.875-0.928c0.498-0.015,0.913,0.377,0.928,0.875
		c0,0.002,0,0.009,0,0.01l0.025,1.375c0.009,0.494-0.384,0.901-0.878,0.91C74.88,233.479,74.475,233.091,74.461,232.603z"/>
	<path fill="#7D97F4" d="M74.437,227.956l0.054-1.375c0.02-0.512,0.451-0.911,0.963-0.891c0.512,0.02,0.911,0.451,0.891,0.963
		c0,0.002,0,0.009,0,0.011l-0.069,1.374c-0.026,0.507-0.458,0.898-0.966,0.872C74.806,228.885,74.417,228.458,74.437,227.956z"/>
	<path fill="#7D97F4" d="M74.73,223.318l0.146-1.367c0.056-0.523,0.526-0.903,1.049-0.847c0.524,0.056,0.902,0.527,0.846,1.05
		c0,0.002-0.001,0.009-0.001,0.011l-0.162,1.365c-0.062,0.519-0.532,0.889-1.051,0.827C75.044,224.297,74.675,223.832,74.73,223.318
		z"/>
	<path fill="#7D97F4" d="M75.335,218.709l0.239-1.355c0.093-0.532,0.601-0.888,1.133-0.794s0.888,0.601,0.795,1.133l-0.002,0.01
		l-0.253,1.353c-0.099,0.527-0.606,0.875-1.133,0.776C75.589,219.735,75.243,219.233,75.335,218.709z"/>
	<path fill="#7D97F4" d="M76.255,214.151l0.331-1.335c0.132-0.532,0.67-0.856,1.202-0.724c0.532,0.132,0.856,0.67,0.725,1.202
		l-0.001,0.005l-0.339,1.333c-0.134,0.529-0.672,0.849-1.201,0.714C76.444,215.212,76.125,214.678,76.255,214.151z"/>
	<path fill="#7D97F4" d="M77.48,209.665l0.42-1.31c0.169-0.529,0.736-0.82,1.265-0.651c0.529,0.169,0.821,0.736,0.651,1.265
		l-0.002,0.005l-0.427,1.307c-0.172,0.526-0.737,0.813-1.264,0.641C77.6,210.751,77.313,210.188,77.48,209.665z"/>
	<path fill="#7D97F4" d="M79.005,205.269l0.507-1.278c0.208-0.523,0.8-0.779,1.324-0.572c0.523,0.208,0.779,0.8,0.571,1.323
		l-0.002,0.006l-0.514,1.275c-0.21,0.521-0.802,0.772-1.322,0.562C79.051,206.376,78.799,205.788,79.005,205.269z"/>
	<path fill="#7D97F4" d="M80.826,200.985l0.595-1.242c0.247-0.515,0.863-0.732,1.377-0.486c0.515,0.247,0.732,0.863,0.485,1.378
		l-0.002,0.005l-0.602,1.239c-0.249,0.511-0.864,0.724-1.375,0.476C80.794,202.107,80.582,201.495,80.826,200.985z"/>
	<path fill="#7D97F4" d="M82.941,196.834l0.68-1.197c0.286-0.502,0.924-0.677,1.427-0.392c0.502,0.286,0.678,0.925,0.392,1.427
		l-0.003,0.005l-0.688,1.192c-0.288,0.499-0.925,0.67-1.424,0.382C82.83,197.966,82.658,197.332,82.941,196.834z"/>
	<path fill="#7D97F4" d="M85.349,192.842l0.765-1.144c0.325-0.486,0.984-0.617,1.47-0.292c0.486,0.326,0.617,0.984,0.291,1.47
		l-0.003,0.005l-0.772,1.139c-0.327,0.482-0.983,0.608-1.466,0.282C85.153,193.977,85.026,193.324,85.349,192.842z"/>
	<path fill="#7D97F4" d="M88.037,189.038l0.842-1.087c0.363-0.469,1.037-0.554,1.505-0.191c0.468,0.363,0.554,1.037,0.191,1.505
		l-0.004,0.005l-0.848,1.083c-0.364,0.464-1.036,0.546-1.501,0.181C87.759,190.171,87.677,189.502,88.037,189.038z"/>
	<path fill="#7D97F4" d="M90.97,185.425l0.911-1.03c0.397-0.45,1.084-0.492,1.534-0.095s0.492,1.084,0.095,1.534l-0.004,0.004
		l-0.917,1.025c-0.398,0.446-1.083,0.484-1.528,0.085C90.615,186.552,90.576,185.871,90.97,185.425z"/>
	<path fill="#7D97F4" d="M94.128,182.008l0.975-0.97c0.43-0.429,1.126-0.429,1.556,0.002c0.429,0.43,0.428,1.126-0.003,1.556
		l-0.004,0.005l-0.98,0.965c-0.431,0.425-1.125,0.42-1.55-0.012C93.699,183.124,93.702,182.434,94.128,182.008z"/>
	<path fill="#7D97F4" d="M97.494,178.797l1.032-0.909c0.461-0.407,1.165-0.362,1.572,0.099c0.406,0.461,0.362,1.165-0.1,1.572
		l-0.004,0.004l-1.038,0.903c-0.462,0.403-1.163,0.354-1.565-0.108C96.99,179.898,97.037,179.201,97.494,178.797z"/>
	<path fill="#7D97F4" d="M101.047,175.797l1.084-0.846c0.49-0.383,1.199-0.295,1.582,0.195c0.383,0.49,0.295,1.199-0.195,1.582
		l-0.005,0.004l-1.089,0.839c-0.491,0.379-1.196,0.288-1.575-0.204C100.472,176.879,100.561,176.177,101.047,175.797z"/>
	<path fill="#7D97F4" d="M104.771,173.013l1.131-0.782c0.518-0.358,1.229-0.228,1.586,0.29c0.358,0.518,0.229,1.229-0.29,1.586
		l-0.005,0.003l-1.137,0.776c-0.518,0.354-1.225,0.22-1.579-0.298C104.126,174.072,104.257,173.368,104.771,173.013z"/>
	<path fill="#7D97F4" d="M108.646,170.446l1.173-0.718c0.544-0.333,1.254-0.161,1.587,0.383c0.332,0.543,0.161,1.253-0.382,1.586
		l-0.006,0.003l-1.177,0.71c-0.544,0.328-1.25,0.154-1.579-0.39C107.934,171.479,108.106,170.776,108.646,170.446z"/>
	<path fill="#7D97F4" d="M112.656,168.099l1.211-0.65c0.567-0.304,1.273-0.091,1.578,0.476c0.304,0.566,0.091,1.273-0.476,1.577
		l-0.002,0.001l-1.213,0.648c-0.567,0.303-1.271,0.088-1.574-0.478S112.089,168.401,112.656,168.099z"/>
	<path fill="#7D97F4" d="M116.791,165.979l1.245-0.585c0.583-0.274,1.279-0.023,1.553,0.561c0.274,0.583,0.024,1.279-0.56,1.553
		l-0.001,0l-1.245,0.583c-0.584,0.273-1.279,0.022-1.552-0.562C115.957,166.947,116.207,166.253,116.791,165.979z"/>
	<path fill="#7D97F4" d="M121.029,164.081l1.273-0.52c0.599-0.245,1.282,0.042,1.527,0.641c0.244,0.598-0.043,1.282-0.641,1.526
		l-0.001,0l-1.274,0.519c-0.599,0.244-1.281-0.044-1.524-0.642S120.431,164.325,121.029,164.081z"/>
	<path fill="#7D97F4" d="M125.357,162.401l1.297-0.455c0.611-0.215,1.281,0.107,1.496,0.719c0.214,0.611-0.107,1.281-0.718,1.496
		l-0.001,0l-1.297,0.454c-0.611,0.214-1.28-0.109-1.493-0.72C124.426,163.284,124.747,162.615,125.357,162.401z"/>
	<path fill="#7D97F4" d="M129.762,160.941l1.319-0.392c0.623-0.185,1.277,0.17,1.462,0.793c0.185,0.623-0.17,1.277-0.793,1.462
		l-0.001,0l-1.32,0.39c-0.623,0.184-1.276-0.172-1.46-0.795C128.785,161.778,129.139,161.125,129.762,160.941z"/>
	<path fill="#7D97F4" d="M134.234,159.698l1.338-0.327c0.633-0.154,1.271,0.233,1.425,0.866c0.154,0.632-0.233,1.27-0.866,1.425
		h-0.001l-1.339,0.326c-0.632,0.153-1.269-0.234-1.423-0.867C133.215,160.488,133.602,159.852,134.234,159.698z"/>
	<path fill="#7D97F4" d="M138.763,158.673l1.351-0.262c0.641-0.125,1.261,0.294,1.385,0.935c0.125,0.641-0.294,1.261-0.935,1.385
		l-0.001,0l-1.351,0.26c-0.641,0.124-1.26-0.295-1.383-0.936C137.705,159.415,138.123,158.796,138.763,158.673z"/>
	<path fill="#7D97F4" d="M143.333,157.867l1.361-0.197c0.647-0.094,1.249,0.355,1.342,1.003c0.094,0.648-0.355,1.249-1.003,1.342
		h-0.001l-1.361,0.195c-0.647,0.092-1.247-0.357-1.34-1.004C142.238,158.559,142.686,157.959,143.333,157.867z"/>
	<path fill="#7D97F4" d="M147.937,157.28l1.369-0.132c0.653-0.063,1.232,0.416,1.296,1.069c0.062,0.652-0.416,1.232-1.069,1.295
		h-0.001l-1.37,0.13c-0.652,0.062-1.231-0.417-1.293-1.07C146.807,157.921,147.284,157.342,147.937,157.28z"/>
	<path fill="#7D97F4" d="M152.564,156.915l1.375-0.065c0.657-0.031,1.215,0.476,1.246,1.132c0.031,0.657-0.476,1.215-1.132,1.246
		h-0.002l-1.375,0.063c-0.656,0.03-1.213-0.477-1.244-1.133S151.908,156.945,152.564,156.915z"/>
	<path fill="#7D97F4" d="M157.204,156.773l1.384,0.001c0.659,0,1.193,0.535,1.192,1.194c0,0.659-0.535,1.192-1.194,1.192h-0.001
		h-0.011l-1.367-0.003H157.2c-0.659-0.001-1.191-0.536-1.189-1.195C156.011,157.304,156.545,156.771,157.204,156.773z"/>
	<path fill="#7D97F4" d="M161.843,156.85l1.374,0.062c0.66,0.03,1.171,0.589,1.141,1.25c-0.029,0.66-0.588,1.17-1.249,1.141h-0.001
		l-1.374-0.064c-0.659-0.03-1.169-0.59-1.139-1.249C160.625,157.329,161.183,156.819,161.843,156.85z"/>
	<path fill="#7D97F4" d="M166.47,157.129l1.37,0.121c0.66,0.059,1.147,0.641,1.089,1.3c-0.058,0.659-0.64,1.147-1.3,1.089l-0.001,0
		l-1.37-0.122c-0.66-0.059-1.146-0.641-1.087-1.3S165.811,157.07,166.47,157.129z"/>
	<path fill="#7D97F4" d="M171.08,157.604l1.364,0.178c0.658,0.086,1.122,0.689,1.036,1.348c-0.086,0.658-0.688,1.122-1.347,1.036
		h-0.001l-1.364-0.18c-0.657-0.086-1.12-0.689-1.034-1.347S170.422,157.518,171.08,157.604z"/>
	<path fill="#7D97F4" d="M175.665,158.269l1.355,0.232c0.656,0.113,1.096,0.736,0.984,1.392c-0.113,0.656-0.736,1.096-1.392,0.983
		h-0.001l-1.355-0.234c-0.655-0.114-1.094-0.736-0.981-1.392C174.388,158.595,175.01,158.155,175.665,158.269z"/>
	<path fill="#7D97F4" d="M180.218,159.116l1.346,0.286c0.652,0.138,1.069,0.779,0.93,1.432c-0.138,0.652-0.779,1.069-1.432,0.931
		l-0.001,0l-1.345-0.288c-0.651-0.139-1.067-0.78-0.928-1.432C178.927,159.393,179.566,158.977,180.218,159.116z"/>
	<path fill="#7D97F4" d="M184.733,160.138l1.334,0.336c0.648,0.164,1.042,0.821,0.877,1.47c-0.163,0.648-0.821,1.041-1.469,0.877
		l-0.001,0l-1.333-0.337c-0.647-0.165-1.039-0.822-0.875-1.47C183.43,160.366,184.086,159.974,184.733,160.138z"/>
	<path fill="#7D97F4" d="M189.207,161.327l1.321,0.384c0.643,0.188,1.013,0.861,0.825,1.505c-0.188,0.643-0.861,1.013-1.504,0.825
		h-0.001l-1.32-0.386c-0.643-0.188-1.012-0.861-0.823-1.504C187.892,161.508,188.564,161.139,189.207,161.327z"/>
	<path fill="#7D97F4" d="M193.632,162.677l1.306,0.431c0.638,0.21,0.984,0.898,0.774,1.536c-0.211,0.638-0.898,0.985-1.536,0.774
		l-0.001,0l-1.306-0.432c-0.637-0.211-0.982-0.898-0.771-1.536C192.31,162.812,192.996,162.465,193.632,162.677z"/>
	<path fill="#7D97F4" d="M198.008,164.179l1.29,0.478c0.63,0.233,0.951,0.933,0.718,1.563c-0.233,0.63-0.93,0.953-1.56,0.719
		l-1.291-0.474c-0.631-0.231-0.956-0.931-0.724-1.563c0.231-0.632,0.931-0.956,1.563-0.724L198.008,164.179z"/>
	<path fill="#7D97F4" d="M202.325,165.834l1.271,0.519c0.619,0.252,0.915,0.958,0.663,1.577s-0.955,0.917-1.573,0.664l-1.273-0.515
		c-0.62-0.251-0.919-0.957-0.668-1.577s0.957-0.919,1.577-0.669L202.325,165.834z"/>
	<path fill="#7D97F4" d="M206.583,167.628l1.256,0.559c0.606,0.27,0.879,0.981,0.609,1.588c-0.27,0.607-0.978,0.881-1.584,0.611
		l-1.258-0.556c-0.608-0.269-0.884-0.979-0.615-1.588c0.269-0.609,0.98-0.884,1.589-0.615L206.583,167.628z"/>
	<path fill="#7D97F4" d="M210.784,169.554l1.239,0.598c0.595,0.287,0.844,1.002,0.557,1.597c-0.287,0.595-0.999,0.846-1.594,0.559
		l-1.241-0.595c-0.597-0.285-0.849-1.001-0.563-1.598c0.285-0.597,1.001-0.849,1.598-0.563L210.784,169.554z"/>
	<path fill="#7D97F4" d="M214.923,171.605l1.222,0.635c0.583,0.303,0.81,1.021,0.507,1.604s-1.018,0.812-1.601,0.509l-1.224-0.631
		c-0.584-0.302-0.813-1.02-0.512-1.605c0.302-0.585,1.02-0.814,1.605-0.513L214.923,171.605z"/>
	<path fill="#7D97F4" d="M219.001,173.777l1.204,0.67c0.571,0.318,0.776,1.038,0.458,1.608c-0.318,0.571-1.035,0.778-1.606,0.46
		l-1.206-0.667c-0.572-0.316-0.78-1.037-0.464-1.61c0.317-0.572,1.038-0.78,1.61-0.464L219.001,173.777z"/>
	<path fill="#7D97F4" d="M223.016,176.063l1.185,0.704c0.558,0.331,0.742,1.053,0.411,1.611s-1.05,0.744-1.608,0.413l-1.187-0.7
		c-0.56-0.331-0.747-1.052-0.417-1.613c0.331-0.561,1.053-0.747,1.613-0.417L223.016,176.063z"/>
	<path fill="#7D97F4" d="M226.964,178.458l1.165,0.734c0.546,0.345,0.71,1.067,0.365,1.613c-0.344,0.547-1.063,0.712-1.61,0.368
		l-1.167-0.731c-0.548-0.344-0.714-1.067-0.371-1.615c0.343-0.548,1.066-0.714,1.614-0.371L226.964,178.458z"/>
	<path fill="#7D97F4" d="M230.847,180.958l1.144,0.765c0.534,0.356,0.678,1.079,0.321,1.613c-0.357,0.533-1.076,0.679-1.61,0.322
		l-1.146-0.762c-0.536-0.355-0.682-1.079-0.326-1.614c0.355-0.536,1.079-0.682,1.615-0.326L230.847,180.958z"/>
	<path fill="#7D97F4" d="M234.66,183.556l1.124,0.792c0.522,0.368,0.646,1.089,0.278,1.611c-0.368,0.521-1.086,0.648-1.608,0.28
		l-1.126-0.79c-0.523-0.367-0.65-1.089-0.284-1.613c0.368-0.524,1.09-0.65,1.613-0.284L234.66,183.556z"/>
	<path fill="#7D97F4" d="M238.404,186.24l1.106,0.815c0.511,0.377,0.62,1.096,0.243,1.607c-0.377,0.511-1.094,0.621-1.605,0.245
		l-1.108-0.813c-0.513-0.376-0.624-1.097-0.248-1.609c0.375-0.513,1.096-0.624,1.609-0.248L238.404,186.24z"/>
	<path fill="#7D97F4" d="M242.091,188.997l1.092,0.835c0.501,0.384,0.596,1.101,0.213,1.602s-1.098,0.598-1.599,0.215l-1.094-0.832
		c-0.503-0.383-0.601-1.101-0.218-1.604c0.383-0.504,1.101-0.601,1.604-0.218L242.091,188.997z"/>
	<path fill="#7D97F4" d="M245.728,191.809l1.08,0.851c0.493,0.388,0.578,1.103,0.19,1.595c-0.389,0.493-1.1,0.58-1.593,0.191
		l-1.083-0.848c-0.495-0.387-0.582-1.103-0.194-1.597c0.387-0.495,1.103-0.582,1.598-0.195L245.728,191.809z"/>
	<path fill="#7D97F4" d="M249.326,194.667l1.071,0.862c0.487,0.391,0.562,1.102,0.172,1.588c-0.392,0.486-1.1,0.565-1.586,0.174
		l-1.073-0.859c-0.488-0.39-0.567-1.102-0.177-1.59c0.391-0.488,1.102-0.567,1.59-0.177L249.326,194.667z"/>
	<path fill="#7D97F4" d="M252.895,197.555l1.065,0.87c0.48,0.392,0.553,1.099,0.16,1.579c-0.392,0.48-1.097,0.555-1.577,0.162
		l-1.067-0.867c-0.483-0.391-0.557-1.099-0.165-1.582c0.391-0.482,1.099-0.556,1.582-0.165L252.895,197.555z"/>
	<path fill="#7D97F4" d="M256.445,200.461l1.063,0.874c0.476,0.391,0.544,1.094,0.153,1.57c-0.392,0.477-1.092,0.547-1.568,0.156
		l-1.065-0.87c-0.478-0.391-0.549-1.095-0.159-1.574c0.391-0.478,1.095-0.549,1.574-0.159L256.445,200.461z"/>
	<path fill="#7D97F4" d="M259.987,203.373l1.063,0.873c0.474,0.389,0.543,1.087,0.154,1.561s-1.085,0.544-1.559,0.156l-1.066-0.87
		c-0.476-0.389-0.547-1.089-0.157-1.564c0.388-0.476,1.088-0.546,1.563-0.158L259.987,203.373z"/>
	<path fill="#7D97F4" d="M263.53,206.276l1.067,0.869c0.473,0.384,0.544,1.079,0.159,1.551s-1.076,0.545-1.549,0.161l-1.069-0.866
		c-0.475-0.384-0.548-1.08-0.164-1.554s1.08-0.547,1.554-0.164L263.53,206.276z"/>
	<path fill="#7D97F4" d="M267.088,209.159l1.072,0.861c0.472,0.379,0.549,1.069,0.169,1.541c-0.379,0.472-1.065,0.55-1.537,0.171
		l-1.077-0.857c-0.474-0.378-0.552-1.069-0.174-1.543c0.378-0.474,1.069-0.552,1.544-0.174L267.088,209.159z"/>
	<path fill="#7D97F4" d="M270.665,212.007l1.082,0.849c0.474,0.372,0.556,1.056,0.185,1.529c-0.37,0.474-1.054,0.558-1.526,0.187
		l-1.085-0.846c-0.476-0.37-0.561-1.056-0.189-1.532c0.369-0.475,1.056-0.56,1.531-0.189L270.665,212.007z"/>
	<path fill="#7D97F4" d="M274.274,214.81l1.093,0.831l0.002,0.001c0.477,0.362,0.569,1.042,0.207,1.518
		c-0.362,0.476-1.039,0.57-1.515,0.208l-1.1-0.831c-0.478-0.361-0.573-1.042-0.212-1.52c0.361-0.478,1.042-0.572,1.521-0.211
		l0.002,0.002L274.274,214.81z"/>
	<path fill="#7D97F4" d="M277.924,217.548l1.11,0.812c0.479,0.351,0.584,1.024,0.234,1.503c-0.352,0.48-1.022,0.587-1.502,0.236
		l-1.111-0.809c-0.483-0.35-0.59-1.024-0.24-1.505c0.351-0.481,1.024-0.589,1.507-0.239L277.924,217.548z"/>
	<path fill="#7D97F4" d="M281.626,220.212l1.128,0.788c0.484,0.338,0.603,1.004,0.266,1.489c-0.339,0.484-1.002,0.604-1.486,0.267
		l-1.131-0.784c-0.486-0.337-0.606-1.004-0.27-1.491c0.337-0.486,1.004-0.607,1.49-0.27L281.626,220.212z"/>
	<path fill="#7D97F4" d="M285.386,222.788l1.147,0.758c0.49,0.324,0.624,0.982,0.301,1.472c-0.324,0.489-0.979,0.625-1.469,0.303
		l-1.149-0.754c-0.492-0.322-0.63-0.982-0.307-1.474c0.321-0.492,0.981-0.629,1.473-0.307L285.386,222.788z"/>
	<path fill="#7D97F4" d="M289.207,225.266l1.168,0.727c0.49,0.306,0.64,0.951,0.335,1.442c-0.305,0.489-0.945,0.64-1.436,0.339
		l-1.172-0.719c-0.496-0.304-0.651-0.951-0.348-1.446c0.305-0.495,0.951-0.65,1.446-0.346L289.207,225.266z"/>
	<path fill="#7D97F4" d="M293.097,227.628l1.19,0.689c0.492,0.286,0.661,0.917,0.376,1.41c-0.284,0.491-0.911,0.66-1.403,0.379
		l-1.194-0.681c-0.498-0.284-0.671-0.916-0.388-1.414c0.282-0.497,0.915-0.67,1.412-0.387L293.097,227.628z"/>
	<path fill="#7D97F4" d="M297.06,229.858l1.215,0.646c0.495,0.264,0.684,0.879,0.419,1.375c-0.262,0.493-0.873,0.682-1.367,0.423
		l-1.22-0.637c-0.499-0.262-0.691-0.878-0.431-1.378c0.262-0.499,0.878-0.692,1.378-0.431L297.06,229.858z"/>
	<path fill="#7D97F4" d="M301.102,231.938l1.239,0.598c0.497,0.24,0.707,0.838,0.468,1.336c-0.24,0.496-0.833,0.705-1.33,0.47
		l-1.245-0.589c-0.502-0.238-0.716-0.837-0.479-1.339c0.238-0.501,0.837-0.716,1.34-0.478L301.102,231.938z"/>
	<path fill="#7D97F4" d="M305.224,233.849l1.263,0.542c0.5,0.215,0.73,0.794,0.518,1.294c-0.215,0.498-0.79,0.729-1.289,0.52
		l-1.267-0.534c-0.505-0.212-0.741-0.793-0.528-1.297c0.212-0.504,0.792-0.74,1.297-0.528L305.224,233.849z"/>
	<path fill="#7D97F4" d="M309.42,235.572l1.286,0.482c0.503,0.188,0.757,0.747,0.569,1.249c-0.188,0.5-0.743,0.754-1.243,0.571
		l-1.29-0.473c-0.505-0.186-0.765-0.745-0.578-1.251c0.186-0.505,0.745-0.765,1.251-0.58L309.42,235.572z"/>
	<path fill="#7D97F4" d="M313.693,237.087l1.309,0.416c0.503,0.159,0.781,0.696,0.622,1.198c-0.159,0.501-0.692,0.778-1.193,0.624
		l-1.312-0.407c-0.506-0.157-0.79-0.694-0.633-1.201c0.157-0.506,0.694-0.79,1.2-0.632L313.693,237.087z"/>
	<path fill="#7D97F4" d="M318.037,238.376l1.331,0.344c0.503,0.13,0.805,0.642,0.676,1.145c-0.13,0.5-0.639,0.802-1.14,0.677
		l-1.334-0.335c-0.505-0.127-0.812-0.64-0.685-1.146c0.126-0.506,0.64-0.813,1.146-0.686L318.037,238.376z"/>
	<path fill="#7D97F4" d="M322.441,239.417l1.351,0.261c0.501,0.097,0.829,0.583,0.732,1.083c-0.097,0.5-0.578,0.826-1.077,0.733
		l-1.352-0.252c-0.505-0.094-0.837-0.58-0.743-1.083c0.094-0.504,0.579-0.837,1.083-0.743L322.441,239.417z"/>
	<path fill="#7D97F4" d="M326.902,240.178l1.365,0.174c0.498,0.064,0.85,0.519,0.786,1.017c-0.063,0.496-0.516,0.847-1.011,0.787
		l-1.366-0.165c-0.501-0.061-0.857-0.516-0.796-1.017c0.06-0.5,0.515-0.857,1.016-0.797L326.902,240.178z"/>
	<path fill="#7D97F4" d="M331.402,240.65l1.373,0.085c0.494,0.031,0.868,0.455,0.836,0.947c-0.029,0.491-0.451,0.864-0.94,0.837
		l-1.373-0.076c-0.496-0.028-0.874-0.451-0.847-0.947c0.027-0.495,0.451-0.874,0.946-0.847H331.402z"/>
	<path fill="#7D97F4" d="M335.925,240.827l1.375-0.006c0.485-0.003,0.881,0.389,0.884,0.874c0.001,0.483-0.387,0.876-0.869,0.883
		l-1.376,0.015c-0.486,0.006-0.888-0.385-0.893-0.872c-0.006-0.488,0.386-0.888,0.872-0.894H335.925z"/>
	<path fill="#7D97F4" d="M340.446,240.698l1.371-0.103c0.476-0.035,0.89,0.321,0.925,0.796c0.036,0.473-0.319,0.886-0.791,0.924
		l-1.37,0.111c-0.478,0.039-0.896-0.317-0.936-0.794s0.317-0.896,0.795-0.935L340.446,240.698z"/>
	<path fill="#7D97F4" d="M344.944,240.25l1.361-0.202c0.462-0.069,0.895,0.25,0.963,0.714c0.068,0.461-0.248,0.891-0.708,0.962
		l-1.359,0.21c-0.465,0.073-0.9-0.246-0.974-0.711c-0.072-0.465,0.247-0.901,0.712-0.973L344.944,240.25z"/>
	<path fill="#7D97F4" d="M349.396,239.467l1.34-0.306c0.448-0.103,0.895,0.178,0.997,0.626c0.102,0.446-0.175,0.891-0.62,0.995
		l-1.339,0.315c-0.45,0.106-0.9-0.172-1.007-0.623s0.173-0.9,0.623-1.007L349.396,239.467z"/>
	<path fill="#7D97F4" d="M353.77,238.338l1.31-0.415c0.431-0.136,0.89,0.102,1.026,0.533c0.136,0.428-0.102,0.885-0.527,1.023
		l-1.31,0.424c-0.43,0.14-0.895-0.097-1.034-0.528c-0.139-0.432,0.097-0.895,0.529-1.035L353.77,238.338z"/>
	<path fill="#7D97F4" d="M358.029,236.849l1.271-0.525c0.408-0.169,0.876,0.025,1.046,0.434c0.167,0.406-0.023,0.871-0.427,1.042
		l-1.267,0.537c-0.41,0.174-0.884-0.017-1.057-0.427c-0.174-0.41,0.017-0.883,0.427-1.058L358.029,236.849z"/>
	<path fill="#7D97F4" d="M362.143,234.997l1.218-0.639c0.379-0.199,0.847-0.053,1.045,0.326c0.199,0.376,0.055,0.841-0.317,1.042
		l-1.212,0.652c-0.38,0.205-0.854,0.063-1.06-0.318c-0.205-0.38-0.063-0.854,0.318-1.06
		C362.135,235,362.141,234.998,362.143,234.997z"/>
	<path fill="#7D97F4" d="M366.064,232.771l1.149-0.752c0.346-0.227,0.811-0.129,1.037,0.217c0.225,0.344,0.131,0.805-0.21,1.033
		l-1.141,0.765c-0.348,0.233-0.817,0.14-1.051-0.208c-0.232-0.347-0.14-0.818,0.207-1.05
		C366.059,232.774,366.063,232.771,366.064,232.771z"/>
	<path fill="#7D97F4" d="M369.743,230.175l1.064-0.871c0.31-0.253,0.766-0.208,1.019,0.102c0.252,0.308,0.208,0.76-0.096,1.014
		l-1.055,0.883c-0.31,0.259-0.771,0.218-1.03-0.092c-0.26-0.31-0.219-0.771,0.092-1.031
		C369.738,230.18,369.743,230.176,369.743,230.175z"/>
	<path fill="#7D97F4" d="M373.114,227.19l0.961-0.984c0.27-0.276,0.713-0.281,0.988-0.012c0.274,0.268,0.281,0.706,0.018,0.982
		l-0.95,0.995c-0.27,0.282-0.717,0.292-0.998,0.023c-0.282-0.27-0.293-0.716-0.024-0.999
		C373.11,227.195,373.114,227.191,373.114,227.19z"/>
	<path fill="#7D97F4" d="M376.141,223.848l0.851-1.081c0.23-0.292,0.653-0.344,0.945-0.114c0.291,0.229,0.343,0.647,0.118,0.939
		l-0.837,1.091c-0.23,0.298-0.657,0.354-0.955,0.125c-0.299-0.229-0.354-0.656-0.125-0.955
		C376.138,223.853,376.141,223.849,376.141,223.848z"/>
	<path fill="#7D97F4" d="M378.799,220.2l0.732-1.165c0.19-0.303,0.59-0.395,0.893-0.204c0.302,0.188,0.394,0.584,0.208,0.887
		l-0.719,1.173c-0.189,0.309-0.594,0.405-0.902,0.216c-0.308-0.189-0.404-0.592-0.215-0.901
		C378.796,220.205,378.799,220.201,378.799,220.2z"/>
	<path fill="#7D97F4" d="M381.061,216.291l0.606-1.235c0.151-0.309,0.524-0.437,0.833-0.285c0.308,0.15,0.435,0.52,0.287,0.827
		l-0.591,1.242c-0.151,0.314-0.526,0.447-0.84,0.297c-0.314-0.15-0.448-0.526-0.298-0.84
		C381.059,216.296,381.061,216.292,381.061,216.291z"/>
	<path fill="#7D97F4" d="M382.9,212.164l0.471-1.292c0.112-0.311,0.455-0.47,0.766-0.357c0.307,0.112,0.467,0.451,0.359,0.76
		l-0.457,1.297c-0.11,0.315-0.456,0.481-0.771,0.37c-0.314-0.111-0.48-0.457-0.369-0.771
		C382.899,212.17,382.9,212.166,382.9,212.164z"/>
	<path fill="#7D97F4" d="M384.282,207.863l0.326-1.336c0.073-0.307,0.383-0.496,0.689-0.421c0.305,0.074,0.493,0.38,0.422,0.685
		l-0.309,1.34c-0.073,0.312-0.384,0.506-0.695,0.435c-0.312-0.072-0.507-0.383-0.435-0.695
		C384.282,207.868,384.282,207.864,384.282,207.863z"/>
	<path fill="#7D97F4" d="M385.172,203.434l0.166-1.365c0.036-0.3,0.309-0.513,0.608-0.477c0.297,0.036,0.51,0.305,0.477,0.602
		l-0.15,1.367c-0.034,0.304-0.308,0.523-0.612,0.49c-0.304-0.034-0.522-0.307-0.488-0.611
		C385.172,203.439,385.172,203.435,385.172,203.434z"/>
	<path fill="#7D97F4" d="M385.523,198.933l-0.006-1.375c-0.001-0.288,0.232-0.522,0.519-0.523c0.287-0.001,0.52,0.228,0.524,0.513
		l0.021,1.375c0.005,0.292-0.229,0.532-0.521,0.537c-0.292,0.004-0.531-0.229-0.537-0.521
		C385.523,198.937,385.523,198.934,385.523,198.933z"/>
	<path fill="#7D97F4" d="M385.299,194.425l-0.189-1.362c-0.037-0.271,0.152-0.521,0.424-0.559c0.27-0.038,0.519,0.149,0.559,0.417
		l0.203,1.36c0.042,0.275-0.148,0.532-0.423,0.573s-0.531-0.148-0.572-0.423C385.3,194.43,385.299,194.426,385.299,194.425z"/>
	<path fill="#7D97F4" d="M384.463,189.991l-0.379-1.322c-0.072-0.25,0.073-0.51,0.322-0.582c0.248-0.071,0.507,0.071,0.58,0.317
		l0.394,1.317c0.076,0.253-0.068,0.52-0.32,0.595c-0.253,0.076-0.52-0.068-0.596-0.321
		C384.464,189.995,384.463,189.992,384.463,189.991z"/>
</g>
</svg>
